<mxfile host="app.diagrams.net" modified="2023-02-08T20:24:05.887Z" agent="5.0 (Macintosh)" etag="YV2TiPpSZ2WUsW4V16ge" version="20.8.13" type="github">
  <diagram name="Страница 1" id="9PAOowngYXVebXmvG1H0">
    <mxGraphModel dx="1427" dy="669" grid="1" gridSize="10" guides="1" tooltips="1" connect="1" arrows="1" fold="1" page="1" pageScale="1" pageWidth="827" pageHeight="1169" math="0" shadow="0">
      <root>
        <mxCell id="0" />
        <mxCell id="1" parent="0" />
        <mxCell id="D13HqMTGhr0uNa7FewxC-1" value="&lt;div&gt;ESME РЕКЛАМНЫЙ АГЕНТ&lt;/div&gt;&lt;div&gt;IP 212.83.171.135&lt;br&gt;&lt;/div&gt;" style="rounded=0;whiteSpace=wrap;html=1;" vertex="1" parent="1">
          <mxGeometry y="40" width="120" height="60" as="geometry" />
        </mxCell>
        <mxCell id="D13HqMTGhr0uNa7FewxC-2" value="&lt;div&gt;SMSC&lt;br&gt;СМС центр &lt;br&gt;&lt;/div&gt;&lt;div&gt;Кот-д’Ивуар&lt;br&gt;IP 195.191.165.16&lt;br&gt;&lt;/div&gt;" style="rounded=0;whiteSpace=wrap;html=1;" vertex="1" parent="1">
          <mxGeometry x="400" y="40" width="120" height="60" as="geometry" />
        </mxCell>
        <mxCell id="D13HqMTGhr0uNa7FewxC-4" value="&lt;div&gt;SMSC Транзитная компания&lt;/div&gt;&lt;div&gt;IP 138.201.20.86&lt;br&gt;&lt;/div&gt;" style="rounded=0;whiteSpace=wrap;html=1;" vertex="1" parent="1">
          <mxGeometry x="200" y="40" width="120" height="60" as="geometry" />
        </mxCell>
        <mxCell id="D13HqMTGhr0uNa7FewxC-8" value="&lt;div&gt;SMSC&lt;/div&gt;&lt;div&gt;Oricel Cote d&quot;Ivoire&lt;/div&gt;" style="rounded=0;whiteSpace=wrap;html=1;" vertex="1" parent="1">
          <mxGeometry x="200" y="180" width="120" height="60" as="geometry" />
        </mxCell>
        <mxCell id="D13HqMTGhr0uNa7FewxC-9" value="&lt;div&gt;SMSC&lt;/div&gt;&lt;div&gt;Orange Cote d&quot;Ivoire&lt;/div&gt;" style="rounded=0;whiteSpace=wrap;html=1;" vertex="1" parent="1">
          <mxGeometry x="340" y="180" width="120" height="60" as="geometry" />
        </mxCell>
        <mxCell id="D13HqMTGhr0uNa7FewxC-10" value="&lt;div&gt;SMSC&lt;/div&gt;&lt;div&gt;MTN Cote d&quot;Ivoire&lt;/div&gt;" style="rounded=0;whiteSpace=wrap;html=1;" vertex="1" parent="1">
          <mxGeometry x="480" y="180" width="120" height="60" as="geometry" />
        </mxCell>
        <mxCell id="D13HqMTGhr0uNa7FewxC-11" value="&lt;div&gt;SMSC&lt;/div&gt;&lt;div&gt;Atlantique Cellulaire Cote d&quot;Ivoire&lt;/div&gt;" style="rounded=0;whiteSpace=wrap;html=1;" vertex="1" parent="1">
          <mxGeometry x="620" y="180" width="120" height="60" as="geometry" />
        </mxCell>
        <mxCell id="D13HqMTGhr0uNa7FewxC-12" value="" style="shape=image;verticalLabelPosition=bottom;labelBackgroundColor=default;verticalAlign=top;aspect=fixed;imageAspect=0;image=data:image/jpeg,/9j/4AAQSkZJRgABAQAAAQABAAD//gA8Q1JFQVRPUjogZ2QtanBlZyB2MS4wICh1c2luZyBJSkcgSlBFRyB2NjIpLCBxdWFsaXR5ID0gMTAwCv/bAEMABQUFBQUFBQYGBQgIBwgICwoJCQoLEQwNDA0MERoQExAQExAaFxsWFRYbFykgHBwgKS8nJScvOTMzOUdER11dff/CAAsIAoACgAEBIQD/xAAdAAEBAQEBAAMBAQAAAAAAAAAACQcGCAMEBQIB/9oACAEBAAAAAPXYAAAAAAAAAAAAAAAAAAAAAAAAAAAAAAAAAAAAAAAAAAAAAAAAAAAAAAAAAAAAAAAAAAAAAAAAAAAAAAAAAAAAAAAAAAAAAAAAAAAAAAAAAAAAAAAAAAAAAAAAAAAAAAAAAAAAAAAAA/E814px3wAAAPl6vaPS/RgAAAAAAAHn/wAK/ggAAAP1vbXpgAAAAAAADzh4LejvTmi/YAAAfDwPmvzH8Ptj1cAAAAAAAHFS9+t799BgAAAMVnj9emWnAAAAAAADwp5i9e+ywB5s8ifyHqL1cAPKviHfKGAAAAAAAH8yc/FrH+4APIHjf/A9Ue4AB9STf062/eAAAAAAAfgSW0WoYAPpf4P9+6ACbuM1I0AAAAAAABykotVpmAAAACdWGU+0oAAAAAABykotVpmAAAACdWGU+0oAAAAAABykou99sgAAAA8d5bT7SgAAAAAAHKSiAAAAAFP9JAAAAAAAcpKLpd/AAAABhnHU/wBJAAAAAAAcpKLVaZgAAAAnVhlP9JAAAAAAAcpKLVaZgAAAAnVhlP8ASQAAAAAAHKSi1WmYAAAAJ1YZT/SQAAAAAAHKSi1WmYAAAAJ1YZT/AEkAAAAAABykotVpmAAAACdWGU/0kAAAAAABykotVpmAAAACdWGU/wBJAAAAAAAcpKLVaZgAAAAnVhlP9JAAAAAAAcpKLVaZgAAAAnVhlP8ASQAAAAAAHKSi1WmYAAAAJ1YZT/SQAAAAAAHKSi1WmYAAAAJ1YZT/AEkAAAAAABykotVpmAAAACdWGU/0kAAAAAABykotVpmAAAACdWGU/wBJAAAAAAAcpKLVaZgAAAAnVhlP9JAAAAAAAcpKLVaZgAAAAnVhlP8ASQAAAAAAHKSi1WmYAAAAJ1YZT/SQAAAAAAHKSi1WmYAAAAJ1YZT/AEkAAAAAABykotVpmAAAACdWGU/0kAAAAAABykotVpmAAAACdWGU/wBJAAAAAAAcpKLVaZgAAAAnVhlP9JAAAAAAAcpKLVaZgAAAAnVhlP8ASQAAAAAAHKSi1WmYAAAAJ1YZT/SQAAAAAAHKSi1WmYAAAAJ1YZT/AEkAAAAAABykotVpmAAAACdWGU/0kAAAAAABykotVpmAAAACdWGU/wBJAAAAAAAcpKLVaZgAAAAnVhlP9JAAAAAAAcpKLVaZgAAAAnVhlP8ASQAAAAAAHKSi1WmYAAAAJ1YZT/SQAAAAAAHKSi1WmYAAAAJ1YZT/AEkAAAAAABykotVpmAAAACdWGU/0kAAAAAABykotVpmAAAACdWGU/wBJAAAAAAAcpKLVaZgAAAAnVhlP9JAAAAAAAcpKLVaZgAAAAnVhlP8ASQAAAAAAHKSi1WmYAAAAJ1YZT/SQAAAAAAHKSi1WmYAAAAJ1YZT/AEkAAAAAABykou79ngAAAA8iZhT/AEkAAAAAABykogAAAABT/SQAAAAAAHKSi6b0CAAAADCuNp/pIAAAAAADlJRarTMAAAAE6sMp/pIAAAAAADlJRarTMAD6GJfDtv6oAE6sMp/pIAAAAAADlJRarTMAHMTY4V1VJO6ABOrDKf6SAAAAAAA5SUWq0zAB4d8s7P8AoYR6FoGACdWGU/0kAAAAAABzUnNOp0ACcmJU36GU+lU+ABOXEah6KAAAAAAA+GR/9Vq+0AHjvx32X2eE9Re5gA/yUnMVp/aAAAAAAAJ4YN7y9LAB9Cf2Ef5sVC/2wAwqdmsUwAAAAAAAGQTZ/bpZ3wAOP+LtQAcnNHkaE7+AAAAAAAHiPyn+97T9F/cAAAH18B8T8r6M9+AAAAAAAA/jxN5W/j9Pt/mAAAfHxf4/++kvdn2QAAAAAAAGReT8X/MAAAH3ti9VbcAAAAAAAAD+PwPjAAAf3+98oAAAAAAAAAAAAAAAAAAAAAAAAAAAAAAAAAAAAAAAAAAAAAAAAAAAAAAAAAAAAAAAAAAAAAAAAAAAAAAAAAAAAAAAAAAAAAAAAAAAAAAAAAAAAAAAAAAAAAAAAAAAA//EAC0QAAECBAUEAwACAwEBAAAAAAYFBwACAwQIEBg3UAEXNkAVFjAREhMUMZAg/9oACAEBAAEIAP8A06XiNCGLKa+WSjFGlW01SgNK2IJzVOaf/FWdBxLjr/NTuQfx3IP47kH8dyD+O5B/Hcg/juQfx3IP47kH8dyD+O5B/Hcg/juQfx3IP47kH8dyD+O5B/Hcg/juQfx3IP4pOa4VGb+0iU/rnpk0n8jGKW2qzUqJMNlw4XWnS7Q+TdZ80wK610hGICVdKVCooLXtJC0qoF9RUEpqX+syWegilHIvm73URtph5DqVJ6tSepUp056s8klMEw5EZDToXxCgMi26BJJ/S3Q0S0l6SW3xyfHxyfHxyfHxyfHxyfHxyfHxyfHxyfHxyfHxyfHxyfHxyfHxyfHxyfHxyfHxyfHxyfHxyfHxyfHxyfFZFR7mTrJXXWabdfkn/wA5xhpWkmnWvRa4t69nXrW9x0/npDCvFUVv8AkRce4RjagoqpLVdUUr1ZULxRvre3rXdejb27PsrYB1rbLC57Trs+lH9lVvLJSTb1Iv7tPv7e4rWlejcW7SnlM/EbS+qcdiZLZ1ImsRyhGGtvKdxPWM1H8n5dlUC/8ASQkGZzHEnm6zde5bhx3LcOO5bhx3LcOOjluHDDPAtEipMMEX5YkW8p36ZKY2EYeCyceO6CbV42eeWnJPPMWq86+TkCrPa21a9ube1oDKHbDKAkI1t+WJQAWL+9sCpN/5/wDWHACWZyOQsu/yv7G1U7G8sbsgSKyAuKyTXTr2sm39jfUEu9pqSan31PjCy6mshUlu5YaaykUXIDref8/+/wAxMmp003XrN8Wmx8Wmx8Wmx8Wmx0TE7p16denTp06dP46fm/tlJZukQ9ZIaq5nu24DKs3GHng5nkyW6Yf7+IrdBTyZ7bIM4088HM8mS3TD/fxFboKeTPbZBnGnng5nk2S8nDJ2OrKnqLa+NRbXxqLa+NRbXxqLa+NRbXxqLa+NRbXxqLa+NRbXxqLa+NRbXxqLa+NRbXxqLa+NRbXxqLa+NRbXxqLa+NRbXxqLa+NRbXxqLa+NRbXxqLa+NRbXxqLa+NRbXxqLa+NRbXw8JQkGJxfLCPDPbYhnGnng5nwbPbZBnGnng5nkIjlyXEaWg22lcpjSwUxpXKY0rlMaVymNK5TGlgpjSuUxpXKY0rlMaVymNLBTGlcpjSuUxpXKY0rlMaWCmNK5TGlcpjSuUxpXKY0sFMaVymNK5TGlcpjSuUxpYKY0rlMaVymNK5TByHXgIQ10O8hntsgzjTzwczyZLdMP9/EVugp5M9tkGcaeeDmeTJbph/v4it0FPJntsgzjTzwczyZLdMP9/EVugp5M9tkGcaeeDmeTJbph/v4it0FPJntsgzjTzwczyZLdMP8AfxFboKeTPbZBnGnng5nkyW6Yf7+IrdBTyZ7bIM4088HM8mS3TD/fxFboKeTPbZBnGnng5nkyW6Yf7+IrdBTyZ7bIM4088HM8mS3TD/fxFboKeTPbZBnGnng5nkyW6Yf7+IrdBTyZ7bIM4088HM8mS3TD/fxFboKeTPbZBnGnng5nkyW6Yf7+IrdBTyZ7bIM4088HM8mS3TD/AH8RW6Cnkz22QZxp54OZ5MlumH+/iK3QU8me2yDONPPBzPJkt0w/38RW6Cnkz22QZxp54OZ5MlumH+/iK3QU8me2yDONPPBzPJkt0w/38RW6Cnkz22QZxp54OZ5MlumH+/iK3QU8me2yDONPPBzPJkt0w/38RW6Cnkz22QZxp54OZ5MlumH+/iK3QU8me2yDONPPBzPJkt0w/wB/EVugp5M9tkGcaeeDmeTJbph/v4it0FPJntsgzjTzwczyZLdMP9/EVugp5M9tkGcaeeDmeTJbph/v4it0FPJntsgzjTzwczyZLdMP9/EVugp5M9tkGcaeeDmeTJbph/v4it0FPJntsgzjTzwczyZLdMP9/EVugp5M9tkGcaeeDmeTJbph/v4it0FPJntsgzjTzwczyZLdMP8AfxFboKeTPbZBnGnng5nkyW6Yf7+IrdBTyZ7bIM4088HM8mS3TD/fxFboKeTPbZBnGnng5nkyW6Yf7+IrdBTyZ7bIM4088HM8mS3TD/fxFboKeTPbZBnGnng5nkyW6Yf7+IrdBTyZ7bIM4088HM8m1X08WOB9aUtSbaRqTbSNSbaRqTbSNSbaRqTbSNSbaRqTbSNSbaRqTbSNSbaRqTbSNSbaRqTbSNSbaRqTbSNSbaRqTbSNSbaRqTbSNSbaRqTbSNSbaRqTbSNSbaRqTbSNSbaRqTbSNSbaRqTbSHeK0kzNr1ZSYZ7bIM4088HM+DZ7bIM4088HM8hAbuC8jS0G20qk0aVSaNKpNGlUmjSqTRpVJo0qk0aVSaNKpNGlUmjSqTRpVJo0qk0aVSaNKpNGlUmjSqTRpVJo0qk0aVSaNKpNGlUmjSqTRpVJo0qk0aVSaNKpNGlUmjSqTRpVJoOw67BCK4Q7uGe2yDONPPBzPJkt0w/38RW6Cnkz22QZxp54OZ5MlumH/spqqai2dW9UlXEi2ybV60qKbiWbm+qy066Muo5DZSXyR+uIrdBTyZ7bIM4088HM8mS3TD/1MSxLCh++W1I6PyE+Val6q5CZivhapSUkVvDpOcAct1a0/TEVugp5M9tkGcaeeDmeTJbph/64oCatdkSSO04bdliJw7edRkcRhiIETp1ajGG8mrI53KkzfpiK3QU8me2yDONNaU1cNLKMkM1XktnPDZ5/0xCSTyuqQdZoZi+Tb5tBX/QcC/TU4JKLhThn6daq5gb0pfpiFryVnRWpZIaOnNSbQMln4y5oS3NtcUJ1ewqJSqpp9VFU6qMrpinRsb23UrK0vrX88UIfW6zpBbbQKHhWE1qtVCLXIMTfpTkXIwyh9a/Irwor/nNNLJLNNMcLvQmLyJYlp0561SSlINpvRHHkJN47EMLzIB/dX0kYbzumtDkwvd/mqpdgtJ14mqDlsaRBlzcXqXk3bNFB3c0K046PJYqjWKOlfm/h3IJh9dOtoZYXnKXCQ6XXjnrBOpyG3ElpNLNJNNLMNkSoKLVispbeuEiuEiyX1j+is34Qu1Z6ykmNuBo9WWrY9OnSXp06dPzMzRDBkWuqqxqYKpyQXi0pRh9AZxQW6q19x7/tLOmXVwXocDxGtCqnQVEYExIDqxToWhPYqKeqUKdzYetdXdpY0Z690cYiRMekrWyEVmJAaqlRSW4YppqxYpUSBY6dOkvTp06cfVo0q9KpSrOywF2mT3K2HzSzSTdZZoTllWSKvSqm0Hgc23k/pJ3odCO9DoR3odCO9DoR3odCO9DoR3odCO9DoR3odCO9DoR3odCO9DoR3odCO9DoR3odCO9DoR3odCO9DoR3odCO9DoRWeJzq0nWSdUX11bn/uqR/wBhqmFUyepbK5LZ2don2tvaWfJHjLBpz1q3VQow7nyDPUnT1FHVUer/AIVH1rFNUFOt0o2IywDhkE9Oe5BGHDw2eleXHLVKVKtJNJVqiApXm6z1fpYfH0sPj6WHx9LD4+lh8fSw+PpYfH0sPj6WHx9LD4+lh8fSw+PpYfH0sPj6WHx9LD4+lh8fSw+PpYfH0sPiQPEqU3SeShb0Lan0p0P/ADs//8QARxAAAQIDBQMKAggBCwUBAAAAAgEDAAQFBhBUlLMRUJIhMUBBUVWTstHSEjATIjJCU2FxgRQVJDNEUmJjcpCRoSAjQ3N0ov/aAAgBAQAJPwD/AFOqoxJsdROlsUtnUKc5LFDcm1xM2v0TfAMVhqRBfuSrAD50JYtnVcyQxbGrZo4tjVs0cWxq2aOLY1bNHFsatmji2NWzRxbGrZo4tjVs0cWxq2aOLY1bNHFsatmji2NWzRxbGrZo4tjVs0cWxq2aOLY1bNHFsatmji2NWzRxbGrZo4tjVs0cWzq2ZNYr6TgJ9yaZA/QooCs9szI/XTwzirMTbafbEC+uG3qMV2KO9Ebnq3zH1syv+ftOKk7NzJ/eNeQU7AFOQU6XUHpSaaXaDrRfCv79qQrUpVC2AzN/YZmPYe8n0/lmYb2vPYRv3rBkZkqqREu1VVetVWAUzJUQRFNqqq9SQ+tIkj5UZ+BDmT9kWdanHk53p3a+vCX1Yo8kyPULbAAn/CJEhL+GMSEv4YxIS/hjEhL+GMSEv4YxIS/hjEhL+GMSEv4YxIS/hjEhL+GMSEv4YxIS/hjEhL+GMSEv4YxIS/hjEhL+GMSEv4YxIS/hjEhL+GMSEv4YxSZN0OsTYAk/5RYszLS7hczsmn8MSeHE6tTYHlWTdRAmB98MG080Sg42YqJCSc6Ki3TSlOCGynzbhcryfgn2nvDYTrYoEs1+I8fIIw+T01Muk664XKpEUNE686aA22CbSIi5ERIYbma84KEglsMJP8g7T7S6W23K15odrMxzI/8A3HoljYmpZwm3mj5CEhh0m3mjQ2zBdhCQ8qKiwYpUZbYxPAn4o/f/AEPd7v8ANqWyjjydr73tG5jaLREzTR873y3EaqM0yrz0zzqy1zCgRbitZ11ItxW8876xbit5531i3FbzzvrFuK3nnfWLb1rOu+sTKTT5Mk5JTa8jhfR8pAfy2Nk1JoLc+n4jHU5+oXObJOsiksaf43O1u5dgiiqv7csFtWcn33k/ISNVFP2SAU3n3BbbHtI12IkIn0UlLNtIvaqfaL91+XKOTLDcskvOA2KkbSByi5/1yjkvISjLoSxOCoq+48Kh9T5baOS8yybToL1iabFjlckpp1gl7foy2bYJReln23m17CbJCSOUJqWafD9HBQt2rsJilzjqL+YNEtybR/lAHPC2ufNkJdVVedWhiny3hDFPlvCGKfLeEMU+W8IYp8si7fwhjkT5nM+Mu9xNDd3YyHB9Xdvck/oFdiXNE+n4SV07sAPm3b3JP6BXYlzRPp+EldO7AD5t29yT+gVzhBJyjxm6QipKiK2QxU5vKnFTm8qcVObypxU5vKnFTm8qcVObypxU5vKnFTm8qcVObypxU5vKnFTm8qcVObypxU5vKnFTm8qcVObypxU5vKnFTm8qcVObypxU5vKnFTm8qcVObypxU5vKnFTm8qcVObypxU5vKnFTm8qcVObypxU5vKnFTm8qcVObypw6bkm4wwAkYKC7QG7AD5t29yT+gW48APm3b3JP6BXPtsvTrhADjm1RH4RUuXZFpKbwuRaSm8LkWkpvC5FpKbwuRaSm8LkWkpvC5FpKbwuRaSm8LkWkpvC5FpKbwuRaSm8LkWkpvC5FpKbwuRaSm8LkWkpvC5FpKbwuRaSm8LkWkpvC5FpKbwuRaSm8LkWkpvC5FpKbwuRaSm8LkWkpvC5FpKbwuRaSm8LkWkpvC5FpKbwuRaSm8LkWkpvC5E2zMPNNtmrjW1B2OJt67sAPm3b3JP6BXYlzRPp+EldO7AD5t29yT+gV2Jc0T6fhJXTuwA+bdvck/oFdiXNE+n4SV07sAPm3b3JP6BXYlzRPp+EldO7AD5t29yT+gV2Jc0T6fhJXTuwA+bdvck/oFdiXNE+n4SV07sAPm3b3JP6BXYlzRPp+EldO7AD5t29yT+gV2Jc0T6fhJXTuwA+bdvck/oFdiXNE+n4SV07sAPm3b3JP6BXYlzRPp+EldO7AD5t29yT+gV2Jc0T6fhJXTuwA+bdvck/oFdiXNE+n4SV07sAPm3b3JP6BXYlzRPp+EldO7AD5t29yT+gV2Jc0T6fhJXTuwA+bdvck/oFdiXNE+n4SV07sAPm3b3JP6BXYlzRPp+EldO7AD5t29yT+gV2Jc0T6fhJXTuwA+bdvck/oFdiXNE+n4SV07sAPm3b3JP6BXYlzRPp+EldO7AD5t29yT+gV2Jc0T6fhJXTuwA+bdvck/oFdiXNE+n4SV07sAPm3b3JP6BXYlzRPp+EldO7AD5t29yT+gV2Jc0T6fhJXTuwA+bdvck/oFdiXNE+n4SV07sAPm3b3JP6BXYlzRPp+EldO7AD5t29yT+gV2Jc0T6fhJXTuwA+bdvck/oFdiXNE+n4SV07sAPm3b3JP6BXYlzRPp+EldO7AD5t29yT+gV2Jc0T6fhJXTuwA+bdvck/oFdiXNE+n4SV07sAPm3b3JP6BXYlzRPp+EldO7AD5t29yT+gV2Jc0T6fhJXTuwA+bdvck/oFdiXNE+n4SV07sAPm3b3JP6BXYlzRPp+EldO7AD5t29yT+gVymkpKPGbqtj8RbCbIYdqOVh2o5WHajlYdqOVh2o5WHajlYdqOVh2o5WHajlYdqOVh2o5WHajlYdqOVh2o5WHajlYdqOVh2o5WHajlYdqOVh2o5WHajlYdqOVh2o5WHajlYdqOVh2o5WHajlYdqOVh2o5WHajlYV1ZRxhgBV0PgLaA3YAfNu3uSf0C3HgB827e5J/QK6YbZenXCAHHEVRH4RUuXZFqKbwOxaim8DsWopvA7FqKbwOxaim8DsWopvA7FqKbwOxaim8DsWopvA7FqKbwOxaim8DsWopvA7FqKbwOxaim8DsWopvA7FqKbwOxaim8DsWopvA7FqKbwOxaim8DsWopvA7FqKbwOxaim8DsWopvA7FqKbwOxaim8DsWopvA7FqKbwOxaim8DsWopvA7E2zMPNNtmrjSKgqjibeu7AD5t29yT+gV2Jc0T6fhJXTuwA+bdvck/oFdiXNE/nTzMpLN/bdeNABP3KHKhP9pyrHJ/u8TcDU5H+++wKh/uyZxUmJyWL/yMmhJ+i9nzsJK6d2AHzbt7kn9ArsS5on80/wDtMD9RtF+s64XILY/msTa/Qoa/w0oCr9CwHYPuvniZcFU+kb523hT7hj1pGxt5PqTUvt5WXfm4SV07sAPm3b3JP6BXYlzRP5rmxiQY+ndHtef9BumGqfS0NQSadBTVwh/DCJ5uqU5rkfdbbVpxr8yDaVzipK1dk2iHsdaRTBfm4SV07sAPm3b9pyjzwj+pMldjfg8QCD5qchsyahlwuINjEqjD4p1PhyHCh/CpTnwIS++pgoiH7qt32knxL9hRVX5vO0xKgXhIt3dwLxbt+y62QF+hJshFRyUmnmDRepWiUY5XJOZafFO1WyQocQ2JlkHmyTrA02p8xra2gfwc6ukV1Wclkd2K41sQ2j/UCisG8wBfEEuAo20hdvwjc0qStObJlgu1972h8wkQURVVV6kTrWC2hNzjpt/+tOQP+IHaRkginaqx/VJGXY8MEHdzeyVq7aTQL/iczlz38/pQ7WO1yVL2fMlgflJptWnmy5iEol3alRVJSB1tPjdYHseRPNfLHIUfbtcnXh2fEPYyn3liX+ilJUPhFOsl6zLtJfmP7KnVxJhrtBnmcO5vbLSTiT0x/kYVCTiLd7Xx1SQVZmS7T/tt/ukCqEiqiovVsh/6OalTQh7CTrEu0Vg0bmgREm5Mi2uMn7V6i+bZanzDpc7isihr+4xZOnNODzH9AJkn7lCbE7PmTKCKJsZYT+kfc6gBIP67n1Wmk+yy0P2WxuZUKlWEF1RLnaYH7Abwldsi+W2osAn9A5+L/kK6fOWmmuYh5iTrEx5iGASlz346bSlnPZE8xMsGiKLjLguCqL2KO3o800wyCKpOOmgCiJ2qWyNlYqHa2uyWD9T9sTxPuryNgnI20HUAD1JdLbKJJubWwNOSbd9iRyIibwaFxsxUTA0QhJFTYqKi9SxLE/Jcpv04eVxn82u0IRUJF2Ki9V1Um5Nz+3LPG0X+4KkWzn1T/EJHPOixbGc4W/bFsZzhb9sWxnOFv2xbGc4W/bFsZzhb9sWxnOFv2xbGc4W/bFsZzhb9sWxnOFv2xbGc4W/bFsZzhb9sWxnOFv2xbGc4W/bFsZzhb9sWxnOFv2xbGc4W/bFsZzhb9sWxnOFv2xbGc4W/bFsZzhb9sWzntnaCiHliszs6XbMvm751W9lySo/ITbH2X5r2BEs2xLMALbTTYoIAIps2Iibzl1kKmX9cldgqRdro8xxLtViV6jlV2O+GcU2ZlHP7L7RNr/8Aro8i/MuqvIDLZOFy/kMU8aVKrzuzpbC8NNpQC1WpDyo/MinwNl2tt73bEwXnE0Qk/dFizVMIu1ZVv2xZal5Vv0iy1LyrfpFlqXlW/SLLUvKt+kWWpeVb9IstS8q36RZal5Vv0iy1LyrfpFlqXlW/SLLUvKt+kWWpeVb9IstS8q36RZal5Vv0iy1LyrfpFlqXlW/SLLUvKt+kWWpeVb9IstS8q36RZal5Vv0iy1LyrfpFmaWhf/K17YYBptOYAFBH9tn+nb//2Q==;" vertex="1" parent="1">
          <mxGeometry x="200" y="290" width="40" height="40" as="geometry" />
        </mxCell>
        <mxCell id="D13HqMTGhr0uNa7FewxC-13" value="SMS" style="endArrow=classic;html=1;rounded=0;exitX=1;exitY=0.25;exitDx=0;exitDy=0;entryX=0;entryY=0.25;entryDx=0;entryDy=0;strokeWidth=2;" edge="1" parent="1" source="D13HqMTGhr0uNa7FewxC-1" target="D13HqMTGhr0uNa7FewxC-4">
          <mxGeometry width="50" height="50" relative="1" as="geometry">
            <mxPoint x="390" y="320" as="sourcePoint" />
            <mxPoint x="440" y="270" as="targetPoint" />
          </mxGeometry>
        </mxCell>
        <mxCell id="D13HqMTGhr0uNa7FewxC-14" value="SMS" style="endArrow=classic;html=1;rounded=0;exitX=1;exitY=0.25;exitDx=0;exitDy=0;entryX=0;entryY=0.25;entryDx=0;entryDy=0;strokeWidth=2;" edge="1" parent="1" source="D13HqMTGhr0uNa7FewxC-4" target="D13HqMTGhr0uNa7FewxC-2">
          <mxGeometry width="50" height="50" relative="1" as="geometry">
            <mxPoint x="170" y="80" as="sourcePoint" />
            <mxPoint x="250" y="160" as="targetPoint" />
          </mxGeometry>
        </mxCell>
        <mxCell id="D13HqMTGhr0uNa7FewxC-15" value="SMS" style="endArrow=classic;html=1;rounded=0;strokeWidth=2;exitX=0.325;exitY=1.05;exitDx=0;exitDy=0;exitPerimeter=0;entryX=0.25;entryY=0;entryDx=0;entryDy=0;" edge="1" parent="1" source="D13HqMTGhr0uNa7FewxC-2" target="D13HqMTGhr0uNa7FewxC-9">
          <mxGeometry width="50" height="50" relative="1" as="geometry">
            <mxPoint x="500" y="120" as="sourcePoint" />
            <mxPoint x="500" y="170" as="targetPoint" />
          </mxGeometry>
        </mxCell>
        <mxCell id="D13HqMTGhr0uNa7FewxC-16" value="SMS" style="endArrow=classic;html=1;rounded=0;exitX=0;exitY=1;exitDx=0;exitDy=0;entryX=0.308;entryY=0;entryDx=0;entryDy=0;strokeWidth=2;entryPerimeter=0;" edge="1" parent="1" source="D13HqMTGhr0uNa7FewxC-2" target="D13HqMTGhr0uNa7FewxC-8">
          <mxGeometry width="50" height="50" relative="1" as="geometry">
            <mxPoint x="370" y="80" as="sourcePoint" />
            <mxPoint x="450" y="80" as="targetPoint" />
          </mxGeometry>
        </mxCell>
        <mxCell id="D13HqMTGhr0uNa7FewxC-17" value="SMS" style="endArrow=classic;html=1;rounded=0;strokeWidth=2;exitX=0.675;exitY=1.017;exitDx=0;exitDy=0;exitPerimeter=0;entryX=0.75;entryY=0;entryDx=0;entryDy=0;" edge="1" parent="1" source="D13HqMTGhr0uNa7FewxC-2" target="D13HqMTGhr0uNa7FewxC-10">
          <mxGeometry width="50" height="50" relative="1" as="geometry">
            <mxPoint x="449" y="113" as="sourcePoint" />
            <mxPoint x="540" y="170" as="targetPoint" />
          </mxGeometry>
        </mxCell>
        <mxCell id="D13HqMTGhr0uNa7FewxC-18" value="SMS" style="endArrow=classic;html=1;rounded=0;exitX=1;exitY=1;exitDx=0;exitDy=0;entryX=0.75;entryY=0;entryDx=0;entryDy=0;strokeWidth=2;" edge="1" parent="1" source="D13HqMTGhr0uNa7FewxC-2" target="D13HqMTGhr0uNa7FewxC-11">
          <mxGeometry width="50" height="50" relative="1" as="geometry">
            <mxPoint x="410" y="110" as="sourcePoint" />
            <mxPoint x="270" y="190" as="targetPoint" />
          </mxGeometry>
        </mxCell>
        <mxCell id="D13HqMTGhr0uNa7FewxC-19" value="" style="shape=image;verticalLabelPosition=bottom;labelBackgroundColor=default;verticalAlign=top;aspect=fixed;imageAspect=0;image=data:image/jpeg,/9j/4AAQSkZJRgABAQAAAQABAAD//gA8Q1JFQVRPUjogZ2QtanBlZyB2MS4wICh1c2luZyBJSkcgSlBFRyB2NjIpLCBxdWFsaXR5ID0gMTAwCv/bAEMABQUFBQUFBQYGBQgIBwgICwoJCQoLEQwNDA0MERoQExAQExAaFxsWFRYbFykgHBwgKS8nJScvOTMzOUdER11dff/CAAsIAoACgAEBIQD/xAAdAAEBAQEBAAMBAQAAAAAAAAAACQcGCAMEBQIB/9oACAEBAAAAAPXYAAAAAAAAAAAAAAAAAAAAAAAAAAAAAAAAAAAAAAAAAAAAAAAAAAAAAAAAAAAAAAAAAAAAAAAAAAAAAAAAAAAAAAAAAAAAAAAAAAAAAAAAAAAAAAAAAAAAAAAAAAAAAAAAAAAAAAAAA/E814px3wAAAPl6vaPS/RgAAAAAAAHn/wAK/ggAAAP1vbXpgAAAAAAADzh4LejvTmi/YAAAfDwPmvzH8Ptj1cAAAAAAAHFS9+t799BgAAAMVnj9emWnAAAAAAADwp5i9e+ywB5s8ifyHqL1cAPKviHfKGAAAAAAAH8yc/FrH+4APIHjf/A9Ue4AB9STf062/eAAAAAAAfgSW0WoYAPpf4P9+6ACbuM1I0AAAAAAABykotVpmAAAACdWGU+0oAAAAAABykotVpmAAAACdWGU+0oAAAAAABykou99sgAAAA8d5bT7SgAAAAAAHKSiAAAAAFP9JAAAAAAAcpKLpd/AAAABhnHU/wBJAAAAAAAcpKLVaZgAAAAnVhlP9JAAAAAAAcpKLVaZgAAAAnVhlP8ASQAAAAAAHKSi1WmYAAAAJ1YZT/SQAAAAAAHKSi1WmYAAAAJ1YZT/AEkAAAAAABykotVpmAAAACdWGU/0kAAAAAABykotVpmAAAACdWGU/wBJAAAAAAAcpKLVaZgAAAAnVhlP9JAAAAAAAcpKLVaZgAAAAnVhlP8ASQAAAAAAHKSi1WmYAAAAJ1YZT/SQAAAAAAHKSi1WmYAAAAJ1YZT/AEkAAAAAABykotVpmAAAACdWGU/0kAAAAAABykotVpmAAAACdWGU/wBJAAAAAAAcpKLVaZgAAAAnVhlP9JAAAAAAAcpKLVaZgAAAAnVhlP8ASQAAAAAAHKSi1WmYAAAAJ1YZT/SQAAAAAAHKSi1WmYAAAAJ1YZT/AEkAAAAAABykotVpmAAAACdWGU/0kAAAAAABykotVpmAAAACdWGU/wBJAAAAAAAcpKLVaZgAAAAnVhlP9JAAAAAAAcpKLVaZgAAAAnVhlP8ASQAAAAAAHKSi1WmYAAAAJ1YZT/SQAAAAAAHKSi1WmYAAAAJ1YZT/AEkAAAAAABykotVpmAAAACdWGU/0kAAAAAABykotVpmAAAACdWGU/wBJAAAAAAAcpKLVaZgAAAAnVhlP9JAAAAAAAcpKLVaZgAAAAnVhlP8ASQAAAAAAHKSi1WmYAAAAJ1YZT/SQAAAAAAHKSi1WmYAAAAJ1YZT/AEkAAAAAABykotVpmAAAACdWGU/0kAAAAAABykotVpmAAAACdWGU/wBJAAAAAAAcpKLVaZgAAAAnVhlP9JAAAAAAAcpKLVaZgAAAAnVhlP8ASQAAAAAAHKSi1WmYAAAAJ1YZT/SQAAAAAAHKSi1WmYAAAAJ1YZT/AEkAAAAAABykou79ngAAAA8iZhT/AEkAAAAAABykogAAAABT/SQAAAAAAHKSi6b0CAAAADCuNp/pIAAAAAADlJRarTMAAAAE6sMp/pIAAAAAADlJRarTMAD6GJfDtv6oAE6sMp/pIAAAAAADlJRarTMAHMTY4V1VJO6ABOrDKf6SAAAAAAA5SUWq0zAB4d8s7P8AoYR6FoGACdWGU/0kAAAAAABzUnNOp0ACcmJU36GU+lU+ABOXEah6KAAAAAAA+GR/9Vq+0AHjvx32X2eE9Re5gA/yUnMVp/aAAAAAAAJ4YN7y9LAB9Cf2Ef5sVC/2wAwqdmsUwAAAAAAAGQTZ/bpZ3wAOP+LtQAcnNHkaE7+AAAAAAAHiPyn+97T9F/cAAAH18B8T8r6M9+AAAAAAAA/jxN5W/j9Pt/mAAAfHxf4/++kvdn2QAAAAAAAGReT8X/MAAAH3ti9VbcAAAAAAAAD+PwPjAAAf3+98oAAAAAAAAAAAAAAAAAAAAAAAAAAAAAAAAAAAAAAAAAAAAAAAAAAAAAAAAAAAAAAAAAAAAAAAAAAAAAAAAAAAAAAAAAAAAAAAAAAAAAAAAAAAAAAAAAAAAAAAAAAAA//EAC0QAAECBAUEAwACAwEBAAAAAAYFBwACAwQIEBg3UAEXNkAVFjAREhMUMZAg/9oACAEBAAEIAP8A06XiNCGLKa+WSjFGlW01SgNK2IJzVOaf/FWdBxLjr/NTuQfx3IP47kH8dyD+O5B/Hcg/juQfx3IP47kH8dyD+O5B/Hcg/juQfx3IP47kH8dyD+O5B/Hcg/juQfx3IP4pOa4VGb+0iU/rnpk0n8jGKW2qzUqJMNlw4XWnS7Q+TdZ80wK610hGICVdKVCooLXtJC0qoF9RUEpqX+syWegilHIvm73URtph5DqVJ6tSepUp056s8klMEw5EZDToXxCgMi26BJJ/S3Q0S0l6SW3xyfHxyfHxyfHxyfHxyfHxyfHxyfHxyfHxyfHxyfHxyfHxyfHxyfHxyfHxyfHxyfHxyfHxyfHxyfHxyfFZFR7mTrJXXWabdfkn/wA5xhpWkmnWvRa4t69nXrW9x0/npDCvFUVv8AkRce4RjagoqpLVdUUr1ZULxRvre3rXdejb27PsrYB1rbLC57Trs+lH9lVvLJSTb1Iv7tPv7e4rWlejcW7SnlM/EbS+qcdiZLZ1ImsRyhGGtvKdxPWM1H8n5dlUC/8ASQkGZzHEnm6zde5bhx3LcOO5bhx3LcOOjluHDDPAtEipMMEX5YkW8p36ZKY2EYeCyceO6CbV42eeWnJPPMWq86+TkCrPa21a9ube1oDKHbDKAkI1t+WJQAWL+9sCpN/5/wDWHACWZyOQsu/yv7G1U7G8sbsgSKyAuKyTXTr2sm39jfUEu9pqSan31PjCy6mshUlu5YaaykUXIDref8/+/wAxMmp003XrN8Wmx8Wmx8Wmx8Wmx0TE7p16denTp06dP46fm/tlJZukQ9ZIaq5nu24DKs3GHng5nkyW6Yf7+IrdBTyZ7bIM4088HM8mS3TD/fxFboKeTPbZBnGnng5nk2S8nDJ2OrKnqLa+NRbXxqLa+NRbXxqLa+NRbXxqLa+NRbXxqLa+NRbXxqLa+NRbXxqLa+NRbXxqLa+NRbXxqLa+NRbXxqLa+NRbXxqLa+NRbXxqLa+NRbXxqLa+NRbXxqLa+NRbXxqLa+NRbXw8JQkGJxfLCPDPbYhnGnng5nwbPbZBnGnng5nkIjlyXEaWg22lcpjSwUxpXKY0rlMaVymNK5TGlgpjSuUxpXKY0rlMaVymNLBTGlcpjSuUxpXKY0rlMaWCmNK5TGlcpjSuUxpXKY0sFMaVymNK5TGlcpjSuUxpYKY0rlMaVymNK5TByHXgIQ10O8hntsgzjTzwczyZLdMP9/EVugp5M9tkGcaeeDmeTJbph/v4it0FPJntsgzjTzwczyZLdMP9/EVugp5M9tkGcaeeDmeTJbph/v4it0FPJntsgzjTzwczyZLdMP8AfxFboKeTPbZBnGnng5nkyW6Yf7+IrdBTyZ7bIM4088HM8mS3TD/fxFboKeTPbZBnGnng5nkyW6Yf7+IrdBTyZ7bIM4088HM8mS3TD/fxFboKeTPbZBnGnng5nkyW6Yf7+IrdBTyZ7bIM4088HM8mS3TD/fxFboKeTPbZBnGnng5nkyW6Yf7+IrdBTyZ7bIM4088HM8mS3TD/AH8RW6Cnkz22QZxp54OZ5MlumH+/iK3QU8me2yDONPPBzPJkt0w/38RW6Cnkz22QZxp54OZ5MlumH+/iK3QU8me2yDONPPBzPJkt0w/38RW6Cnkz22QZxp54OZ5MlumH+/iK3QU8me2yDONPPBzPJkt0w/38RW6Cnkz22QZxp54OZ5MlumH+/iK3QU8me2yDONPPBzPJkt0w/wB/EVugp5M9tkGcaeeDmeTJbph/v4it0FPJntsgzjTzwczyZLdMP9/EVugp5M9tkGcaeeDmeTJbph/v4it0FPJntsgzjTzwczyZLdMP9/EVugp5M9tkGcaeeDmeTJbph/v4it0FPJntsgzjTzwczyZLdMP9/EVugp5M9tkGcaeeDmeTJbph/v4it0FPJntsgzjTzwczyZLdMP8AfxFboKeTPbZBnGnng5nkyW6Yf7+IrdBTyZ7bIM4088HM8mS3TD/fxFboKeTPbZBnGnng5nkyW6Yf7+IrdBTyZ7bIM4088HM8mS3TD/fxFboKeTPbZBnGnng5nkyW6Yf7+IrdBTyZ7bIM4088HM8m1X08WOB9aUtSbaRqTbSNSbaRqTbSNSbaRqTbSNSbaRqTbSNSbaRqTbSNSbaRqTbSNSbaRqTbSNSbaRqTbSNSbaRqTbSNSbaRqTbSNSbaRqTbSNSbaRqTbSNSbaRqTbSNSbaRqTbSNSbaRqTbSHeK0kzNr1ZSYZ7bIM4088HM+DZ7bIM4088HM8hAbuC8jS0G20qk0aVSaNKpNGlUmjSqTRpVJo0qk0aVSaNKpNGlUmjSqTRpVJo0qk0aVSaNKpNGlUmjSqTRpVJo0qk0aVSaNKpNGlUmjSqTRpVJo0qk0aVSaNKpNGlUmjSqTRpVJoOw67BCK4Q7uGe2yDONPPBzPJkt0w/38RW6Cnkz22QZxp54OZ5MlumH/spqqai2dW9UlXEi2ybV60qKbiWbm+qy066Muo5DZSXyR+uIrdBTyZ7bIM4088HM8mS3TD/1MSxLCh++W1I6PyE+Val6q5CZivhapSUkVvDpOcAct1a0/TEVugp5M9tkGcaeeDmeTJbph/64oCatdkSSO04bdliJw7edRkcRhiIETp1ajGG8mrI53KkzfpiK3QU8me2yDONNaU1cNLKMkM1XktnPDZ5/0xCSTyuqQdZoZi+Tb5tBX/QcC/TU4JKLhThn6daq5gb0pfpiFryVnRWpZIaOnNSbQMln4y5oS3NtcUJ1ewqJSqpp9VFU6qMrpinRsb23UrK0vrX88UIfW6zpBbbQKHhWE1qtVCLXIMTfpTkXIwyh9a/Irwor/nNNLJLNNMcLvQmLyJYlp0561SSlINpvRHHkJN47EMLzIB/dX0kYbzumtDkwvd/mqpdgtJ14mqDlsaRBlzcXqXk3bNFB3c0K046PJYqjWKOlfm/h3IJh9dOtoZYXnKXCQ6XXjnrBOpyG3ElpNLNJNNLMNkSoKLVispbeuEiuEiyX1j+is34Qu1Z6ykmNuBo9WWrY9OnSXp06dPzMzRDBkWuqqxqYKpyQXi0pRh9AZxQW6q19x7/tLOmXVwXocDxGtCqnQVEYExIDqxToWhPYqKeqUKdzYetdXdpY0Z690cYiRMekrWyEVmJAaqlRSW4YppqxYpUSBY6dOkvTp06cfVo0q9KpSrOywF2mT3K2HzSzSTdZZoTllWSKvSqm0Hgc23k/pJ3odCO9DoR3odCO9DoR3odCO9DoR3odCO9DoR3odCO9DoR3odCO9DoR3odCO9DoR3odCO9DoR3odCO9DoR3odCO9DoRWeJzq0nWSdUX11bn/uqR/wBhqmFUyepbK5LZ2don2tvaWfJHjLBpz1q3VQow7nyDPUnT1FHVUer/AIVH1rFNUFOt0o2IywDhkE9Oe5BGHDw2eleXHLVKVKtJNJVqiApXm6z1fpYfH0sPj6WHx9LD4+lh8fSw+PpYfH0sPj6WHx9LD4+lh8fSw+PpYfH0sPj6WHx9LD4+lh8fSw+PpYfH0sPiQPEqU3SeShb0Lan0p0P/ADs//8QARxAAAQIDBQMKAggBCwUBAAAAAgEDAAQFBhBUlLMRUJIhMUBBUVWTstHSEjATIjJCU2FxgRQVJDNEUmJjcpCRoSAjQ3N0ov/aAAgBAQAJPwD/AFOqoxJsdROlsUtnUKc5LFDcm1xM2v0TfAMVhqRBfuSrAD50JYtnVcyQxbGrZo4tjVs0cWxq2aOLY1bNHFsatmji2NWzRxbGrZo4tjVs0cWxq2aOLY1bNHFsatmji2NWzRxbGrZo4tjVs0cWxq2aOLY1bNHFsatmji2NWzRxbGrZo4tjVs0cWzq2ZNYr6TgJ9yaZA/QooCs9szI/XTwzirMTbafbEC+uG3qMV2KO9Ebnq3zH1syv+ftOKk7NzJ/eNeQU7AFOQU6XUHpSaaXaDrRfCv79qQrUpVC2AzN/YZmPYe8n0/lmYb2vPYRv3rBkZkqqREu1VVetVWAUzJUQRFNqqq9SQ+tIkj5UZ+BDmT9kWdanHk53p3a+vCX1Yo8kyPULbAAn/CJEhL+GMSEv4YxIS/hjEhL+GMSEv4YxIS/hjEhL+GMSEv4YxIS/hjEhL+GMSEv4YxIS/hjEhL+GMSEv4YxIS/hjEhL+GMSEv4YxIS/hjEhL+GMSEv4YxSZN0OsTYAk/5RYszLS7hczsmn8MSeHE6tTYHlWTdRAmB98MG080Sg42YqJCSc6Ki3TSlOCGynzbhcryfgn2nvDYTrYoEs1+I8fIIw+T01Muk664XKpEUNE686aA22CbSIi5ERIYbma84KEglsMJP8g7T7S6W23K15odrMxzI/8A3HoljYmpZwm3mj5CEhh0m3mjQ2zBdhCQ8qKiwYpUZbYxPAn4o/f/AEPd7v8ANqWyjjydr73tG5jaLREzTR873y3EaqM0yrz0zzqy1zCgRbitZ11ItxW8876xbit5531i3FbzzvrFuK3nnfWLb1rOu+sTKTT5Mk5JTa8jhfR8pAfy2Nk1JoLc+n4jHU5+oXObJOsiksaf43O1u5dgiiqv7csFtWcn33k/ISNVFP2SAU3n3BbbHtI12IkIn0UlLNtIvaqfaL91+XKOTLDcskvOA2KkbSByi5/1yjkvISjLoSxOCoq+48Kh9T5baOS8yybToL1iabFjlckpp1gl7foy2bYJReln23m17CbJCSOUJqWafD9HBQt2rsJilzjqL+YNEtybR/lAHPC2ufNkJdVVedWhiny3hDFPlvCGKfLeEMU+W8IYp8si7fwhjkT5nM+Mu9xNDd3YyHB9Xdvck/oFdiXNE+n4SV07sAPm3b3JP6BXYlzRPp+EldO7AD5t29yT+gVzhBJyjxm6QipKiK2QxU5vKnFTm8qcVObypxU5vKnFTm8qcVObypxU5vKnFTm8qcVObypxU5vKnFTm8qcVObypxU5vKnFTm8qcVObypxU5vKnFTm8qcVObypxU5vKnFTm8qcVObypxU5vKnFTm8qcVObypxU5vKnFTm8qcVObypxU5vKnFTm8qcVObypw6bkm4wwAkYKC7QG7AD5t29yT+gW48APm3b3JP6BXPtsvTrhADjm1RH4RUuXZFpKbwuRaSm8LkWkpvC5FpKbwuRaSm8LkWkpvC5FpKbwuRaSm8LkWkpvC5FpKbwuRaSm8LkWkpvC5FpKbwuRaSm8LkWkpvC5FpKbwuRaSm8LkWkpvC5FpKbwuRaSm8LkWkpvC5FpKbwuRaSm8LkWkpvC5FpKbwuRaSm8LkWkpvC5FpKbwuRaSm8LkWkpvC5E2zMPNNtmrjW1B2OJt67sAPm3b3JP6BXYlzRPp+EldO7AD5t29yT+gV2Jc0T6fhJXTuwA+bdvck/oFdiXNE+n4SV07sAPm3b3JP6BXYlzRPp+EldO7AD5t29yT+gV2Jc0T6fhJXTuwA+bdvck/oFdiXNE+n4SV07sAPm3b3JP6BXYlzRPp+EldO7AD5t29yT+gV2Jc0T6fhJXTuwA+bdvck/oFdiXNE+n4SV07sAPm3b3JP6BXYlzRPp+EldO7AD5t29yT+gV2Jc0T6fhJXTuwA+bdvck/oFdiXNE+n4SV07sAPm3b3JP6BXYlzRPp+EldO7AD5t29yT+gV2Jc0T6fhJXTuwA+bdvck/oFdiXNE+n4SV07sAPm3b3JP6BXYlzRPp+EldO7AD5t29yT+gV2Jc0T6fhJXTuwA+bdvck/oFdiXNE+n4SV07sAPm3b3JP6BXYlzRPp+EldO7AD5t29yT+gV2Jc0T6fhJXTuwA+bdvck/oFdiXNE+n4SV07sAPm3b3JP6BXYlzRPp+EldO7AD5t29yT+gV2Jc0T6fhJXTuwA+bdvck/oFdiXNE+n4SV07sAPm3b3JP6BXYlzRPp+EldO7AD5t29yT+gV2Jc0T6fhJXTuwA+bdvck/oFdiXNE+n4SV07sAPm3b3JP6BXYlzRPp+EldO7AD5t29yT+gV2Jc0T6fhJXTuwA+bdvck/oFdiXNE+n4SV07sAPm3b3JP6BXYlzRPp+EldO7AD5t29yT+gV2Jc0T6fhJXTuwA+bdvck/oFdiXNE+n4SV07sAPm3b3JP6BXYlzRPp+EldO7AD5t29yT+gVymkpKPGbqtj8RbCbIYdqOVh2o5WHajlYdqOVh2o5WHajlYdqOVh2o5WHajlYdqOVh2o5WHajlYdqOVh2o5WHajlYdqOVh2o5WHajlYdqOVh2o5WHajlYdqOVh2o5WHajlYdqOVh2o5WHajlYdqOVh2o5WHajlYV1ZRxhgBV0PgLaA3YAfNu3uSf0C3HgB827e5J/QK6YbZenXCAHHEVRH4RUuXZFqKbwOxaim8DsWopvA7FqKbwOxaim8DsWopvA7FqKbwOxaim8DsWopvA7FqKbwOxaim8DsWopvA7FqKbwOxaim8DsWopvA7FqKbwOxaim8DsWopvA7FqKbwOxaim8DsWopvA7FqKbwOxaim8DsWopvA7FqKbwOxaim8DsWopvA7FqKbwOxaim8DsWopvA7E2zMPNNtmrjSKgqjibeu7AD5t29yT+gV2Jc0T6fhJXTuwA+bdvck/oFdiXNE/nTzMpLN/bdeNABP3KHKhP9pyrHJ/u8TcDU5H+++wKh/uyZxUmJyWL/yMmhJ+i9nzsJK6d2AHzbt7kn9ArsS5on80/wDtMD9RtF+s64XILY/msTa/Qoa/w0oCr9CwHYPuvniZcFU+kb523hT7hj1pGxt5PqTUvt5WXfm4SV07sAPm3b3JP6BXYlzRP5rmxiQY+ndHtef9BumGqfS0NQSadBTVwh/DCJ5uqU5rkfdbbVpxr8yDaVzipK1dk2iHsdaRTBfm4SV07sAPm3b9pyjzwj+pMldjfg8QCD5qchsyahlwuINjEqjD4p1PhyHCh/CpTnwIS++pgoiH7qt32knxL9hRVX5vO0xKgXhIt3dwLxbt+y62QF+hJshFRyUmnmDRepWiUY5XJOZafFO1WyQocQ2JlkHmyTrA02p8xra2gfwc6ukV1Wclkd2K41sQ2j/UCisG8wBfEEuAo20hdvwjc0qStObJlgu1972h8wkQURVVV6kTrWC2hNzjpt/+tOQP+IHaRkginaqx/VJGXY8MEHdzeyVq7aTQL/iczlz38/pQ7WO1yVL2fMlgflJptWnmy5iEol3alRVJSB1tPjdYHseRPNfLHIUfbtcnXh2fEPYyn3liX+ilJUPhFOsl6zLtJfmP7KnVxJhrtBnmcO5vbLSTiT0x/kYVCTiLd7Xx1SQVZmS7T/tt/ukCqEiqiovVsh/6OalTQh7CTrEu0Vg0bmgREm5Mi2uMn7V6i+bZanzDpc7isihr+4xZOnNODzH9AJkn7lCbE7PmTKCKJsZYT+kfc6gBIP67n1Wmk+yy0P2WxuZUKlWEF1RLnaYH7Abwldsi+W2osAn9A5+L/kK6fOWmmuYh5iTrEx5iGASlz346bSlnPZE8xMsGiKLjLguCqL2KO3o800wyCKpOOmgCiJ2qWyNlYqHa2uyWD9T9sTxPuryNgnI20HUAD1JdLbKJJubWwNOSbd9iRyIibwaFxsxUTA0QhJFTYqKi9SxLE/Jcpv04eVxn82u0IRUJF2Ki9V1Um5Nz+3LPG0X+4KkWzn1T/EJHPOixbGc4W/bFsZzhb9sWxnOFv2xbGc4W/bFsZzhb9sWxnOFv2xbGc4W/bFsZzhb9sWxnOFv2xbGc4W/bFsZzhb9sWxnOFv2xbGc4W/bFsZzhb9sWxnOFv2xbGc4W/bFsZzhb9sWxnOFv2xbGc4W/bFsZzhb9sWzntnaCiHliszs6XbMvm751W9lySo/ITbH2X5r2BEs2xLMALbTTYoIAIps2Iibzl1kKmX9cldgqRdro8xxLtViV6jlV2O+GcU2ZlHP7L7RNr/8Aro8i/MuqvIDLZOFy/kMU8aVKrzuzpbC8NNpQC1WpDyo/MinwNl2tt73bEwXnE0Qk/dFizVMIu1ZVv2xZal5Vv0iy1LyrfpFlqXlW/SLLUvKt+kWWpeVb9IstS8q36RZal5Vv0iy1LyrfpFlqXlW/SLLUvKt+kWWpeVb9IstS8q36RZal5Vv0iy1LyrfpFlqXlW/SLLUvKt+kWWpeVb9IstS8q36RZal5Vv0iy1LyrfpFmaWhf/K17YYBptOYAFBH9tn+nb//2Q==;" vertex="1" parent="1">
          <mxGeometry x="420" y="290" width="40" height="40" as="geometry" />
        </mxCell>
        <mxCell id="D13HqMTGhr0uNa7FewxC-20" value="" style="shape=image;verticalLabelPosition=bottom;labelBackgroundColor=default;verticalAlign=top;aspect=fixed;imageAspect=0;image=data:image/jpeg,/9j/4AAQSkZJRgABAQAAAQABAAD//gA8Q1JFQVRPUjogZ2QtanBlZyB2MS4wICh1c2luZyBJSkcgSlBFRyB2NjIpLCBxdWFsaXR5ID0gMTAwCv/bAEMABQUFBQUFBQYGBQgIBwgICwoJCQoLEQwNDA0MERoQExAQExAaFxsWFRYbFykgHBwgKS8nJScvOTMzOUdER11dff/CAAsIAoACgAEBIQD/xAAdAAEBAQEBAAMBAQAAAAAAAAAACQcGCAMEBQIB/9oACAEBAAAAAPXYAAAAAAAAAAAAAAAAAAAAAAAAAAAAAAAAAAAAAAAAAAAAAAAAAAAAAAAAAAAAAAAAAAAAAAAAAAAAAAAAAAAAAAAAAAAAAAAAAAAAAAAAAAAAAAAAAAAAAAAAAAAAAAAAAAAAAAAAA/E814px3wAAAPl6vaPS/RgAAAAAAAHn/wAK/ggAAAP1vbXpgAAAAAAADzh4LejvTmi/YAAAfDwPmvzH8Ptj1cAAAAAAAHFS9+t799BgAAAMVnj9emWnAAAAAAADwp5i9e+ywB5s8ifyHqL1cAPKviHfKGAAAAAAAH8yc/FrH+4APIHjf/A9Ue4AB9STf062/eAAAAAAAfgSW0WoYAPpf4P9+6ACbuM1I0AAAAAAABykotVpmAAAACdWGU+0oAAAAAABykotVpmAAAACdWGU+0oAAAAAABykou99sgAAAA8d5bT7SgAAAAAAHKSiAAAAAFP9JAAAAAAAcpKLpd/AAAABhnHU/wBJAAAAAAAcpKLVaZgAAAAnVhlP9JAAAAAAAcpKLVaZgAAAAnVhlP8ASQAAAAAAHKSi1WmYAAAAJ1YZT/SQAAAAAAHKSi1WmYAAAAJ1YZT/AEkAAAAAABykotVpmAAAACdWGU/0kAAAAAABykotVpmAAAACdWGU/wBJAAAAAAAcpKLVaZgAAAAnVhlP9JAAAAAAAcpKLVaZgAAAAnVhlP8ASQAAAAAAHKSi1WmYAAAAJ1YZT/SQAAAAAAHKSi1WmYAAAAJ1YZT/AEkAAAAAABykotVpmAAAACdWGU/0kAAAAAABykotVpmAAAACdWGU/wBJAAAAAAAcpKLVaZgAAAAnVhlP9JAAAAAAAcpKLVaZgAAAAnVhlP8ASQAAAAAAHKSi1WmYAAAAJ1YZT/SQAAAAAAHKSi1WmYAAAAJ1YZT/AEkAAAAAABykotVpmAAAACdWGU/0kAAAAAABykotVpmAAAACdWGU/wBJAAAAAAAcpKLVaZgAAAAnVhlP9JAAAAAAAcpKLVaZgAAAAnVhlP8ASQAAAAAAHKSi1WmYAAAAJ1YZT/SQAAAAAAHKSi1WmYAAAAJ1YZT/AEkAAAAAABykotVpmAAAACdWGU/0kAAAAAABykotVpmAAAACdWGU/wBJAAAAAAAcpKLVaZgAAAAnVhlP9JAAAAAAAcpKLVaZgAAAAnVhlP8ASQAAAAAAHKSi1WmYAAAAJ1YZT/SQAAAAAAHKSi1WmYAAAAJ1YZT/AEkAAAAAABykotVpmAAAACdWGU/0kAAAAAABykotVpmAAAACdWGU/wBJAAAAAAAcpKLVaZgAAAAnVhlP9JAAAAAAAcpKLVaZgAAAAnVhlP8ASQAAAAAAHKSi1WmYAAAAJ1YZT/SQAAAAAAHKSi1WmYAAAAJ1YZT/AEkAAAAAABykou79ngAAAA8iZhT/AEkAAAAAABykogAAAABT/SQAAAAAAHKSi6b0CAAAADCuNp/pIAAAAAADlJRarTMAAAAE6sMp/pIAAAAAADlJRarTMAD6GJfDtv6oAE6sMp/pIAAAAAADlJRarTMAHMTY4V1VJO6ABOrDKf6SAAAAAAA5SUWq0zAB4d8s7P8AoYR6FoGACdWGU/0kAAAAAABzUnNOp0ACcmJU36GU+lU+ABOXEah6KAAAAAAA+GR/9Vq+0AHjvx32X2eE9Re5gA/yUnMVp/aAAAAAAAJ4YN7y9LAB9Cf2Ef5sVC/2wAwqdmsUwAAAAAAAGQTZ/bpZ3wAOP+LtQAcnNHkaE7+AAAAAAAHiPyn+97T9F/cAAAH18B8T8r6M9+AAAAAAAA/jxN5W/j9Pt/mAAAfHxf4/++kvdn2QAAAAAAAGReT8X/MAAAH3ti9VbcAAAAAAAAD+PwPjAAAf3+98oAAAAAAAAAAAAAAAAAAAAAAAAAAAAAAAAAAAAAAAAAAAAAAAAAAAAAAAAAAAAAAAAAAAAAAAAAAAAAAAAAAAAAAAAAAAAAAAAAAAAAAAAAAAAAAAAAAAAAAAAAAAA//EAC0QAAECBAUEAwACAwEBAAAAAAYFBwACAwQIEBg3UAEXNkAVFjAREhMUMZAg/9oACAEBAAEIAP8A06XiNCGLKa+WSjFGlW01SgNK2IJzVOaf/FWdBxLjr/NTuQfx3IP47kH8dyD+O5B/Hcg/juQfx3IP47kH8dyD+O5B/Hcg/juQfx3IP47kH8dyD+O5B/Hcg/juQfx3IP4pOa4VGb+0iU/rnpk0n8jGKW2qzUqJMNlw4XWnS7Q+TdZ80wK610hGICVdKVCooLXtJC0qoF9RUEpqX+syWegilHIvm73URtph5DqVJ6tSepUp056s8klMEw5EZDToXxCgMi26BJJ/S3Q0S0l6SW3xyfHxyfHxyfHxyfHxyfHxyfHxyfHxyfHxyfHxyfHxyfHxyfHxyfHxyfHxyfHxyfHxyfHxyfHxyfHxyfFZFR7mTrJXXWabdfkn/wA5xhpWkmnWvRa4t69nXrW9x0/npDCvFUVv8AkRce4RjagoqpLVdUUr1ZULxRvre3rXdejb27PsrYB1rbLC57Trs+lH9lVvLJSTb1Iv7tPv7e4rWlejcW7SnlM/EbS+qcdiZLZ1ImsRyhGGtvKdxPWM1H8n5dlUC/8ASQkGZzHEnm6zde5bhx3LcOO5bhx3LcOOjluHDDPAtEipMMEX5YkW8p36ZKY2EYeCyceO6CbV42eeWnJPPMWq86+TkCrPa21a9ube1oDKHbDKAkI1t+WJQAWL+9sCpN/5/wDWHACWZyOQsu/yv7G1U7G8sbsgSKyAuKyTXTr2sm39jfUEu9pqSan31PjCy6mshUlu5YaaykUXIDref8/+/wAxMmp003XrN8Wmx8Wmx8Wmx8Wmx0TE7p16denTp06dP46fm/tlJZukQ9ZIaq5nu24DKs3GHng5nkyW6Yf7+IrdBTyZ7bIM4088HM8mS3TD/fxFboKeTPbZBnGnng5nk2S8nDJ2OrKnqLa+NRbXxqLa+NRbXxqLa+NRbXxqLa+NRbXxqLa+NRbXxqLa+NRbXxqLa+NRbXxqLa+NRbXxqLa+NRbXxqLa+NRbXxqLa+NRbXxqLa+NRbXxqLa+NRbXxqLa+NRbXxqLa+NRbXw8JQkGJxfLCPDPbYhnGnng5nwbPbZBnGnng5nkIjlyXEaWg22lcpjSwUxpXKY0rlMaVymNK5TGlgpjSuUxpXKY0rlMaVymNLBTGlcpjSuUxpXKY0rlMaWCmNK5TGlcpjSuUxpXKY0sFMaVymNK5TGlcpjSuUxpYKY0rlMaVymNK5TByHXgIQ10O8hntsgzjTzwczyZLdMP9/EVugp5M9tkGcaeeDmeTJbph/v4it0FPJntsgzjTzwczyZLdMP9/EVugp5M9tkGcaeeDmeTJbph/v4it0FPJntsgzjTzwczyZLdMP8AfxFboKeTPbZBnGnng5nkyW6Yf7+IrdBTyZ7bIM4088HM8mS3TD/fxFboKeTPbZBnGnng5nkyW6Yf7+IrdBTyZ7bIM4088HM8mS3TD/fxFboKeTPbZBnGnng5nkyW6Yf7+IrdBTyZ7bIM4088HM8mS3TD/fxFboKeTPbZBnGnng5nkyW6Yf7+IrdBTyZ7bIM4088HM8mS3TD/AH8RW6Cnkz22QZxp54OZ5MlumH+/iK3QU8me2yDONPPBzPJkt0w/38RW6Cnkz22QZxp54OZ5MlumH+/iK3QU8me2yDONPPBzPJkt0w/38RW6Cnkz22QZxp54OZ5MlumH+/iK3QU8me2yDONPPBzPJkt0w/38RW6Cnkz22QZxp54OZ5MlumH+/iK3QU8me2yDONPPBzPJkt0w/wB/EVugp5M9tkGcaeeDmeTJbph/v4it0FPJntsgzjTzwczyZLdMP9/EVugp5M9tkGcaeeDmeTJbph/v4it0FPJntsgzjTzwczyZLdMP9/EVugp5M9tkGcaeeDmeTJbph/v4it0FPJntsgzjTzwczyZLdMP9/EVugp5M9tkGcaeeDmeTJbph/v4it0FPJntsgzjTzwczyZLdMP8AfxFboKeTPbZBnGnng5nkyW6Yf7+IrdBTyZ7bIM4088HM8mS3TD/fxFboKeTPbZBnGnng5nkyW6Yf7+IrdBTyZ7bIM4088HM8mS3TD/fxFboKeTPbZBnGnng5nkyW6Yf7+IrdBTyZ7bIM4088HM8m1X08WOB9aUtSbaRqTbSNSbaRqTbSNSbaRqTbSNSbaRqTbSNSbaRqTbSNSbaRqTbSNSbaRqTbSNSbaRqTbSNSbaRqTbSNSbaRqTbSNSbaRqTbSNSbaRqTbSNSbaRqTbSNSbaRqTbSNSbaRqTbSHeK0kzNr1ZSYZ7bIM4088HM+DZ7bIM4088HM8hAbuC8jS0G20qk0aVSaNKpNGlUmjSqTRpVJo0qk0aVSaNKpNGlUmjSqTRpVJo0qk0aVSaNKpNGlUmjSqTRpVJo0qk0aVSaNKpNGlUmjSqTRpVJo0qk0aVSaNKpNGlUmjSqTRpVJoOw67BCK4Q7uGe2yDONPPBzPJkt0w/38RW6Cnkz22QZxp54OZ5MlumH/spqqai2dW9UlXEi2ybV60qKbiWbm+qy066Muo5DZSXyR+uIrdBTyZ7bIM4088HM8mS3TD/1MSxLCh++W1I6PyE+Val6q5CZivhapSUkVvDpOcAct1a0/TEVugp5M9tkGcaeeDmeTJbph/64oCatdkSSO04bdliJw7edRkcRhiIETp1ajGG8mrI53KkzfpiK3QU8me2yDONNaU1cNLKMkM1XktnPDZ5/0xCSTyuqQdZoZi+Tb5tBX/QcC/TU4JKLhThn6daq5gb0pfpiFryVnRWpZIaOnNSbQMln4y5oS3NtcUJ1ewqJSqpp9VFU6qMrpinRsb23UrK0vrX88UIfW6zpBbbQKHhWE1qtVCLXIMTfpTkXIwyh9a/Irwor/nNNLJLNNMcLvQmLyJYlp0561SSlINpvRHHkJN47EMLzIB/dX0kYbzumtDkwvd/mqpdgtJ14mqDlsaRBlzcXqXk3bNFB3c0K046PJYqjWKOlfm/h3IJh9dOtoZYXnKXCQ6XXjnrBOpyG3ElpNLNJNNLMNkSoKLVispbeuEiuEiyX1j+is34Qu1Z6ykmNuBo9WWrY9OnSXp06dPzMzRDBkWuqqxqYKpyQXi0pRh9AZxQW6q19x7/tLOmXVwXocDxGtCqnQVEYExIDqxToWhPYqKeqUKdzYetdXdpY0Z690cYiRMekrWyEVmJAaqlRSW4YppqxYpUSBY6dOkvTp06cfVo0q9KpSrOywF2mT3K2HzSzSTdZZoTllWSKvSqm0Hgc23k/pJ3odCO9DoR3odCO9DoR3odCO9DoR3odCO9DoR3odCO9DoR3odCO9DoR3odCO9DoR3odCO9DoR3odCO9DoR3odCO9DoRWeJzq0nWSdUX11bn/uqR/wBhqmFUyepbK5LZ2don2tvaWfJHjLBpz1q3VQow7nyDPUnT1FHVUer/AIVH1rFNUFOt0o2IywDhkE9Oe5BGHDw2eleXHLVKVKtJNJVqiApXm6z1fpYfH0sPj6WHx9LD4+lh8fSw+PpYfH0sPj6WHx9LD4+lh8fSw+PpYfH0sPj6WHx9LD4+lh8fSw+PpYfH0sPiQPEqU3SeShb0Lan0p0P/ADs//8QARxAAAQIDBQMKAggBCwUBAAAAAgEDAAQFBhBUlLMRUJIhMUBBUVWTstHSEjATIjJCU2FxgRQVJDNEUmJjcpCRoSAjQ3N0ov/aAAgBAQAJPwD/AFOqoxJsdROlsUtnUKc5LFDcm1xM2v0TfAMVhqRBfuSrAD50JYtnVcyQxbGrZo4tjVs0cWxq2aOLY1bNHFsatmji2NWzRxbGrZo4tjVs0cWxq2aOLY1bNHFsatmji2NWzRxbGrZo4tjVs0cWxq2aOLY1bNHFsatmji2NWzRxbGrZo4tjVs0cWzq2ZNYr6TgJ9yaZA/QooCs9szI/XTwzirMTbafbEC+uG3qMV2KO9Ebnq3zH1syv+ftOKk7NzJ/eNeQU7AFOQU6XUHpSaaXaDrRfCv79qQrUpVC2AzN/YZmPYe8n0/lmYb2vPYRv3rBkZkqqREu1VVetVWAUzJUQRFNqqq9SQ+tIkj5UZ+BDmT9kWdanHk53p3a+vCX1Yo8kyPULbAAn/CJEhL+GMSEv4YxIS/hjEhL+GMSEv4YxIS/hjEhL+GMSEv4YxIS/hjEhL+GMSEv4YxIS/hjEhL+GMSEv4YxIS/hjEhL+GMSEv4YxIS/hjEhL+GMSEv4YxSZN0OsTYAk/5RYszLS7hczsmn8MSeHE6tTYHlWTdRAmB98MG080Sg42YqJCSc6Ki3TSlOCGynzbhcryfgn2nvDYTrYoEs1+I8fIIw+T01Muk664XKpEUNE686aA22CbSIi5ERIYbma84KEglsMJP8g7T7S6W23K15odrMxzI/8A3HoljYmpZwm3mj5CEhh0m3mjQ2zBdhCQ8qKiwYpUZbYxPAn4o/f/AEPd7v8ANqWyjjydr73tG5jaLREzTR873y3EaqM0yrz0zzqy1zCgRbitZ11ItxW8876xbit5531i3FbzzvrFuK3nnfWLb1rOu+sTKTT5Mk5JTa8jhfR8pAfy2Nk1JoLc+n4jHU5+oXObJOsiksaf43O1u5dgiiqv7csFtWcn33k/ISNVFP2SAU3n3BbbHtI12IkIn0UlLNtIvaqfaL91+XKOTLDcskvOA2KkbSByi5/1yjkvISjLoSxOCoq+48Kh9T5baOS8yybToL1iabFjlckpp1gl7foy2bYJReln23m17CbJCSOUJqWafD9HBQt2rsJilzjqL+YNEtybR/lAHPC2ufNkJdVVedWhiny3hDFPlvCGKfLeEMU+W8IYp8si7fwhjkT5nM+Mu9xNDd3YyHB9Xdvck/oFdiXNE+n4SV07sAPm3b3JP6BXYlzRPp+EldO7AD5t29yT+gVzhBJyjxm6QipKiK2QxU5vKnFTm8qcVObypxU5vKnFTm8qcVObypxU5vKnFTm8qcVObypxU5vKnFTm8qcVObypxU5vKnFTm8qcVObypxU5vKnFTm8qcVObypxU5vKnFTm8qcVObypxU5vKnFTm8qcVObypxU5vKnFTm8qcVObypxU5vKnFTm8qcVObypw6bkm4wwAkYKC7QG7AD5t29yT+gW48APm3b3JP6BXPtsvTrhADjm1RH4RUuXZFpKbwuRaSm8LkWkpvC5FpKbwuRaSm8LkWkpvC5FpKbwuRaSm8LkWkpvC5FpKbwuRaSm8LkWkpvC5FpKbwuRaSm8LkWkpvC5FpKbwuRaSm8LkWkpvC5FpKbwuRaSm8LkWkpvC5FpKbwuRaSm8LkWkpvC5FpKbwuRaSm8LkWkpvC5FpKbwuRaSm8LkWkpvC5E2zMPNNtmrjW1B2OJt67sAPm3b3JP6BXYlzRPp+EldO7AD5t29yT+gV2Jc0T6fhJXTuwA+bdvck/oFdiXNE+n4SV07sAPm3b3JP6BXYlzRPp+EldO7AD5t29yT+gV2Jc0T6fhJXTuwA+bdvck/oFdiXNE+n4SV07sAPm3b3JP6BXYlzRPp+EldO7AD5t29yT+gV2Jc0T6fhJXTuwA+bdvck/oFdiXNE+n4SV07sAPm3b3JP6BXYlzRPp+EldO7AD5t29yT+gV2Jc0T6fhJXTuwA+bdvck/oFdiXNE+n4SV07sAPm3b3JP6BXYlzRPp+EldO7AD5t29yT+gV2Jc0T6fhJXTuwA+bdvck/oFdiXNE+n4SV07sAPm3b3JP6BXYlzRPp+EldO7AD5t29yT+gV2Jc0T6fhJXTuwA+bdvck/oFdiXNE+n4SV07sAPm3b3JP6BXYlzRPp+EldO7AD5t29yT+gV2Jc0T6fhJXTuwA+bdvck/oFdiXNE+n4SV07sAPm3b3JP6BXYlzRPp+EldO7AD5t29yT+gV2Jc0T6fhJXTuwA+bdvck/oFdiXNE+n4SV07sAPm3b3JP6BXYlzRPp+EldO7AD5t29yT+gV2Jc0T6fhJXTuwA+bdvck/oFdiXNE+n4SV07sAPm3b3JP6BXYlzRPp+EldO7AD5t29yT+gV2Jc0T6fhJXTuwA+bdvck/oFdiXNE+n4SV07sAPm3b3JP6BXYlzRPp+EldO7AD5t29yT+gV2Jc0T6fhJXTuwA+bdvck/oFdiXNE+n4SV07sAPm3b3JP6BXYlzRPp+EldO7AD5t29yT+gVymkpKPGbqtj8RbCbIYdqOVh2o5WHajlYdqOVh2o5WHajlYdqOVh2o5WHajlYdqOVh2o5WHajlYdqOVh2o5WHajlYdqOVh2o5WHajlYdqOVh2o5WHajlYdqOVh2o5WHajlYdqOVh2o5WHajlYdqOVh2o5WHajlYV1ZRxhgBV0PgLaA3YAfNu3uSf0C3HgB827e5J/QK6YbZenXCAHHEVRH4RUuXZFqKbwOxaim8DsWopvA7FqKbwOxaim8DsWopvA7FqKbwOxaim8DsWopvA7FqKbwOxaim8DsWopvA7FqKbwOxaim8DsWopvA7FqKbwOxaim8DsWopvA7FqKbwOxaim8DsWopvA7FqKbwOxaim8DsWopvA7FqKbwOxaim8DsWopvA7FqKbwOxaim8DsWopvA7E2zMPNNtmrjSKgqjibeu7AD5t29yT+gV2Jc0T6fhJXTuwA+bdvck/oFdiXNE/nTzMpLN/bdeNABP3KHKhP9pyrHJ/u8TcDU5H+++wKh/uyZxUmJyWL/yMmhJ+i9nzsJK6d2AHzbt7kn9ArsS5on80/wDtMD9RtF+s64XILY/msTa/Qoa/w0oCr9CwHYPuvniZcFU+kb523hT7hj1pGxt5PqTUvt5WXfm4SV07sAPm3b3JP6BXYlzRP5rmxiQY+ndHtef9BumGqfS0NQSadBTVwh/DCJ5uqU5rkfdbbVpxr8yDaVzipK1dk2iHsdaRTBfm4SV07sAPm3b9pyjzwj+pMldjfg8QCD5qchsyahlwuINjEqjD4p1PhyHCh/CpTnwIS++pgoiH7qt32knxL9hRVX5vO0xKgXhIt3dwLxbt+y62QF+hJshFRyUmnmDRepWiUY5XJOZafFO1WyQocQ2JlkHmyTrA02p8xra2gfwc6ukV1Wclkd2K41sQ2j/UCisG8wBfEEuAo20hdvwjc0qStObJlgu1972h8wkQURVVV6kTrWC2hNzjpt/+tOQP+IHaRkginaqx/VJGXY8MEHdzeyVq7aTQL/iczlz38/pQ7WO1yVL2fMlgflJptWnmy5iEol3alRVJSB1tPjdYHseRPNfLHIUfbtcnXh2fEPYyn3liX+ilJUPhFOsl6zLtJfmP7KnVxJhrtBnmcO5vbLSTiT0x/kYVCTiLd7Xx1SQVZmS7T/tt/ukCqEiqiovVsh/6OalTQh7CTrEu0Vg0bmgREm5Mi2uMn7V6i+bZanzDpc7isihr+4xZOnNODzH9AJkn7lCbE7PmTKCKJsZYT+kfc6gBIP67n1Wmk+yy0P2WxuZUKlWEF1RLnaYH7Abwldsi+W2osAn9A5+L/kK6fOWmmuYh5iTrEx5iGASlz346bSlnPZE8xMsGiKLjLguCqL2KO3o800wyCKpOOmgCiJ2qWyNlYqHa2uyWD9T9sTxPuryNgnI20HUAD1JdLbKJJubWwNOSbd9iRyIibwaFxsxUTA0QhJFTYqKi9SxLE/Jcpv04eVxn82u0IRUJF2Ki9V1Um5Nz+3LPG0X+4KkWzn1T/EJHPOixbGc4W/bFsZzhb9sWxnOFv2xbGc4W/bFsZzhb9sWxnOFv2xbGc4W/bFsZzhb9sWxnOFv2xbGc4W/bFsZzhb9sWxnOFv2xbGc4W/bFsZzhb9sWxnOFv2xbGc4W/bFsZzhb9sWxnOFv2xbGc4W/bFsZzhb9sWzntnaCiHliszs6XbMvm751W9lySo/ITbH2X5r2BEs2xLMALbTTYoIAIps2Iibzl1kKmX9cldgqRdro8xxLtViV6jlV2O+GcU2ZlHP7L7RNr/8Aro8i/MuqvIDLZOFy/kMU8aVKrzuzpbC8NNpQC1WpDyo/MinwNl2tt73bEwXnE0Qk/dFizVMIu1ZVv2xZal5Vv0iy1LyrfpFlqXlW/SLLUvKt+kWWpeVb9IstS8q36RZal5Vv0iy1LyrfpFlqXlW/SLLUvKt+kWWpeVb9IstS8q36RZal5Vv0iy1LyrfpFlqXlW/SLLUvKt+kWWpeVb9IstS8q36RZal5Vv0iy1LyrfpFmaWhf/K17YYBptOYAFBH9tn+nb//2Q==;" vertex="1" parent="1">
          <mxGeometry x="280" y="290" width="40" height="40" as="geometry" />
        </mxCell>
        <mxCell id="D13HqMTGhr0uNa7FewxC-21" value="" style="shape=image;verticalLabelPosition=bottom;labelBackgroundColor=default;verticalAlign=top;aspect=fixed;imageAspect=0;image=data:image/jpeg,/9j/4AAQSkZJRgABAQAAAQABAAD//gA8Q1JFQVRPUjogZ2QtanBlZyB2MS4wICh1c2luZyBJSkcgSlBFRyB2NjIpLCBxdWFsaXR5ID0gMTAwCv/bAEMABQUFBQUFBQYGBQgIBwgICwoJCQoLEQwNDA0MERoQExAQExAaFxsWFRYbFykgHBwgKS8nJScvOTMzOUdER11dff/CAAsIAoACgAEBIQD/xAAdAAEBAQEBAAMBAQAAAAAAAAAACQcGCAMEBQIB/9oACAEBAAAAAPXYAAAAAAAAAAAAAAAAAAAAAAAAAAAAAAAAAAAAAAAAAAAAAAAAAAAAAAAAAAAAAAAAAAAAAAAAAAAAAAAAAAAAAAAAAAAAAAAAAAAAAAAAAAAAAAAAAAAAAAAAAAAAAAAAAAAAAAAAA/E814px3wAAAPl6vaPS/RgAAAAAAAHn/wAK/ggAAAP1vbXpgAAAAAAADzh4LejvTmi/YAAAfDwPmvzH8Ptj1cAAAAAAAHFS9+t799BgAAAMVnj9emWnAAAAAAADwp5i9e+ywB5s8ifyHqL1cAPKviHfKGAAAAAAAH8yc/FrH+4APIHjf/A9Ue4AB9STf062/eAAAAAAAfgSW0WoYAPpf4P9+6ACbuM1I0AAAAAAABykotVpmAAAACdWGU+0oAAAAAABykotVpmAAAACdWGU+0oAAAAAABykou99sgAAAA8d5bT7SgAAAAAAHKSiAAAAAFP9JAAAAAAAcpKLpd/AAAABhnHU/wBJAAAAAAAcpKLVaZgAAAAnVhlP9JAAAAAAAcpKLVaZgAAAAnVhlP8ASQAAAAAAHKSi1WmYAAAAJ1YZT/SQAAAAAAHKSi1WmYAAAAJ1YZT/AEkAAAAAABykotVpmAAAACdWGU/0kAAAAAABykotVpmAAAACdWGU/wBJAAAAAAAcpKLVaZgAAAAnVhlP9JAAAAAAAcpKLVaZgAAAAnVhlP8ASQAAAAAAHKSi1WmYAAAAJ1YZT/SQAAAAAAHKSi1WmYAAAAJ1YZT/AEkAAAAAABykotVpmAAAACdWGU/0kAAAAAABykotVpmAAAACdWGU/wBJAAAAAAAcpKLVaZgAAAAnVhlP9JAAAAAAAcpKLVaZgAAAAnVhlP8ASQAAAAAAHKSi1WmYAAAAJ1YZT/SQAAAAAAHKSi1WmYAAAAJ1YZT/AEkAAAAAABykotVpmAAAACdWGU/0kAAAAAABykotVpmAAAACdWGU/wBJAAAAAAAcpKLVaZgAAAAnVhlP9JAAAAAAAcpKLVaZgAAAAnVhlP8ASQAAAAAAHKSi1WmYAAAAJ1YZT/SQAAAAAAHKSi1WmYAAAAJ1YZT/AEkAAAAAABykotVpmAAAACdWGU/0kAAAAAABykotVpmAAAACdWGU/wBJAAAAAAAcpKLVaZgAAAAnVhlP9JAAAAAAAcpKLVaZgAAAAnVhlP8ASQAAAAAAHKSi1WmYAAAAJ1YZT/SQAAAAAAHKSi1WmYAAAAJ1YZT/AEkAAAAAABykotVpmAAAACdWGU/0kAAAAAABykotVpmAAAACdWGU/wBJAAAAAAAcpKLVaZgAAAAnVhlP9JAAAAAAAcpKLVaZgAAAAnVhlP8ASQAAAAAAHKSi1WmYAAAAJ1YZT/SQAAAAAAHKSi1WmYAAAAJ1YZT/AEkAAAAAABykou79ngAAAA8iZhT/AEkAAAAAABykogAAAABT/SQAAAAAAHKSi6b0CAAAADCuNp/pIAAAAAADlJRarTMAAAAE6sMp/pIAAAAAADlJRarTMAD6GJfDtv6oAE6sMp/pIAAAAAADlJRarTMAHMTY4V1VJO6ABOrDKf6SAAAAAAA5SUWq0zAB4d8s7P8AoYR6FoGACdWGU/0kAAAAAABzUnNOp0ACcmJU36GU+lU+ABOXEah6KAAAAAAA+GR/9Vq+0AHjvx32X2eE9Re5gA/yUnMVp/aAAAAAAAJ4YN7y9LAB9Cf2Ef5sVC/2wAwqdmsUwAAAAAAAGQTZ/bpZ3wAOP+LtQAcnNHkaE7+AAAAAAAHiPyn+97T9F/cAAAH18B8T8r6M9+AAAAAAAA/jxN5W/j9Pt/mAAAfHxf4/++kvdn2QAAAAAAAGReT8X/MAAAH3ti9VbcAAAAAAAAD+PwPjAAAf3+98oAAAAAAAAAAAAAAAAAAAAAAAAAAAAAAAAAAAAAAAAAAAAAAAAAAAAAAAAAAAAAAAAAAAAAAAAAAAAAAAAAAAAAAAAAAAAAAAAAAAAAAAAAAAAAAAAAAAAAAAAAAAA//EAC0QAAECBAUEAwACAwEBAAAAAAYFBwACAwQIEBg3UAEXNkAVFjAREhMUMZAg/9oACAEBAAEIAP8A06XiNCGLKa+WSjFGlW01SgNK2IJzVOaf/FWdBxLjr/NTuQfx3IP47kH8dyD+O5B/Hcg/juQfx3IP47kH8dyD+O5B/Hcg/juQfx3IP47kH8dyD+O5B/Hcg/juQfx3IP4pOa4VGb+0iU/rnpk0n8jGKW2qzUqJMNlw4XWnS7Q+TdZ80wK610hGICVdKVCooLXtJC0qoF9RUEpqX+syWegilHIvm73URtph5DqVJ6tSepUp056s8klMEw5EZDToXxCgMi26BJJ/S3Q0S0l6SW3xyfHxyfHxyfHxyfHxyfHxyfHxyfHxyfHxyfHxyfHxyfHxyfHxyfHxyfHxyfHxyfHxyfHxyfHxyfHxyfFZFR7mTrJXXWabdfkn/wA5xhpWkmnWvRa4t69nXrW9x0/npDCvFUVv8AkRce4RjagoqpLVdUUr1ZULxRvre3rXdejb27PsrYB1rbLC57Trs+lH9lVvLJSTb1Iv7tPv7e4rWlejcW7SnlM/EbS+qcdiZLZ1ImsRyhGGtvKdxPWM1H8n5dlUC/8ASQkGZzHEnm6zde5bhx3LcOO5bhx3LcOOjluHDDPAtEipMMEX5YkW8p36ZKY2EYeCyceO6CbV42eeWnJPPMWq86+TkCrPa21a9ube1oDKHbDKAkI1t+WJQAWL+9sCpN/5/wDWHACWZyOQsu/yv7G1U7G8sbsgSKyAuKyTXTr2sm39jfUEu9pqSan31PjCy6mshUlu5YaaykUXIDref8/+/wAxMmp003XrN8Wmx8Wmx8Wmx8Wmx0TE7p16denTp06dP46fm/tlJZukQ9ZIaq5nu24DKs3GHng5nkyW6Yf7+IrdBTyZ7bIM4088HM8mS3TD/fxFboKeTPbZBnGnng5nk2S8nDJ2OrKnqLa+NRbXxqLa+NRbXxqLa+NRbXxqLa+NRbXxqLa+NRbXxqLa+NRbXxqLa+NRbXxqLa+NRbXxqLa+NRbXxqLa+NRbXxqLa+NRbXxqLa+NRbXxqLa+NRbXxqLa+NRbXxqLa+NRbXw8JQkGJxfLCPDPbYhnGnng5nwbPbZBnGnng5nkIjlyXEaWg22lcpjSwUxpXKY0rlMaVymNK5TGlgpjSuUxpXKY0rlMaVymNLBTGlcpjSuUxpXKY0rlMaWCmNK5TGlcpjSuUxpXKY0sFMaVymNK5TGlcpjSuUxpYKY0rlMaVymNK5TByHXgIQ10O8hntsgzjTzwczyZLdMP9/EVugp5M9tkGcaeeDmeTJbph/v4it0FPJntsgzjTzwczyZLdMP9/EVugp5M9tkGcaeeDmeTJbph/v4it0FPJntsgzjTzwczyZLdMP8AfxFboKeTPbZBnGnng5nkyW6Yf7+IrdBTyZ7bIM4088HM8mS3TD/fxFboKeTPbZBnGnng5nkyW6Yf7+IrdBTyZ7bIM4088HM8mS3TD/fxFboKeTPbZBnGnng5nkyW6Yf7+IrdBTyZ7bIM4088HM8mS3TD/fxFboKeTPbZBnGnng5nkyW6Yf7+IrdBTyZ7bIM4088HM8mS3TD/AH8RW6Cnkz22QZxp54OZ5MlumH+/iK3QU8me2yDONPPBzPJkt0w/38RW6Cnkz22QZxp54OZ5MlumH+/iK3QU8me2yDONPPBzPJkt0w/38RW6Cnkz22QZxp54OZ5MlumH+/iK3QU8me2yDONPPBzPJkt0w/38RW6Cnkz22QZxp54OZ5MlumH+/iK3QU8me2yDONPPBzPJkt0w/wB/EVugp5M9tkGcaeeDmeTJbph/v4it0FPJntsgzjTzwczyZLdMP9/EVugp5M9tkGcaeeDmeTJbph/v4it0FPJntsgzjTzwczyZLdMP9/EVugp5M9tkGcaeeDmeTJbph/v4it0FPJntsgzjTzwczyZLdMP9/EVugp5M9tkGcaeeDmeTJbph/v4it0FPJntsgzjTzwczyZLdMP8AfxFboKeTPbZBnGnng5nkyW6Yf7+IrdBTyZ7bIM4088HM8mS3TD/fxFboKeTPbZBnGnng5nkyW6Yf7+IrdBTyZ7bIM4088HM8mS3TD/fxFboKeTPbZBnGnng5nkyW6Yf7+IrdBTyZ7bIM4088HM8m1X08WOB9aUtSbaRqTbSNSbaRqTbSNSbaRqTbSNSbaRqTbSNSbaRqTbSNSbaRqTbSNSbaRqTbSNSbaRqTbSNSbaRqTbSNSbaRqTbSNSbaRqTbSNSbaRqTbSNSbaRqTbSNSbaRqTbSNSbaRqTbSHeK0kzNr1ZSYZ7bIM4088HM+DZ7bIM4088HM8hAbuC8jS0G20qk0aVSaNKpNGlUmjSqTRpVJo0qk0aVSaNKpNGlUmjSqTRpVJo0qk0aVSaNKpNGlUmjSqTRpVJo0qk0aVSaNKpNGlUmjSqTRpVJo0qk0aVSaNKpNGlUmjSqTRpVJoOw67BCK4Q7uGe2yDONPPBzPJkt0w/38RW6Cnkz22QZxp54OZ5MlumH/spqqai2dW9UlXEi2ybV60qKbiWbm+qy066Muo5DZSXyR+uIrdBTyZ7bIM4088HM8mS3TD/1MSxLCh++W1I6PyE+Val6q5CZivhapSUkVvDpOcAct1a0/TEVugp5M9tkGcaeeDmeTJbph/64oCatdkSSO04bdliJw7edRkcRhiIETp1ajGG8mrI53KkzfpiK3QU8me2yDONNaU1cNLKMkM1XktnPDZ5/0xCSTyuqQdZoZi+Tb5tBX/QcC/TU4JKLhThn6daq5gb0pfpiFryVnRWpZIaOnNSbQMln4y5oS3NtcUJ1ewqJSqpp9VFU6qMrpinRsb23UrK0vrX88UIfW6zpBbbQKHhWE1qtVCLXIMTfpTkXIwyh9a/Irwor/nNNLJLNNMcLvQmLyJYlp0561SSlINpvRHHkJN47EMLzIB/dX0kYbzumtDkwvd/mqpdgtJ14mqDlsaRBlzcXqXk3bNFB3c0K046PJYqjWKOlfm/h3IJh9dOtoZYXnKXCQ6XXjnrBOpyG3ElpNLNJNNLMNkSoKLVispbeuEiuEiyX1j+is34Qu1Z6ykmNuBo9WWrY9OnSXp06dPzMzRDBkWuqqxqYKpyQXi0pRh9AZxQW6q19x7/tLOmXVwXocDxGtCqnQVEYExIDqxToWhPYqKeqUKdzYetdXdpY0Z690cYiRMekrWyEVmJAaqlRSW4YppqxYpUSBY6dOkvTp06cfVo0q9KpSrOywF2mT3K2HzSzSTdZZoTllWSKvSqm0Hgc23k/pJ3odCO9DoR3odCO9DoR3odCO9DoR3odCO9DoR3odCO9DoR3odCO9DoR3odCO9DoR3odCO9DoR3odCO9DoR3odCO9DoRWeJzq0nWSdUX11bn/uqR/wBhqmFUyepbK5LZ2don2tvaWfJHjLBpz1q3VQow7nyDPUnT1FHVUer/AIVH1rFNUFOt0o2IywDhkE9Oe5BGHDw2eleXHLVKVKtJNJVqiApXm6z1fpYfH0sPj6WHx9LD4+lh8fSw+PpYfH0sPj6WHx9LD4+lh8fSw+PpYfH0sPj6WHx9LD4+lh8fSw+PpYfH0sPiQPEqU3SeShb0Lan0p0P/ADs//8QARxAAAQIDBQMKAggBCwUBAAAAAgEDAAQFBhBUlLMRUJIhMUBBUVWTstHSEjATIjJCU2FxgRQVJDNEUmJjcpCRoSAjQ3N0ov/aAAgBAQAJPwD/AFOqoxJsdROlsUtnUKc5LFDcm1xM2v0TfAMVhqRBfuSrAD50JYtnVcyQxbGrZo4tjVs0cWxq2aOLY1bNHFsatmji2NWzRxbGrZo4tjVs0cWxq2aOLY1bNHFsatmji2NWzRxbGrZo4tjVs0cWxq2aOLY1bNHFsatmji2NWzRxbGrZo4tjVs0cWzq2ZNYr6TgJ9yaZA/QooCs9szI/XTwzirMTbafbEC+uG3qMV2KO9Ebnq3zH1syv+ftOKk7NzJ/eNeQU7AFOQU6XUHpSaaXaDrRfCv79qQrUpVC2AzN/YZmPYe8n0/lmYb2vPYRv3rBkZkqqREu1VVetVWAUzJUQRFNqqq9SQ+tIkj5UZ+BDmT9kWdanHk53p3a+vCX1Yo8kyPULbAAn/CJEhL+GMSEv4YxIS/hjEhL+GMSEv4YxIS/hjEhL+GMSEv4YxIS/hjEhL+GMSEv4YxIS/hjEhL+GMSEv4YxIS/hjEhL+GMSEv4YxIS/hjEhL+GMSEv4YxSZN0OsTYAk/5RYszLS7hczsmn8MSeHE6tTYHlWTdRAmB98MG080Sg42YqJCSc6Ki3TSlOCGynzbhcryfgn2nvDYTrYoEs1+I8fIIw+T01Muk664XKpEUNE686aA22CbSIi5ERIYbma84KEglsMJP8g7T7S6W23K15odrMxzI/8A3HoljYmpZwm3mj5CEhh0m3mjQ2zBdhCQ8qKiwYpUZbYxPAn4o/f/AEPd7v8ANqWyjjydr73tG5jaLREzTR873y3EaqM0yrz0zzqy1zCgRbitZ11ItxW8876xbit5531i3FbzzvrFuK3nnfWLb1rOu+sTKTT5Mk5JTa8jhfR8pAfy2Nk1JoLc+n4jHU5+oXObJOsiksaf43O1u5dgiiqv7csFtWcn33k/ISNVFP2SAU3n3BbbHtI12IkIn0UlLNtIvaqfaL91+XKOTLDcskvOA2KkbSByi5/1yjkvISjLoSxOCoq+48Kh9T5baOS8yybToL1iabFjlckpp1gl7foy2bYJReln23m17CbJCSOUJqWafD9HBQt2rsJilzjqL+YNEtybR/lAHPC2ufNkJdVVedWhiny3hDFPlvCGKfLeEMU+W8IYp8si7fwhjkT5nM+Mu9xNDd3YyHB9Xdvck/oFdiXNE+n4SV07sAPm3b3JP6BXYlzRPp+EldO7AD5t29yT+gVzhBJyjxm6QipKiK2QxU5vKnFTm8qcVObypxU5vKnFTm8qcVObypxU5vKnFTm8qcVObypxU5vKnFTm8qcVObypxU5vKnFTm8qcVObypxU5vKnFTm8qcVObypxU5vKnFTm8qcVObypxU5vKnFTm8qcVObypxU5vKnFTm8qcVObypxU5vKnFTm8qcVObypw6bkm4wwAkYKC7QG7AD5t29yT+gW48APm3b3JP6BXPtsvTrhADjm1RH4RUuXZFpKbwuRaSm8LkWkpvC5FpKbwuRaSm8LkWkpvC5FpKbwuRaSm8LkWkpvC5FpKbwuRaSm8LkWkpvC5FpKbwuRaSm8LkWkpvC5FpKbwuRaSm8LkWkpvC5FpKbwuRaSm8LkWkpvC5FpKbwuRaSm8LkWkpvC5FpKbwuRaSm8LkWkpvC5FpKbwuRaSm8LkWkpvC5E2zMPNNtmrjW1B2OJt67sAPm3b3JP6BXYlzRPp+EldO7AD5t29yT+gV2Jc0T6fhJXTuwA+bdvck/oFdiXNE+n4SV07sAPm3b3JP6BXYlzRPp+EldO7AD5t29yT+gV2Jc0T6fhJXTuwA+bdvck/oFdiXNE+n4SV07sAPm3b3JP6BXYlzRPp+EldO7AD5t29yT+gV2Jc0T6fhJXTuwA+bdvck/oFdiXNE+n4SV07sAPm3b3JP6BXYlzRPp+EldO7AD5t29yT+gV2Jc0T6fhJXTuwA+bdvck/oFdiXNE+n4SV07sAPm3b3JP6BXYlzRPp+EldO7AD5t29yT+gV2Jc0T6fhJXTuwA+bdvck/oFdiXNE+n4SV07sAPm3b3JP6BXYlzRPp+EldO7AD5t29yT+gV2Jc0T6fhJXTuwA+bdvck/oFdiXNE+n4SV07sAPm3b3JP6BXYlzRPp+EldO7AD5t29yT+gV2Jc0T6fhJXTuwA+bdvck/oFdiXNE+n4SV07sAPm3b3JP6BXYlzRPp+EldO7AD5t29yT+gV2Jc0T6fhJXTuwA+bdvck/oFdiXNE+n4SV07sAPm3b3JP6BXYlzRPp+EldO7AD5t29yT+gV2Jc0T6fhJXTuwA+bdvck/oFdiXNE+n4SV07sAPm3b3JP6BXYlzRPp+EldO7AD5t29yT+gV2Jc0T6fhJXTuwA+bdvck/oFdiXNE+n4SV07sAPm3b3JP6BXYlzRPp+EldO7AD5t29yT+gV2Jc0T6fhJXTuwA+bdvck/oFdiXNE+n4SV07sAPm3b3JP6BXYlzRPp+EldO7AD5t29yT+gVymkpKPGbqtj8RbCbIYdqOVh2o5WHajlYdqOVh2o5WHajlYdqOVh2o5WHajlYdqOVh2o5WHajlYdqOVh2o5WHajlYdqOVh2o5WHajlYdqOVh2o5WHajlYdqOVh2o5WHajlYdqOVh2o5WHajlYdqOVh2o5WHajlYV1ZRxhgBV0PgLaA3YAfNu3uSf0C3HgB827e5J/QK6YbZenXCAHHEVRH4RUuXZFqKbwOxaim8DsWopvA7FqKbwOxaim8DsWopvA7FqKbwOxaim8DsWopvA7FqKbwOxaim8DsWopvA7FqKbwOxaim8DsWopvA7FqKbwOxaim8DsWopvA7FqKbwOxaim8DsWopvA7FqKbwOxaim8DsWopvA7FqKbwOxaim8DsWopvA7FqKbwOxaim8DsWopvA7E2zMPNNtmrjSKgqjibeu7AD5t29yT+gV2Jc0T6fhJXTuwA+bdvck/oFdiXNE/nTzMpLN/bdeNABP3KHKhP9pyrHJ/u8TcDU5H+++wKh/uyZxUmJyWL/yMmhJ+i9nzsJK6d2AHzbt7kn9ArsS5on80/wDtMD9RtF+s64XILY/msTa/Qoa/w0oCr9CwHYPuvniZcFU+kb523hT7hj1pGxt5PqTUvt5WXfm4SV07sAPm3b3JP6BXYlzRP5rmxiQY+ndHtef9BumGqfS0NQSadBTVwh/DCJ5uqU5rkfdbbVpxr8yDaVzipK1dk2iHsdaRTBfm4SV07sAPm3b9pyjzwj+pMldjfg8QCD5qchsyahlwuINjEqjD4p1PhyHCh/CpTnwIS++pgoiH7qt32knxL9hRVX5vO0xKgXhIt3dwLxbt+y62QF+hJshFRyUmnmDRepWiUY5XJOZafFO1WyQocQ2JlkHmyTrA02p8xra2gfwc6ukV1Wclkd2K41sQ2j/UCisG8wBfEEuAo20hdvwjc0qStObJlgu1972h8wkQURVVV6kTrWC2hNzjpt/+tOQP+IHaRkginaqx/VJGXY8MEHdzeyVq7aTQL/iczlz38/pQ7WO1yVL2fMlgflJptWnmy5iEol3alRVJSB1tPjdYHseRPNfLHIUfbtcnXh2fEPYyn3liX+ilJUPhFOsl6zLtJfmP7KnVxJhrtBnmcO5vbLSTiT0x/kYVCTiLd7Xx1SQVZmS7T/tt/ukCqEiqiovVsh/6OalTQh7CTrEu0Vg0bmgREm5Mi2uMn7V6i+bZanzDpc7isihr+4xZOnNODzH9AJkn7lCbE7PmTKCKJsZYT+kfc6gBIP67n1Wmk+yy0P2WxuZUKlWEF1RLnaYH7Abwldsi+W2osAn9A5+L/kK6fOWmmuYh5iTrEx5iGASlz346bSlnPZE8xMsGiKLjLguCqL2KO3o800wyCKpOOmgCiJ2qWyNlYqHa2uyWD9T9sTxPuryNgnI20HUAD1JdLbKJJubWwNOSbd9iRyIibwaFxsxUTA0QhJFTYqKi9SxLE/Jcpv04eVxn82u0IRUJF2Ki9V1Um5Nz+3LPG0X+4KkWzn1T/EJHPOixbGc4W/bFsZzhb9sWxnOFv2xbGc4W/bFsZzhb9sWxnOFv2xbGc4W/bFsZzhb9sWxnOFv2xbGc4W/bFsZzhb9sWxnOFv2xbGc4W/bFsZzhb9sWxnOFv2xbGc4W/bFsZzhb9sWxnOFv2xbGc4W/bFsZzhb9sWzntnaCiHliszs6XbMvm751W9lySo/ITbH2X5r2BEs2xLMALbTTYoIAIps2Iibzl1kKmX9cldgqRdro8xxLtViV6jlV2O+GcU2ZlHP7L7RNr/8Aro8i/MuqvIDLZOFy/kMU8aVKrzuzpbC8NNpQC1WpDyo/MinwNl2tt73bEwXnE0Qk/dFizVMIu1ZVv2xZal5Vv0iy1LyrfpFlqXlW/SLLUvKt+kWWpeVb9IstS8q36RZal5Vv0iy1LyrfpFlqXlW/SLLUvKt+kWWpeVb9IstS8q36RZal5Vv0iy1LyrfpFlqXlW/SLLUvKt+kWWpeVb9IstS8q36RZal5Vv0iy1LyrfpFmaWhf/K17YYBptOYAFBH9tn+nb//2Q==;" vertex="1" parent="1">
          <mxGeometry x="480" y="290" width="40" height="40" as="geometry" />
        </mxCell>
        <mxCell id="D13HqMTGhr0uNa7FewxC-22" value="" style="shape=image;verticalLabelPosition=bottom;labelBackgroundColor=default;verticalAlign=top;aspect=fixed;imageAspect=0;image=data:image/jpeg,/9j/4AAQSkZJRgABAQAAAQABAAD//gA8Q1JFQVRPUjogZ2QtanBlZyB2MS4wICh1c2luZyBJSkcgSlBFRyB2NjIpLCBxdWFsaXR5ID0gMTAwCv/bAEMABQUFBQUFBQYGBQgIBwgICwoJCQoLEQwNDA0MERoQExAQExAaFxsWFRYbFykgHBwgKS8nJScvOTMzOUdER11dff/CAAsIAoACgAEBIQD/xAAdAAEBAQEBAAMBAQAAAAAAAAAACQcGCAMEBQIB/9oACAEBAAAAAPXYAAAAAAAAAAAAAAAAAAAAAAAAAAAAAAAAAAAAAAAAAAAAAAAAAAAAAAAAAAAAAAAAAAAAAAAAAAAAAAAAAAAAAAAAAAAAAAAAAAAAAAAAAAAAAAAAAAAAAAAAAAAAAAAAAAAAAAAAA/E814px3wAAAPl6vaPS/RgAAAAAAAHn/wAK/ggAAAP1vbXpgAAAAAAADzh4LejvTmi/YAAAfDwPmvzH8Ptj1cAAAAAAAHFS9+t799BgAAAMVnj9emWnAAAAAAADwp5i9e+ywB5s8ifyHqL1cAPKviHfKGAAAAAAAH8yc/FrH+4APIHjf/A9Ue4AB9STf062/eAAAAAAAfgSW0WoYAPpf4P9+6ACbuM1I0AAAAAAABykotVpmAAAACdWGU+0oAAAAAABykotVpmAAAACdWGU+0oAAAAAABykou99sgAAAA8d5bT7SgAAAAAAHKSiAAAAAFP9JAAAAAAAcpKLpd/AAAABhnHU/wBJAAAAAAAcpKLVaZgAAAAnVhlP9JAAAAAAAcpKLVaZgAAAAnVhlP8ASQAAAAAAHKSi1WmYAAAAJ1YZT/SQAAAAAAHKSi1WmYAAAAJ1YZT/AEkAAAAAABykotVpmAAAACdWGU/0kAAAAAABykotVpmAAAACdWGU/wBJAAAAAAAcpKLVaZgAAAAnVhlP9JAAAAAAAcpKLVaZgAAAAnVhlP8ASQAAAAAAHKSi1WmYAAAAJ1YZT/SQAAAAAAHKSi1WmYAAAAJ1YZT/AEkAAAAAABykotVpmAAAACdWGU/0kAAAAAABykotVpmAAAACdWGU/wBJAAAAAAAcpKLVaZgAAAAnVhlP9JAAAAAAAcpKLVaZgAAAAnVhlP8ASQAAAAAAHKSi1WmYAAAAJ1YZT/SQAAAAAAHKSi1WmYAAAAJ1YZT/AEkAAAAAABykotVpmAAAACdWGU/0kAAAAAABykotVpmAAAACdWGU/wBJAAAAAAAcpKLVaZgAAAAnVhlP9JAAAAAAAcpKLVaZgAAAAnVhlP8ASQAAAAAAHKSi1WmYAAAAJ1YZT/SQAAAAAAHKSi1WmYAAAAJ1YZT/AEkAAAAAABykotVpmAAAACdWGU/0kAAAAAABykotVpmAAAACdWGU/wBJAAAAAAAcpKLVaZgAAAAnVhlP9JAAAAAAAcpKLVaZgAAAAnVhlP8ASQAAAAAAHKSi1WmYAAAAJ1YZT/SQAAAAAAHKSi1WmYAAAAJ1YZT/AEkAAAAAABykotVpmAAAACdWGU/0kAAAAAABykotVpmAAAACdWGU/wBJAAAAAAAcpKLVaZgAAAAnVhlP9JAAAAAAAcpKLVaZgAAAAnVhlP8ASQAAAAAAHKSi1WmYAAAAJ1YZT/SQAAAAAAHKSi1WmYAAAAJ1YZT/AEkAAAAAABykou79ngAAAA8iZhT/AEkAAAAAABykogAAAABT/SQAAAAAAHKSi6b0CAAAADCuNp/pIAAAAAADlJRarTMAAAAE6sMp/pIAAAAAADlJRarTMAD6GJfDtv6oAE6sMp/pIAAAAAADlJRarTMAHMTY4V1VJO6ABOrDKf6SAAAAAAA5SUWq0zAB4d8s7P8AoYR6FoGACdWGU/0kAAAAAABzUnNOp0ACcmJU36GU+lU+ABOXEah6KAAAAAAA+GR/9Vq+0AHjvx32X2eE9Re5gA/yUnMVp/aAAAAAAAJ4YN7y9LAB9Cf2Ef5sVC/2wAwqdmsUwAAAAAAAGQTZ/bpZ3wAOP+LtQAcnNHkaE7+AAAAAAAHiPyn+97T9F/cAAAH18B8T8r6M9+AAAAAAAA/jxN5W/j9Pt/mAAAfHxf4/++kvdn2QAAAAAAAGReT8X/MAAAH3ti9VbcAAAAAAAAD+PwPjAAAf3+98oAAAAAAAAAAAAAAAAAAAAAAAAAAAAAAAAAAAAAAAAAAAAAAAAAAAAAAAAAAAAAAAAAAAAAAAAAAAAAAAAAAAAAAAAAAAAAAAAAAAAAAAAAAAAAAAAAAAAAAAAAAAA//EAC0QAAECBAUEAwACAwEBAAAAAAYFBwACAwQIEBg3UAEXNkAVFjAREhMUMZAg/9oACAEBAAEIAP8A06XiNCGLKa+WSjFGlW01SgNK2IJzVOaf/FWdBxLjr/NTuQfx3IP47kH8dyD+O5B/Hcg/juQfx3IP47kH8dyD+O5B/Hcg/juQfx3IP47kH8dyD+O5B/Hcg/juQfx3IP4pOa4VGb+0iU/rnpk0n8jGKW2qzUqJMNlw4XWnS7Q+TdZ80wK610hGICVdKVCooLXtJC0qoF9RUEpqX+syWegilHIvm73URtph5DqVJ6tSepUp056s8klMEw5EZDToXxCgMi26BJJ/S3Q0S0l6SW3xyfHxyfHxyfHxyfHxyfHxyfHxyfHxyfHxyfHxyfHxyfHxyfHxyfHxyfHxyfHxyfHxyfHxyfHxyfHxyfFZFR7mTrJXXWabdfkn/wA5xhpWkmnWvRa4t69nXrW9x0/npDCvFUVv8AkRce4RjagoqpLVdUUr1ZULxRvre3rXdejb27PsrYB1rbLC57Trs+lH9lVvLJSTb1Iv7tPv7e4rWlejcW7SnlM/EbS+qcdiZLZ1ImsRyhGGtvKdxPWM1H8n5dlUC/8ASQkGZzHEnm6zde5bhx3LcOO5bhx3LcOOjluHDDPAtEipMMEX5YkW8p36ZKY2EYeCyceO6CbV42eeWnJPPMWq86+TkCrPa21a9ube1oDKHbDKAkI1t+WJQAWL+9sCpN/5/wDWHACWZyOQsu/yv7G1U7G8sbsgSKyAuKyTXTr2sm39jfUEu9pqSan31PjCy6mshUlu5YaaykUXIDref8/+/wAxMmp003XrN8Wmx8Wmx8Wmx8Wmx0TE7p16denTp06dP46fm/tlJZukQ9ZIaq5nu24DKs3GHng5nkyW6Yf7+IrdBTyZ7bIM4088HM8mS3TD/fxFboKeTPbZBnGnng5nk2S8nDJ2OrKnqLa+NRbXxqLa+NRbXxqLa+NRbXxqLa+NRbXxqLa+NRbXxqLa+NRbXxqLa+NRbXxqLa+NRbXxqLa+NRbXxqLa+NRbXxqLa+NRbXxqLa+NRbXxqLa+NRbXxqLa+NRbXxqLa+NRbXw8JQkGJxfLCPDPbYhnGnng5nwbPbZBnGnng5nkIjlyXEaWg22lcpjSwUxpXKY0rlMaVymNK5TGlgpjSuUxpXKY0rlMaVymNLBTGlcpjSuUxpXKY0rlMaWCmNK5TGlcpjSuUxpXKY0sFMaVymNK5TGlcpjSuUxpYKY0rlMaVymNK5TByHXgIQ10O8hntsgzjTzwczyZLdMP9/EVugp5M9tkGcaeeDmeTJbph/v4it0FPJntsgzjTzwczyZLdMP9/EVugp5M9tkGcaeeDmeTJbph/v4it0FPJntsgzjTzwczyZLdMP8AfxFboKeTPbZBnGnng5nkyW6Yf7+IrdBTyZ7bIM4088HM8mS3TD/fxFboKeTPbZBnGnng5nkyW6Yf7+IrdBTyZ7bIM4088HM8mS3TD/fxFboKeTPbZBnGnng5nkyW6Yf7+IrdBTyZ7bIM4088HM8mS3TD/fxFboKeTPbZBnGnng5nkyW6Yf7+IrdBTyZ7bIM4088HM8mS3TD/AH8RW6Cnkz22QZxp54OZ5MlumH+/iK3QU8me2yDONPPBzPJkt0w/38RW6Cnkz22QZxp54OZ5MlumH+/iK3QU8me2yDONPPBzPJkt0w/38RW6Cnkz22QZxp54OZ5MlumH+/iK3QU8me2yDONPPBzPJkt0w/38RW6Cnkz22QZxp54OZ5MlumH+/iK3QU8me2yDONPPBzPJkt0w/wB/EVugp5M9tkGcaeeDmeTJbph/v4it0FPJntsgzjTzwczyZLdMP9/EVugp5M9tkGcaeeDmeTJbph/v4it0FPJntsgzjTzwczyZLdMP9/EVugp5M9tkGcaeeDmeTJbph/v4it0FPJntsgzjTzwczyZLdMP9/EVugp5M9tkGcaeeDmeTJbph/v4it0FPJntsgzjTzwczyZLdMP8AfxFboKeTPbZBnGnng5nkyW6Yf7+IrdBTyZ7bIM4088HM8mS3TD/fxFboKeTPbZBnGnng5nkyW6Yf7+IrdBTyZ7bIM4088HM8mS3TD/fxFboKeTPbZBnGnng5nkyW6Yf7+IrdBTyZ7bIM4088HM8m1X08WOB9aUtSbaRqTbSNSbaRqTbSNSbaRqTbSNSbaRqTbSNSbaRqTbSNSbaRqTbSNSbaRqTbSNSbaRqTbSNSbaRqTbSNSbaRqTbSNSbaRqTbSNSbaRqTbSNSbaRqTbSNSbaRqTbSNSbaRqTbSHeK0kzNr1ZSYZ7bIM4088HM+DZ7bIM4088HM8hAbuC8jS0G20qk0aVSaNKpNGlUmjSqTRpVJo0qk0aVSaNKpNGlUmjSqTRpVJo0qk0aVSaNKpNGlUmjSqTRpVJo0qk0aVSaNKpNGlUmjSqTRpVJo0qk0aVSaNKpNGlUmjSqTRpVJoOw67BCK4Q7uGe2yDONPPBzPJkt0w/38RW6Cnkz22QZxp54OZ5MlumH/spqqai2dW9UlXEi2ybV60qKbiWbm+qy066Muo5DZSXyR+uIrdBTyZ7bIM4088HM8mS3TD/1MSxLCh++W1I6PyE+Val6q5CZivhapSUkVvDpOcAct1a0/TEVugp5M9tkGcaeeDmeTJbph/64oCatdkSSO04bdliJw7edRkcRhiIETp1ajGG8mrI53KkzfpiK3QU8me2yDONNaU1cNLKMkM1XktnPDZ5/0xCSTyuqQdZoZi+Tb5tBX/QcC/TU4JKLhThn6daq5gb0pfpiFryVnRWpZIaOnNSbQMln4y5oS3NtcUJ1ewqJSqpp9VFU6qMrpinRsb23UrK0vrX88UIfW6zpBbbQKHhWE1qtVCLXIMTfpTkXIwyh9a/Irwor/nNNLJLNNMcLvQmLyJYlp0561SSlINpvRHHkJN47EMLzIB/dX0kYbzumtDkwvd/mqpdgtJ14mqDlsaRBlzcXqXk3bNFB3c0K046PJYqjWKOlfm/h3IJh9dOtoZYXnKXCQ6XXjnrBOpyG3ElpNLNJNNLMNkSoKLVispbeuEiuEiyX1j+is34Qu1Z6ykmNuBo9WWrY9OnSXp06dPzMzRDBkWuqqxqYKpyQXi0pRh9AZxQW6q19x7/tLOmXVwXocDxGtCqnQVEYExIDqxToWhPYqKeqUKdzYetdXdpY0Z690cYiRMekrWyEVmJAaqlRSW4YppqxYpUSBY6dOkvTp06cfVo0q9KpSrOywF2mT3K2HzSzSTdZZoTllWSKvSqm0Hgc23k/pJ3odCO9DoR3odCO9DoR3odCO9DoR3odCO9DoR3odCO9DoR3odCO9DoR3odCO9DoR3odCO9DoR3odCO9DoR3odCO9DoRWeJzq0nWSdUX11bn/uqR/wBhqmFUyepbK5LZ2don2tvaWfJHjLBpz1q3VQow7nyDPUnT1FHVUer/AIVH1rFNUFOt0o2IywDhkE9Oe5BGHDw2eleXHLVKVKtJNJVqiApXm6z1fpYfH0sPj6WHx9LD4+lh8fSw+PpYfH0sPj6WHx9LD4+lh8fSw+PpYfH0sPj6WHx9LD4+lh8fSw+PpYfH0sPiQPEqU3SeShb0Lan0p0P/ADs//8QARxAAAQIDBQMKAggBCwUBAAAAAgEDAAQFBhBUlLMRUJIhMUBBUVWTstHSEjATIjJCU2FxgRQVJDNEUmJjcpCRoSAjQ3N0ov/aAAgBAQAJPwD/AFOqoxJsdROlsUtnUKc5LFDcm1xM2v0TfAMVhqRBfuSrAD50JYtnVcyQxbGrZo4tjVs0cWxq2aOLY1bNHFsatmji2NWzRxbGrZo4tjVs0cWxq2aOLY1bNHFsatmji2NWzRxbGrZo4tjVs0cWxq2aOLY1bNHFsatmji2NWzRxbGrZo4tjVs0cWzq2ZNYr6TgJ9yaZA/QooCs9szI/XTwzirMTbafbEC+uG3qMV2KO9Ebnq3zH1syv+ftOKk7NzJ/eNeQU7AFOQU6XUHpSaaXaDrRfCv79qQrUpVC2AzN/YZmPYe8n0/lmYb2vPYRv3rBkZkqqREu1VVetVWAUzJUQRFNqqq9SQ+tIkj5UZ+BDmT9kWdanHk53p3a+vCX1Yo8kyPULbAAn/CJEhL+GMSEv4YxIS/hjEhL+GMSEv4YxIS/hjEhL+GMSEv4YxIS/hjEhL+GMSEv4YxIS/hjEhL+GMSEv4YxIS/hjEhL+GMSEv4YxIS/hjEhL+GMSEv4YxSZN0OsTYAk/5RYszLS7hczsmn8MSeHE6tTYHlWTdRAmB98MG080Sg42YqJCSc6Ki3TSlOCGynzbhcryfgn2nvDYTrYoEs1+I8fIIw+T01Muk664XKpEUNE686aA22CbSIi5ERIYbma84KEglsMJP8g7T7S6W23K15odrMxzI/8A3HoljYmpZwm3mj5CEhh0m3mjQ2zBdhCQ8qKiwYpUZbYxPAn4o/f/AEPd7v8ANqWyjjydr73tG5jaLREzTR873y3EaqM0yrz0zzqy1zCgRbitZ11ItxW8876xbit5531i3FbzzvrFuK3nnfWLb1rOu+sTKTT5Mk5JTa8jhfR8pAfy2Nk1JoLc+n4jHU5+oXObJOsiksaf43O1u5dgiiqv7csFtWcn33k/ISNVFP2SAU3n3BbbHtI12IkIn0UlLNtIvaqfaL91+XKOTLDcskvOA2KkbSByi5/1yjkvISjLoSxOCoq+48Kh9T5baOS8yybToL1iabFjlckpp1gl7foy2bYJReln23m17CbJCSOUJqWafD9HBQt2rsJilzjqL+YNEtybR/lAHPC2ufNkJdVVedWhiny3hDFPlvCGKfLeEMU+W8IYp8si7fwhjkT5nM+Mu9xNDd3YyHB9Xdvck/oFdiXNE+n4SV07sAPm3b3JP6BXYlzRPp+EldO7AD5t29yT+gVzhBJyjxm6QipKiK2QxU5vKnFTm8qcVObypxU5vKnFTm8qcVObypxU5vKnFTm8qcVObypxU5vKnFTm8qcVObypxU5vKnFTm8qcVObypxU5vKnFTm8qcVObypxU5vKnFTm8qcVObypxU5vKnFTm8qcVObypxU5vKnFTm8qcVObypxU5vKnFTm8qcVObypw6bkm4wwAkYKC7QG7AD5t29yT+gW48APm3b3JP6BXPtsvTrhADjm1RH4RUuXZFpKbwuRaSm8LkWkpvC5FpKbwuRaSm8LkWkpvC5FpKbwuRaSm8LkWkpvC5FpKbwuRaSm8LkWkpvC5FpKbwuRaSm8LkWkpvC5FpKbwuRaSm8LkWkpvC5FpKbwuRaSm8LkWkpvC5FpKbwuRaSm8LkWkpvC5FpKbwuRaSm8LkWkpvC5FpKbwuRaSm8LkWkpvC5E2zMPNNtmrjW1B2OJt67sAPm3b3JP6BXYlzRPp+EldO7AD5t29yT+gV2Jc0T6fhJXTuwA+bdvck/oFdiXNE+n4SV07sAPm3b3JP6BXYlzRPp+EldO7AD5t29yT+gV2Jc0T6fhJXTuwA+bdvck/oFdiXNE+n4SV07sAPm3b3JP6BXYlzRPp+EldO7AD5t29yT+gV2Jc0T6fhJXTuwA+bdvck/oFdiXNE+n4SV07sAPm3b3JP6BXYlzRPp+EldO7AD5t29yT+gV2Jc0T6fhJXTuwA+bdvck/oFdiXNE+n4SV07sAPm3b3JP6BXYlzRPp+EldO7AD5t29yT+gV2Jc0T6fhJXTuwA+bdvck/oFdiXNE+n4SV07sAPm3b3JP6BXYlzRPp+EldO7AD5t29yT+gV2Jc0T6fhJXTuwA+bdvck/oFdiXNE+n4SV07sAPm3b3JP6BXYlzRPp+EldO7AD5t29yT+gV2Jc0T6fhJXTuwA+bdvck/oFdiXNE+n4SV07sAPm3b3JP6BXYlzRPp+EldO7AD5t29yT+gV2Jc0T6fhJXTuwA+bdvck/oFdiXNE+n4SV07sAPm3b3JP6BXYlzRPp+EldO7AD5t29yT+gV2Jc0T6fhJXTuwA+bdvck/oFdiXNE+n4SV07sAPm3b3JP6BXYlzRPp+EldO7AD5t29yT+gV2Jc0T6fhJXTuwA+bdvck/oFdiXNE+n4SV07sAPm3b3JP6BXYlzRPp+EldO7AD5t29yT+gV2Jc0T6fhJXTuwA+bdvck/oFdiXNE+n4SV07sAPm3b3JP6BXYlzRPp+EldO7AD5t29yT+gVymkpKPGbqtj8RbCbIYdqOVh2o5WHajlYdqOVh2o5WHajlYdqOVh2o5WHajlYdqOVh2o5WHajlYdqOVh2o5WHajlYdqOVh2o5WHajlYdqOVh2o5WHajlYdqOVh2o5WHajlYdqOVh2o5WHajlYdqOVh2o5WHajlYV1ZRxhgBV0PgLaA3YAfNu3uSf0C3HgB827e5J/QK6YbZenXCAHHEVRH4RUuXZFqKbwOxaim8DsWopvA7FqKbwOxaim8DsWopvA7FqKbwOxaim8DsWopvA7FqKbwOxaim8DsWopvA7FqKbwOxaim8DsWopvA7FqKbwOxaim8DsWopvA7FqKbwOxaim8DsWopvA7FqKbwOxaim8DsWopvA7FqKbwOxaim8DsWopvA7FqKbwOxaim8DsWopvA7E2zMPNNtmrjSKgqjibeu7AD5t29yT+gV2Jc0T6fhJXTuwA+bdvck/oFdiXNE/nTzMpLN/bdeNABP3KHKhP9pyrHJ/u8TcDU5H+++wKh/uyZxUmJyWL/yMmhJ+i9nzsJK6d2AHzbt7kn9ArsS5on80/wDtMD9RtF+s64XILY/msTa/Qoa/w0oCr9CwHYPuvniZcFU+kb523hT7hj1pGxt5PqTUvt5WXfm4SV07sAPm3b3JP6BXYlzRP5rmxiQY+ndHtef9BumGqfS0NQSadBTVwh/DCJ5uqU5rkfdbbVpxr8yDaVzipK1dk2iHsdaRTBfm4SV07sAPm3b9pyjzwj+pMldjfg8QCD5qchsyahlwuINjEqjD4p1PhyHCh/CpTnwIS++pgoiH7qt32knxL9hRVX5vO0xKgXhIt3dwLxbt+y62QF+hJshFRyUmnmDRepWiUY5XJOZafFO1WyQocQ2JlkHmyTrA02p8xra2gfwc6ukV1Wclkd2K41sQ2j/UCisG8wBfEEuAo20hdvwjc0qStObJlgu1972h8wkQURVVV6kTrWC2hNzjpt/+tOQP+IHaRkginaqx/VJGXY8MEHdzeyVq7aTQL/iczlz38/pQ7WO1yVL2fMlgflJptWnmy5iEol3alRVJSB1tPjdYHseRPNfLHIUfbtcnXh2fEPYyn3liX+ilJUPhFOsl6zLtJfmP7KnVxJhrtBnmcO5vbLSTiT0x/kYVCTiLd7Xx1SQVZmS7T/tt/ukCqEiqiovVsh/6OalTQh7CTrEu0Vg0bmgREm5Mi2uMn7V6i+bZanzDpc7isihr+4xZOnNODzH9AJkn7lCbE7PmTKCKJsZYT+kfc6gBIP67n1Wmk+yy0P2WxuZUKlWEF1RLnaYH7Abwldsi+W2osAn9A5+L/kK6fOWmmuYh5iTrEx5iGASlz346bSlnPZE8xMsGiKLjLguCqL2KO3o800wyCKpOOmgCiJ2qWyNlYqHa2uyWD9T9sTxPuryNgnI20HUAD1JdLbKJJubWwNOSbd9iRyIibwaFxsxUTA0QhJFTYqKi9SxLE/Jcpv04eVxn82u0IRUJF2Ki9V1Um5Nz+3LPG0X+4KkWzn1T/EJHPOixbGc4W/bFsZzhb9sWxnOFv2xbGc4W/bFsZzhb9sWxnOFv2xbGc4W/bFsZzhb9sWxnOFv2xbGc4W/bFsZzhb9sWxnOFv2xbGc4W/bFsZzhb9sWxnOFv2xbGc4W/bFsZzhb9sWxnOFv2xbGc4W/bFsZzhb9sWzntnaCiHliszs6XbMvm751W9lySo/ITbH2X5r2BEs2xLMALbTTYoIAIps2Iibzl1kKmX9cldgqRdro8xxLtViV6jlV2O+GcU2ZlHP7L7RNr/8Aro8i/MuqvIDLZOFy/kMU8aVKrzuzpbC8NNpQC1WpDyo/MinwNl2tt73bEwXnE0Qk/dFizVMIu1ZVv2xZal5Vv0iy1LyrfpFlqXlW/SLLUvKt+kWWpeVb9IstS8q36RZal5Vv0iy1LyrfpFlqXlW/SLLUvKt+kWWpeVb9IstS8q36RZal5Vv0iy1LyrfpFlqXlW/SLLUvKt+kWWpeVb9IstS8q36RZal5Vv0iy1LyrfpFmaWhf/K17YYBptOYAFBH9tn+nb//2Q==;" vertex="1" parent="1">
          <mxGeometry x="340" y="290" width="40" height="40" as="geometry" />
        </mxCell>
        <mxCell id="D13HqMTGhr0uNa7FewxC-23" value="" style="shape=image;verticalLabelPosition=bottom;labelBackgroundColor=default;verticalAlign=top;aspect=fixed;imageAspect=0;image=data:image/jpeg,/9j/4AAQSkZJRgABAQAAAQABAAD//gA8Q1JFQVRPUjogZ2QtanBlZyB2MS4wICh1c2luZyBJSkcgSlBFRyB2NjIpLCBxdWFsaXR5ID0gMTAwCv/bAEMABQUFBQUFBQYGBQgIBwgICwoJCQoLEQwNDA0MERoQExAQExAaFxsWFRYbFykgHBwgKS8nJScvOTMzOUdER11dff/CAAsIAoACgAEBIQD/xAAdAAEBAQEBAAMBAQAAAAAAAAAACQcGCAMEBQIB/9oACAEBAAAAAPXYAAAAAAAAAAAAAAAAAAAAAAAAAAAAAAAAAAAAAAAAAAAAAAAAAAAAAAAAAAAAAAAAAAAAAAAAAAAAAAAAAAAAAAAAAAAAAAAAAAAAAAAAAAAAAAAAAAAAAAAAAAAAAAAAAAAAAAAAA/E814px3wAAAPl6vaPS/RgAAAAAAAHn/wAK/ggAAAP1vbXpgAAAAAAADzh4LejvTmi/YAAAfDwPmvzH8Ptj1cAAAAAAAHFS9+t799BgAAAMVnj9emWnAAAAAAADwp5i9e+ywB5s8ifyHqL1cAPKviHfKGAAAAAAAH8yc/FrH+4APIHjf/A9Ue4AB9STf062/eAAAAAAAfgSW0WoYAPpf4P9+6ACbuM1I0AAAAAAABykotVpmAAAACdWGU+0oAAAAAABykotVpmAAAACdWGU+0oAAAAAABykou99sgAAAA8d5bT7SgAAAAAAHKSiAAAAAFP9JAAAAAAAcpKLpd/AAAABhnHU/wBJAAAAAAAcpKLVaZgAAAAnVhlP9JAAAAAAAcpKLVaZgAAAAnVhlP8ASQAAAAAAHKSi1WmYAAAAJ1YZT/SQAAAAAAHKSi1WmYAAAAJ1YZT/AEkAAAAAABykotVpmAAAACdWGU/0kAAAAAABykotVpmAAAACdWGU/wBJAAAAAAAcpKLVaZgAAAAnVhlP9JAAAAAAAcpKLVaZgAAAAnVhlP8ASQAAAAAAHKSi1WmYAAAAJ1YZT/SQAAAAAAHKSi1WmYAAAAJ1YZT/AEkAAAAAABykotVpmAAAACdWGU/0kAAAAAABykotVpmAAAACdWGU/wBJAAAAAAAcpKLVaZgAAAAnVhlP9JAAAAAAAcpKLVaZgAAAAnVhlP8ASQAAAAAAHKSi1WmYAAAAJ1YZT/SQAAAAAAHKSi1WmYAAAAJ1YZT/AEkAAAAAABykotVpmAAAACdWGU/0kAAAAAABykotVpmAAAACdWGU/wBJAAAAAAAcpKLVaZgAAAAnVhlP9JAAAAAAAcpKLVaZgAAAAnVhlP8ASQAAAAAAHKSi1WmYAAAAJ1YZT/SQAAAAAAHKSi1WmYAAAAJ1YZT/AEkAAAAAABykotVpmAAAACdWGU/0kAAAAAABykotVpmAAAACdWGU/wBJAAAAAAAcpKLVaZgAAAAnVhlP9JAAAAAAAcpKLVaZgAAAAnVhlP8ASQAAAAAAHKSi1WmYAAAAJ1YZT/SQAAAAAAHKSi1WmYAAAAJ1YZT/AEkAAAAAABykotVpmAAAACdWGU/0kAAAAAABykotVpmAAAACdWGU/wBJAAAAAAAcpKLVaZgAAAAnVhlP9JAAAAAAAcpKLVaZgAAAAnVhlP8ASQAAAAAAHKSi1WmYAAAAJ1YZT/SQAAAAAAHKSi1WmYAAAAJ1YZT/AEkAAAAAABykou79ngAAAA8iZhT/AEkAAAAAABykogAAAABT/SQAAAAAAHKSi6b0CAAAADCuNp/pIAAAAAADlJRarTMAAAAE6sMp/pIAAAAAADlJRarTMAD6GJfDtv6oAE6sMp/pIAAAAAADlJRarTMAHMTY4V1VJO6ABOrDKf6SAAAAAAA5SUWq0zAB4d8s7P8AoYR6FoGACdWGU/0kAAAAAABzUnNOp0ACcmJU36GU+lU+ABOXEah6KAAAAAAA+GR/9Vq+0AHjvx32X2eE9Re5gA/yUnMVp/aAAAAAAAJ4YN7y9LAB9Cf2Ef5sVC/2wAwqdmsUwAAAAAAAGQTZ/bpZ3wAOP+LtQAcnNHkaE7+AAAAAAAHiPyn+97T9F/cAAAH18B8T8r6M9+AAAAAAAA/jxN5W/j9Pt/mAAAfHxf4/++kvdn2QAAAAAAAGReT8X/MAAAH3ti9VbcAAAAAAAAD+PwPjAAAf3+98oAAAAAAAAAAAAAAAAAAAAAAAAAAAAAAAAAAAAAAAAAAAAAAAAAAAAAAAAAAAAAAAAAAAAAAAAAAAAAAAAAAAAAAAAAAAAAAAAAAAAAAAAAAAAAAAAAAAAAAAAAAAA//EAC0QAAECBAUEAwACAwEBAAAAAAYFBwACAwQIEBg3UAEXNkAVFjAREhMUMZAg/9oACAEBAAEIAP8A06XiNCGLKa+WSjFGlW01SgNK2IJzVOaf/FWdBxLjr/NTuQfx3IP47kH8dyD+O5B/Hcg/juQfx3IP47kH8dyD+O5B/Hcg/juQfx3IP47kH8dyD+O5B/Hcg/juQfx3IP4pOa4VGb+0iU/rnpk0n8jGKW2qzUqJMNlw4XWnS7Q+TdZ80wK610hGICVdKVCooLXtJC0qoF9RUEpqX+syWegilHIvm73URtph5DqVJ6tSepUp056s8klMEw5EZDToXxCgMi26BJJ/S3Q0S0l6SW3xyfHxyfHxyfHxyfHxyfHxyfHxyfHxyfHxyfHxyfHxyfHxyfHxyfHxyfHxyfHxyfHxyfHxyfHxyfHxyfFZFR7mTrJXXWabdfkn/wA5xhpWkmnWvRa4t69nXrW9x0/npDCvFUVv8AkRce4RjagoqpLVdUUr1ZULxRvre3rXdejb27PsrYB1rbLC57Trs+lH9lVvLJSTb1Iv7tPv7e4rWlejcW7SnlM/EbS+qcdiZLZ1ImsRyhGGtvKdxPWM1H8n5dlUC/8ASQkGZzHEnm6zde5bhx3LcOO5bhx3LcOOjluHDDPAtEipMMEX5YkW8p36ZKY2EYeCyceO6CbV42eeWnJPPMWq86+TkCrPa21a9ube1oDKHbDKAkI1t+WJQAWL+9sCpN/5/wDWHACWZyOQsu/yv7G1U7G8sbsgSKyAuKyTXTr2sm39jfUEu9pqSan31PjCy6mshUlu5YaaykUXIDref8/+/wAxMmp003XrN8Wmx8Wmx8Wmx8Wmx0TE7p16denTp06dP46fm/tlJZukQ9ZIaq5nu24DKs3GHng5nkyW6Yf7+IrdBTyZ7bIM4088HM8mS3TD/fxFboKeTPbZBnGnng5nk2S8nDJ2OrKnqLa+NRbXxqLa+NRbXxqLa+NRbXxqLa+NRbXxqLa+NRbXxqLa+NRbXxqLa+NRbXxqLa+NRbXxqLa+NRbXxqLa+NRbXxqLa+NRbXxqLa+NRbXxqLa+NRbXxqLa+NRbXxqLa+NRbXw8JQkGJxfLCPDPbYhnGnng5nwbPbZBnGnng5nkIjlyXEaWg22lcpjSwUxpXKY0rlMaVymNK5TGlgpjSuUxpXKY0rlMaVymNLBTGlcpjSuUxpXKY0rlMaWCmNK5TGlcpjSuUxpXKY0sFMaVymNK5TGlcpjSuUxpYKY0rlMaVymNK5TByHXgIQ10O8hntsgzjTzwczyZLdMP9/EVugp5M9tkGcaeeDmeTJbph/v4it0FPJntsgzjTzwczyZLdMP9/EVugp5M9tkGcaeeDmeTJbph/v4it0FPJntsgzjTzwczyZLdMP8AfxFboKeTPbZBnGnng5nkyW6Yf7+IrdBTyZ7bIM4088HM8mS3TD/fxFboKeTPbZBnGnng5nkyW6Yf7+IrdBTyZ7bIM4088HM8mS3TD/fxFboKeTPbZBnGnng5nkyW6Yf7+IrdBTyZ7bIM4088HM8mS3TD/fxFboKeTPbZBnGnng5nkyW6Yf7+IrdBTyZ7bIM4088HM8mS3TD/AH8RW6Cnkz22QZxp54OZ5MlumH+/iK3QU8me2yDONPPBzPJkt0w/38RW6Cnkz22QZxp54OZ5MlumH+/iK3QU8me2yDONPPBzPJkt0w/38RW6Cnkz22QZxp54OZ5MlumH+/iK3QU8me2yDONPPBzPJkt0w/38RW6Cnkz22QZxp54OZ5MlumH+/iK3QU8me2yDONPPBzPJkt0w/wB/EVugp5M9tkGcaeeDmeTJbph/v4it0FPJntsgzjTzwczyZLdMP9/EVugp5M9tkGcaeeDmeTJbph/v4it0FPJntsgzjTzwczyZLdMP9/EVugp5M9tkGcaeeDmeTJbph/v4it0FPJntsgzjTzwczyZLdMP9/EVugp5M9tkGcaeeDmeTJbph/v4it0FPJntsgzjTzwczyZLdMP8AfxFboKeTPbZBnGnng5nkyW6Yf7+IrdBTyZ7bIM4088HM8mS3TD/fxFboKeTPbZBnGnng5nkyW6Yf7+IrdBTyZ7bIM4088HM8mS3TD/fxFboKeTPbZBnGnng5nkyW6Yf7+IrdBTyZ7bIM4088HM8m1X08WOB9aUtSbaRqTbSNSbaRqTbSNSbaRqTbSNSbaRqTbSNSbaRqTbSNSbaRqTbSNSbaRqTbSNSbaRqTbSNSbaRqTbSNSbaRqTbSNSbaRqTbSNSbaRqTbSNSbaRqTbSNSbaRqTbSNSbaRqTbSHeK0kzNr1ZSYZ7bIM4088HM+DZ7bIM4088HM8hAbuC8jS0G20qk0aVSaNKpNGlUmjSqTRpVJo0qk0aVSaNKpNGlUmjSqTRpVJo0qk0aVSaNKpNGlUmjSqTRpVJo0qk0aVSaNKpNGlUmjSqTRpVJo0qk0aVSaNKpNGlUmjSqTRpVJoOw67BCK4Q7uGe2yDONPPBzPJkt0w/38RW6Cnkz22QZxp54OZ5MlumH/spqqai2dW9UlXEi2ybV60qKbiWbm+qy066Muo5DZSXyR+uIrdBTyZ7bIM4088HM8mS3TD/1MSxLCh++W1I6PyE+Val6q5CZivhapSUkVvDpOcAct1a0/TEVugp5M9tkGcaeeDmeTJbph/64oCatdkSSO04bdliJw7edRkcRhiIETp1ajGG8mrI53KkzfpiK3QU8me2yDONNaU1cNLKMkM1XktnPDZ5/0xCSTyuqQdZoZi+Tb5tBX/QcC/TU4JKLhThn6daq5gb0pfpiFryVnRWpZIaOnNSbQMln4y5oS3NtcUJ1ewqJSqpp9VFU6qMrpinRsb23UrK0vrX88UIfW6zpBbbQKHhWE1qtVCLXIMTfpTkXIwyh9a/Irwor/nNNLJLNNMcLvQmLyJYlp0561SSlINpvRHHkJN47EMLzIB/dX0kYbzumtDkwvd/mqpdgtJ14mqDlsaRBlzcXqXk3bNFB3c0K046PJYqjWKOlfm/h3IJh9dOtoZYXnKXCQ6XXjnrBOpyG3ElpNLNJNNLMNkSoKLVispbeuEiuEiyX1j+is34Qu1Z6ykmNuBo9WWrY9OnSXp06dPzMzRDBkWuqqxqYKpyQXi0pRh9AZxQW6q19x7/tLOmXVwXocDxGtCqnQVEYExIDqxToWhPYqKeqUKdzYetdXdpY0Z690cYiRMekrWyEVmJAaqlRSW4YppqxYpUSBY6dOkvTp06cfVo0q9KpSrOywF2mT3K2HzSzSTdZZoTllWSKvSqm0Hgc23k/pJ3odCO9DoR3odCO9DoR3odCO9DoR3odCO9DoR3odCO9DoR3odCO9DoR3odCO9DoR3odCO9DoR3odCO9DoR3odCO9DoRWeJzq0nWSdUX11bn/uqR/wBhqmFUyepbK5LZ2don2tvaWfJHjLBpz1q3VQow7nyDPUnT1FHVUer/AIVH1rFNUFOt0o2IywDhkE9Oe5BGHDw2eleXHLVKVKtJNJVqiApXm6z1fpYfH0sPj6WHx9LD4+lh8fSw+PpYfH0sPj6WHx9LD4+lh8fSw+PpYfH0sPj6WHx9LD4+lh8fSw+PpYfH0sPiQPEqU3SeShb0Lan0p0P/ADs//8QARxAAAQIDBQMKAggBCwUBAAAAAgEDAAQFBhBUlLMRUJIhMUBBUVWTstHSEjATIjJCU2FxgRQVJDNEUmJjcpCRoSAjQ3N0ov/aAAgBAQAJPwD/AFOqoxJsdROlsUtnUKc5LFDcm1xM2v0TfAMVhqRBfuSrAD50JYtnVcyQxbGrZo4tjVs0cWxq2aOLY1bNHFsatmji2NWzRxbGrZo4tjVs0cWxq2aOLY1bNHFsatmji2NWzRxbGrZo4tjVs0cWxq2aOLY1bNHFsatmji2NWzRxbGrZo4tjVs0cWzq2ZNYr6TgJ9yaZA/QooCs9szI/XTwzirMTbafbEC+uG3qMV2KO9Ebnq3zH1syv+ftOKk7NzJ/eNeQU7AFOQU6XUHpSaaXaDrRfCv79qQrUpVC2AzN/YZmPYe8n0/lmYb2vPYRv3rBkZkqqREu1VVetVWAUzJUQRFNqqq9SQ+tIkj5UZ+BDmT9kWdanHk53p3a+vCX1Yo8kyPULbAAn/CJEhL+GMSEv4YxIS/hjEhL+GMSEv4YxIS/hjEhL+GMSEv4YxIS/hjEhL+GMSEv4YxIS/hjEhL+GMSEv4YxIS/hjEhL+GMSEv4YxIS/hjEhL+GMSEv4YxSZN0OsTYAk/5RYszLS7hczsmn8MSeHE6tTYHlWTdRAmB98MG080Sg42YqJCSc6Ki3TSlOCGynzbhcryfgn2nvDYTrYoEs1+I8fIIw+T01Muk664XKpEUNE686aA22CbSIi5ERIYbma84KEglsMJP8g7T7S6W23K15odrMxzI/8A3HoljYmpZwm3mj5CEhh0m3mjQ2zBdhCQ8qKiwYpUZbYxPAn4o/f/AEPd7v8ANqWyjjydr73tG5jaLREzTR873y3EaqM0yrz0zzqy1zCgRbitZ11ItxW8876xbit5531i3FbzzvrFuK3nnfWLb1rOu+sTKTT5Mk5JTa8jhfR8pAfy2Nk1JoLc+n4jHU5+oXObJOsiksaf43O1u5dgiiqv7csFtWcn33k/ISNVFP2SAU3n3BbbHtI12IkIn0UlLNtIvaqfaL91+XKOTLDcskvOA2KkbSByi5/1yjkvISjLoSxOCoq+48Kh9T5baOS8yybToL1iabFjlckpp1gl7foy2bYJReln23m17CbJCSOUJqWafD9HBQt2rsJilzjqL+YNEtybR/lAHPC2ufNkJdVVedWhiny3hDFPlvCGKfLeEMU+W8IYp8si7fwhjkT5nM+Mu9xNDd3YyHB9Xdvck/oFdiXNE+n4SV07sAPm3b3JP6BXYlzRPp+EldO7AD5t29yT+gVzhBJyjxm6QipKiK2QxU5vKnFTm8qcVObypxU5vKnFTm8qcVObypxU5vKnFTm8qcVObypxU5vKnFTm8qcVObypxU5vKnFTm8qcVObypxU5vKnFTm8qcVObypxU5vKnFTm8qcVObypxU5vKnFTm8qcVObypxU5vKnFTm8qcVObypxU5vKnFTm8qcVObypw6bkm4wwAkYKC7QG7AD5t29yT+gW48APm3b3JP6BXPtsvTrhADjm1RH4RUuXZFpKbwuRaSm8LkWkpvC5FpKbwuRaSm8LkWkpvC5FpKbwuRaSm8LkWkpvC5FpKbwuRaSm8LkWkpvC5FpKbwuRaSm8LkWkpvC5FpKbwuRaSm8LkWkpvC5FpKbwuRaSm8LkWkpvC5FpKbwuRaSm8LkWkpvC5FpKbwuRaSm8LkWkpvC5FpKbwuRaSm8LkWkpvC5E2zMPNNtmrjW1B2OJt67sAPm3b3JP6BXYlzRPp+EldO7AD5t29yT+gV2Jc0T6fhJXTuwA+bdvck/oFdiXNE+n4SV07sAPm3b3JP6BXYlzRPp+EldO7AD5t29yT+gV2Jc0T6fhJXTuwA+bdvck/oFdiXNE+n4SV07sAPm3b3JP6BXYlzRPp+EldO7AD5t29yT+gV2Jc0T6fhJXTuwA+bdvck/oFdiXNE+n4SV07sAPm3b3JP6BXYlzRPp+EldO7AD5t29yT+gV2Jc0T6fhJXTuwA+bdvck/oFdiXNE+n4SV07sAPm3b3JP6BXYlzRPp+EldO7AD5t29yT+gV2Jc0T6fhJXTuwA+bdvck/oFdiXNE+n4SV07sAPm3b3JP6BXYlzRPp+EldO7AD5t29yT+gV2Jc0T6fhJXTuwA+bdvck/oFdiXNE+n4SV07sAPm3b3JP6BXYlzRPp+EldO7AD5t29yT+gV2Jc0T6fhJXTuwA+bdvck/oFdiXNE+n4SV07sAPm3b3JP6BXYlzRPp+EldO7AD5t29yT+gV2Jc0T6fhJXTuwA+bdvck/oFdiXNE+n4SV07sAPm3b3JP6BXYlzRPp+EldO7AD5t29yT+gV2Jc0T6fhJXTuwA+bdvck/oFdiXNE+n4SV07sAPm3b3JP6BXYlzRPp+EldO7AD5t29yT+gV2Jc0T6fhJXTuwA+bdvck/oFdiXNE+n4SV07sAPm3b3JP6BXYlzRPp+EldO7AD5t29yT+gV2Jc0T6fhJXTuwA+bdvck/oFdiXNE+n4SV07sAPm3b3JP6BXYlzRPp+EldO7AD5t29yT+gVymkpKPGbqtj8RbCbIYdqOVh2o5WHajlYdqOVh2o5WHajlYdqOVh2o5WHajlYdqOVh2o5WHajlYdqOVh2o5WHajlYdqOVh2o5WHajlYdqOVh2o5WHajlYdqOVh2o5WHajlYdqOVh2o5WHajlYdqOVh2o5WHajlYV1ZRxhgBV0PgLaA3YAfNu3uSf0C3HgB827e5J/QK6YbZenXCAHHEVRH4RUuXZFqKbwOxaim8DsWopvA7FqKbwOxaim8DsWopvA7FqKbwOxaim8DsWopvA7FqKbwOxaim8DsWopvA7FqKbwOxaim8DsWopvA7FqKbwOxaim8DsWopvA7FqKbwOxaim8DsWopvA7FqKbwOxaim8DsWopvA7FqKbwOxaim8DsWopvA7FqKbwOxaim8DsWopvA7E2zMPNNtmrjSKgqjibeu7AD5t29yT+gV2Jc0T6fhJXTuwA+bdvck/oFdiXNE/nTzMpLN/bdeNABP3KHKhP9pyrHJ/u8TcDU5H+++wKh/uyZxUmJyWL/yMmhJ+i9nzsJK6d2AHzbt7kn9ArsS5on80/wDtMD9RtF+s64XILY/msTa/Qoa/w0oCr9CwHYPuvniZcFU+kb523hT7hj1pGxt5PqTUvt5WXfm4SV07sAPm3b3JP6BXYlzRP5rmxiQY+ndHtef9BumGqfS0NQSadBTVwh/DCJ5uqU5rkfdbbVpxr8yDaVzipK1dk2iHsdaRTBfm4SV07sAPm3b9pyjzwj+pMldjfg8QCD5qchsyahlwuINjEqjD4p1PhyHCh/CpTnwIS++pgoiH7qt32knxL9hRVX5vO0xKgXhIt3dwLxbt+y62QF+hJshFRyUmnmDRepWiUY5XJOZafFO1WyQocQ2JlkHmyTrA02p8xra2gfwc6ukV1Wclkd2K41sQ2j/UCisG8wBfEEuAo20hdvwjc0qStObJlgu1972h8wkQURVVV6kTrWC2hNzjpt/+tOQP+IHaRkginaqx/VJGXY8MEHdzeyVq7aTQL/iczlz38/pQ7WO1yVL2fMlgflJptWnmy5iEol3alRVJSB1tPjdYHseRPNfLHIUfbtcnXh2fEPYyn3liX+ilJUPhFOsl6zLtJfmP7KnVxJhrtBnmcO5vbLSTiT0x/kYVCTiLd7Xx1SQVZmS7T/tt/ukCqEiqiovVsh/6OalTQh7CTrEu0Vg0bmgREm5Mi2uMn7V6i+bZanzDpc7isihr+4xZOnNODzH9AJkn7lCbE7PmTKCKJsZYT+kfc6gBIP67n1Wmk+yy0P2WxuZUKlWEF1RLnaYH7Abwldsi+W2osAn9A5+L/kK6fOWmmuYh5iTrEx5iGASlz346bSlnPZE8xMsGiKLjLguCqL2KO3o800wyCKpOOmgCiJ2qWyNlYqHa2uyWD9T9sTxPuryNgnI20HUAD1JdLbKJJubWwNOSbd9iRyIibwaFxsxUTA0QhJFTYqKi9SxLE/Jcpv04eVxn82u0IRUJF2Ki9V1Um5Nz+3LPG0X+4KkWzn1T/EJHPOixbGc4W/bFsZzhb9sWxnOFv2xbGc4W/bFsZzhb9sWxnOFv2xbGc4W/bFsZzhb9sWxnOFv2xbGc4W/bFsZzhb9sWxnOFv2xbGc4W/bFsZzhb9sWxnOFv2xbGc4W/bFsZzhb9sWxnOFv2xbGc4W/bFsZzhb9sWzntnaCiHliszs6XbMvm751W9lySo/ITbH2X5r2BEs2xLMALbTTYoIAIps2Iibzl1kKmX9cldgqRdro8xxLtViV6jlV2O+GcU2ZlHP7L7RNr/8Aro8i/MuqvIDLZOFy/kMU8aVKrzuzpbC8NNpQC1WpDyo/MinwNl2tt73bEwXnE0Qk/dFizVMIu1ZVv2xZal5Vv0iy1LyrfpFlqXlW/SLLUvKt+kWWpeVb9IstS8q36RZal5Vv0iy1LyrfpFlqXlW/SLLUvKt+kWWpeVb9IstS8q36RZal5Vv0iy1LyrfpFlqXlW/SLLUvKt+kWWpeVb9IstS8q36RZal5Vv0iy1LyrfpFmaWhf/K17YYBptOYAFBH9tn+nb//2Q==;" vertex="1" parent="1">
          <mxGeometry x="560" y="290" width="40" height="40" as="geometry" />
        </mxCell>
        <mxCell id="D13HqMTGhr0uNa7FewxC-24" value="" style="shape=image;verticalLabelPosition=bottom;labelBackgroundColor=default;verticalAlign=top;aspect=fixed;imageAspect=0;image=data:image/jpeg,/9j/4AAQSkZJRgABAQAAAQABAAD//gA8Q1JFQVRPUjogZ2QtanBlZyB2MS4wICh1c2luZyBJSkcgSlBFRyB2NjIpLCBxdWFsaXR5ID0gMTAwCv/bAEMABQUFBQUFBQYGBQgIBwgICwoJCQoLEQwNDA0MERoQExAQExAaFxsWFRYbFykgHBwgKS8nJScvOTMzOUdER11dff/CAAsIAoACgAEBIQD/xAAdAAEBAQEBAAMBAQAAAAAAAAAACQcGCAMEBQIB/9oACAEBAAAAAPXYAAAAAAAAAAAAAAAAAAAAAAAAAAAAAAAAAAAAAAAAAAAAAAAAAAAAAAAAAAAAAAAAAAAAAAAAAAAAAAAAAAAAAAAAAAAAAAAAAAAAAAAAAAAAAAAAAAAAAAAAAAAAAAAAAAAAAAAAA/E814px3wAAAPl6vaPS/RgAAAAAAAHn/wAK/ggAAAP1vbXpgAAAAAAADzh4LejvTmi/YAAAfDwPmvzH8Ptj1cAAAAAAAHFS9+t799BgAAAMVnj9emWnAAAAAAADwp5i9e+ywB5s8ifyHqL1cAPKviHfKGAAAAAAAH8yc/FrH+4APIHjf/A9Ue4AB9STf062/eAAAAAAAfgSW0WoYAPpf4P9+6ACbuM1I0AAAAAAABykotVpmAAAACdWGU+0oAAAAAABykotVpmAAAACdWGU+0oAAAAAABykou99sgAAAA8d5bT7SgAAAAAAHKSiAAAAAFP9JAAAAAAAcpKLpd/AAAABhnHU/wBJAAAAAAAcpKLVaZgAAAAnVhlP9JAAAAAAAcpKLVaZgAAAAnVhlP8ASQAAAAAAHKSi1WmYAAAAJ1YZT/SQAAAAAAHKSi1WmYAAAAJ1YZT/AEkAAAAAABykotVpmAAAACdWGU/0kAAAAAABykotVpmAAAACdWGU/wBJAAAAAAAcpKLVaZgAAAAnVhlP9JAAAAAAAcpKLVaZgAAAAnVhlP8ASQAAAAAAHKSi1WmYAAAAJ1YZT/SQAAAAAAHKSi1WmYAAAAJ1YZT/AEkAAAAAABykotVpmAAAACdWGU/0kAAAAAABykotVpmAAAACdWGU/wBJAAAAAAAcpKLVaZgAAAAnVhlP9JAAAAAAAcpKLVaZgAAAAnVhlP8ASQAAAAAAHKSi1WmYAAAAJ1YZT/SQAAAAAAHKSi1WmYAAAAJ1YZT/AEkAAAAAABykotVpmAAAACdWGU/0kAAAAAABykotVpmAAAACdWGU/wBJAAAAAAAcpKLVaZgAAAAnVhlP9JAAAAAAAcpKLVaZgAAAAnVhlP8ASQAAAAAAHKSi1WmYAAAAJ1YZT/SQAAAAAAHKSi1WmYAAAAJ1YZT/AEkAAAAAABykotVpmAAAACdWGU/0kAAAAAABykotVpmAAAACdWGU/wBJAAAAAAAcpKLVaZgAAAAnVhlP9JAAAAAAAcpKLVaZgAAAAnVhlP8ASQAAAAAAHKSi1WmYAAAAJ1YZT/SQAAAAAAHKSi1WmYAAAAJ1YZT/AEkAAAAAABykotVpmAAAACdWGU/0kAAAAAABykotVpmAAAACdWGU/wBJAAAAAAAcpKLVaZgAAAAnVhlP9JAAAAAAAcpKLVaZgAAAAnVhlP8ASQAAAAAAHKSi1WmYAAAAJ1YZT/SQAAAAAAHKSi1WmYAAAAJ1YZT/AEkAAAAAABykou79ngAAAA8iZhT/AEkAAAAAABykogAAAABT/SQAAAAAAHKSi6b0CAAAADCuNp/pIAAAAAADlJRarTMAAAAE6sMp/pIAAAAAADlJRarTMAD6GJfDtv6oAE6sMp/pIAAAAAADlJRarTMAHMTY4V1VJO6ABOrDKf6SAAAAAAA5SUWq0zAB4d8s7P8AoYR6FoGACdWGU/0kAAAAAABzUnNOp0ACcmJU36GU+lU+ABOXEah6KAAAAAAA+GR/9Vq+0AHjvx32X2eE9Re5gA/yUnMVp/aAAAAAAAJ4YN7y9LAB9Cf2Ef5sVC/2wAwqdmsUwAAAAAAAGQTZ/bpZ3wAOP+LtQAcnNHkaE7+AAAAAAAHiPyn+97T9F/cAAAH18B8T8r6M9+AAAAAAAA/jxN5W/j9Pt/mAAAfHxf4/++kvdn2QAAAAAAAGReT8X/MAAAH3ti9VbcAAAAAAAAD+PwPjAAAf3+98oAAAAAAAAAAAAAAAAAAAAAAAAAAAAAAAAAAAAAAAAAAAAAAAAAAAAAAAAAAAAAAAAAAAAAAAAAAAAAAAAAAAAAAAAAAAAAAAAAAAAAAAAAAAAAAAAAAAAAAAAAAAA//EAC0QAAECBAUEAwACAwEBAAAAAAYFBwACAwQIEBg3UAEXNkAVFjAREhMUMZAg/9oACAEBAAEIAP8A06XiNCGLKa+WSjFGlW01SgNK2IJzVOaf/FWdBxLjr/NTuQfx3IP47kH8dyD+O5B/Hcg/juQfx3IP47kH8dyD+O5B/Hcg/juQfx3IP47kH8dyD+O5B/Hcg/juQfx3IP4pOa4VGb+0iU/rnpk0n8jGKW2qzUqJMNlw4XWnS7Q+TdZ80wK610hGICVdKVCooLXtJC0qoF9RUEpqX+syWegilHIvm73URtph5DqVJ6tSepUp056s8klMEw5EZDToXxCgMi26BJJ/S3Q0S0l6SW3xyfHxyfHxyfHxyfHxyfHxyfHxyfHxyfHxyfHxyfHxyfHxyfHxyfHxyfHxyfHxyfHxyfHxyfHxyfHxyfFZFR7mTrJXXWabdfkn/wA5xhpWkmnWvRa4t69nXrW9x0/npDCvFUVv8AkRce4RjagoqpLVdUUr1ZULxRvre3rXdejb27PsrYB1rbLC57Trs+lH9lVvLJSTb1Iv7tPv7e4rWlejcW7SnlM/EbS+qcdiZLZ1ImsRyhGGtvKdxPWM1H8n5dlUC/8ASQkGZzHEnm6zde5bhx3LcOO5bhx3LcOOjluHDDPAtEipMMEX5YkW8p36ZKY2EYeCyceO6CbV42eeWnJPPMWq86+TkCrPa21a9ube1oDKHbDKAkI1t+WJQAWL+9sCpN/5/wDWHACWZyOQsu/yv7G1U7G8sbsgSKyAuKyTXTr2sm39jfUEu9pqSan31PjCy6mshUlu5YaaykUXIDref8/+/wAxMmp003XrN8Wmx8Wmx8Wmx8Wmx0TE7p16denTp06dP46fm/tlJZukQ9ZIaq5nu24DKs3GHng5nkyW6Yf7+IrdBTyZ7bIM4088HM8mS3TD/fxFboKeTPbZBnGnng5nk2S8nDJ2OrKnqLa+NRbXxqLa+NRbXxqLa+NRbXxqLa+NRbXxqLa+NRbXxqLa+NRbXxqLa+NRbXxqLa+NRbXxqLa+NRbXxqLa+NRbXxqLa+NRbXxqLa+NRbXxqLa+NRbXxqLa+NRbXxqLa+NRbXw8JQkGJxfLCPDPbYhnGnng5nwbPbZBnGnng5nkIjlyXEaWg22lcpjSwUxpXKY0rlMaVymNK5TGlgpjSuUxpXKY0rlMaVymNLBTGlcpjSuUxpXKY0rlMaWCmNK5TGlcpjSuUxpXKY0sFMaVymNK5TGlcpjSuUxpYKY0rlMaVymNK5TByHXgIQ10O8hntsgzjTzwczyZLdMP9/EVugp5M9tkGcaeeDmeTJbph/v4it0FPJntsgzjTzwczyZLdMP9/EVugp5M9tkGcaeeDmeTJbph/v4it0FPJntsgzjTzwczyZLdMP8AfxFboKeTPbZBnGnng5nkyW6Yf7+IrdBTyZ7bIM4088HM8mS3TD/fxFboKeTPbZBnGnng5nkyW6Yf7+IrdBTyZ7bIM4088HM8mS3TD/fxFboKeTPbZBnGnng5nkyW6Yf7+IrdBTyZ7bIM4088HM8mS3TD/fxFboKeTPbZBnGnng5nkyW6Yf7+IrdBTyZ7bIM4088HM8mS3TD/AH8RW6Cnkz22QZxp54OZ5MlumH+/iK3QU8me2yDONPPBzPJkt0w/38RW6Cnkz22QZxp54OZ5MlumH+/iK3QU8me2yDONPPBzPJkt0w/38RW6Cnkz22QZxp54OZ5MlumH+/iK3QU8me2yDONPPBzPJkt0w/38RW6Cnkz22QZxp54OZ5MlumH+/iK3QU8me2yDONPPBzPJkt0w/wB/EVugp5M9tkGcaeeDmeTJbph/v4it0FPJntsgzjTzwczyZLdMP9/EVugp5M9tkGcaeeDmeTJbph/v4it0FPJntsgzjTzwczyZLdMP9/EVugp5M9tkGcaeeDmeTJbph/v4it0FPJntsgzjTzwczyZLdMP9/EVugp5M9tkGcaeeDmeTJbph/v4it0FPJntsgzjTzwczyZLdMP8AfxFboKeTPbZBnGnng5nkyW6Yf7+IrdBTyZ7bIM4088HM8mS3TD/fxFboKeTPbZBnGnng5nkyW6Yf7+IrdBTyZ7bIM4088HM8mS3TD/fxFboKeTPbZBnGnng5nkyW6Yf7+IrdBTyZ7bIM4088HM8m1X08WOB9aUtSbaRqTbSNSbaRqTbSNSbaRqTbSNSbaRqTbSNSbaRqTbSNSbaRqTbSNSbaRqTbSNSbaRqTbSNSbaRqTbSNSbaRqTbSNSbaRqTbSNSbaRqTbSNSbaRqTbSNSbaRqTbSNSbaRqTbSHeK0kzNr1ZSYZ7bIM4088HM+DZ7bIM4088HM8hAbuC8jS0G20qk0aVSaNKpNGlUmjSqTRpVJo0qk0aVSaNKpNGlUmjSqTRpVJo0qk0aVSaNKpNGlUmjSqTRpVJo0qk0aVSaNKpNGlUmjSqTRpVJo0qk0aVSaNKpNGlUmjSqTRpVJoOw67BCK4Q7uGe2yDONPPBzPJkt0w/38RW6Cnkz22QZxp54OZ5MlumH/spqqai2dW9UlXEi2ybV60qKbiWbm+qy066Muo5DZSXyR+uIrdBTyZ7bIM4088HM8mS3TD/1MSxLCh++W1I6PyE+Val6q5CZivhapSUkVvDpOcAct1a0/TEVugp5M9tkGcaeeDmeTJbph/64oCatdkSSO04bdliJw7edRkcRhiIETp1ajGG8mrI53KkzfpiK3QU8me2yDONNaU1cNLKMkM1XktnPDZ5/0xCSTyuqQdZoZi+Tb5tBX/QcC/TU4JKLhThn6daq5gb0pfpiFryVnRWpZIaOnNSbQMln4y5oS3NtcUJ1ewqJSqpp9VFU6qMrpinRsb23UrK0vrX88UIfW6zpBbbQKHhWE1qtVCLXIMTfpTkXIwyh9a/Irwor/nNNLJLNNMcLvQmLyJYlp0561SSlINpvRHHkJN47EMLzIB/dX0kYbzumtDkwvd/mqpdgtJ14mqDlsaRBlzcXqXk3bNFB3c0K046PJYqjWKOlfm/h3IJh9dOtoZYXnKXCQ6XXjnrBOpyG3ElpNLNJNNLMNkSoKLVispbeuEiuEiyX1j+is34Qu1Z6ykmNuBo9WWrY9OnSXp06dPzMzRDBkWuqqxqYKpyQXi0pRh9AZxQW6q19x7/tLOmXVwXocDxGtCqnQVEYExIDqxToWhPYqKeqUKdzYetdXdpY0Z690cYiRMekrWyEVmJAaqlRSW4YppqxYpUSBY6dOkvTp06cfVo0q9KpSrOywF2mT3K2HzSzSTdZZoTllWSKvSqm0Hgc23k/pJ3odCO9DoR3odCO9DoR3odCO9DoR3odCO9DoR3odCO9DoR3odCO9DoR3odCO9DoR3odCO9DoR3odCO9DoR3odCO9DoRWeJzq0nWSdUX11bn/uqR/wBhqmFUyepbK5LZ2don2tvaWfJHjLBpz1q3VQow7nyDPUnT1FHVUer/AIVH1rFNUFOt0o2IywDhkE9Oe5BGHDw2eleXHLVKVKtJNJVqiApXm6z1fpYfH0sPj6WHx9LD4+lh8fSw+PpYfH0sPj6WHx9LD4+lh8fSw+PpYfH0sPj6WHx9LD4+lh8fSw+PpYfH0sPiQPEqU3SeShb0Lan0p0P/ADs//8QARxAAAQIDBQMKAggBCwUBAAAAAgEDAAQFBhBUlLMRUJIhMUBBUVWTstHSEjATIjJCU2FxgRQVJDNEUmJjcpCRoSAjQ3N0ov/aAAgBAQAJPwD/AFOqoxJsdROlsUtnUKc5LFDcm1xM2v0TfAMVhqRBfuSrAD50JYtnVcyQxbGrZo4tjVs0cWxq2aOLY1bNHFsatmji2NWzRxbGrZo4tjVs0cWxq2aOLY1bNHFsatmji2NWzRxbGrZo4tjVs0cWxq2aOLY1bNHFsatmji2NWzRxbGrZo4tjVs0cWzq2ZNYr6TgJ9yaZA/QooCs9szI/XTwzirMTbafbEC+uG3qMV2KO9Ebnq3zH1syv+ftOKk7NzJ/eNeQU7AFOQU6XUHpSaaXaDrRfCv79qQrUpVC2AzN/YZmPYe8n0/lmYb2vPYRv3rBkZkqqREu1VVetVWAUzJUQRFNqqq9SQ+tIkj5UZ+BDmT9kWdanHk53p3a+vCX1Yo8kyPULbAAn/CJEhL+GMSEv4YxIS/hjEhL+GMSEv4YxIS/hjEhL+GMSEv4YxIS/hjEhL+GMSEv4YxIS/hjEhL+GMSEv4YxIS/hjEhL+GMSEv4YxIS/hjEhL+GMSEv4YxSZN0OsTYAk/5RYszLS7hczsmn8MSeHE6tTYHlWTdRAmB98MG080Sg42YqJCSc6Ki3TSlOCGynzbhcryfgn2nvDYTrYoEs1+I8fIIw+T01Muk664XKpEUNE686aA22CbSIi5ERIYbma84KEglsMJP8g7T7S6W23K15odrMxzI/8A3HoljYmpZwm3mj5CEhh0m3mjQ2zBdhCQ8qKiwYpUZbYxPAn4o/f/AEPd7v8ANqWyjjydr73tG5jaLREzTR873y3EaqM0yrz0zzqy1zCgRbitZ11ItxW8876xbit5531i3FbzzvrFuK3nnfWLb1rOu+sTKTT5Mk5JTa8jhfR8pAfy2Nk1JoLc+n4jHU5+oXObJOsiksaf43O1u5dgiiqv7csFtWcn33k/ISNVFP2SAU3n3BbbHtI12IkIn0UlLNtIvaqfaL91+XKOTLDcskvOA2KkbSByi5/1yjkvISjLoSxOCoq+48Kh9T5baOS8yybToL1iabFjlckpp1gl7foy2bYJReln23m17CbJCSOUJqWafD9HBQt2rsJilzjqL+YNEtybR/lAHPC2ufNkJdVVedWhiny3hDFPlvCGKfLeEMU+W8IYp8si7fwhjkT5nM+Mu9xNDd3YyHB9Xdvck/oFdiXNE+n4SV07sAPm3b3JP6BXYlzRPp+EldO7AD5t29yT+gVzhBJyjxm6QipKiK2QxU5vKnFTm8qcVObypxU5vKnFTm8qcVObypxU5vKnFTm8qcVObypxU5vKnFTm8qcVObypxU5vKnFTm8qcVObypxU5vKnFTm8qcVObypxU5vKnFTm8qcVObypxU5vKnFTm8qcVObypxU5vKnFTm8qcVObypxU5vKnFTm8qcVObypw6bkm4wwAkYKC7QG7AD5t29yT+gW48APm3b3JP6BXPtsvTrhADjm1RH4RUuXZFpKbwuRaSm8LkWkpvC5FpKbwuRaSm8LkWkpvC5FpKbwuRaSm8LkWkpvC5FpKbwuRaSm8LkWkpvC5FpKbwuRaSm8LkWkpvC5FpKbwuRaSm8LkWkpvC5FpKbwuRaSm8LkWkpvC5FpKbwuRaSm8LkWkpvC5FpKbwuRaSm8LkWkpvC5FpKbwuRaSm8LkWkpvC5E2zMPNNtmrjW1B2OJt67sAPm3b3JP6BXYlzRPp+EldO7AD5t29yT+gV2Jc0T6fhJXTuwA+bdvck/oFdiXNE+n4SV07sAPm3b3JP6BXYlzRPp+EldO7AD5t29yT+gV2Jc0T6fhJXTuwA+bdvck/oFdiXNE+n4SV07sAPm3b3JP6BXYlzRPp+EldO7AD5t29yT+gV2Jc0T6fhJXTuwA+bdvck/oFdiXNE+n4SV07sAPm3b3JP6BXYlzRPp+EldO7AD5t29yT+gV2Jc0T6fhJXTuwA+bdvck/oFdiXNE+n4SV07sAPm3b3JP6BXYlzRPp+EldO7AD5t29yT+gV2Jc0T6fhJXTuwA+bdvck/oFdiXNE+n4SV07sAPm3b3JP6BXYlzRPp+EldO7AD5t29yT+gV2Jc0T6fhJXTuwA+bdvck/oFdiXNE+n4SV07sAPm3b3JP6BXYlzRPp+EldO7AD5t29yT+gV2Jc0T6fhJXTuwA+bdvck/oFdiXNE+n4SV07sAPm3b3JP6BXYlzRPp+EldO7AD5t29yT+gV2Jc0T6fhJXTuwA+bdvck/oFdiXNE+n4SV07sAPm3b3JP6BXYlzRPp+EldO7AD5t29yT+gV2Jc0T6fhJXTuwA+bdvck/oFdiXNE+n4SV07sAPm3b3JP6BXYlzRPp+EldO7AD5t29yT+gV2Jc0T6fhJXTuwA+bdvck/oFdiXNE+n4SV07sAPm3b3JP6BXYlzRPp+EldO7AD5t29yT+gV2Jc0T6fhJXTuwA+bdvck/oFdiXNE+n4SV07sAPm3b3JP6BXYlzRPp+EldO7AD5t29yT+gVymkpKPGbqtj8RbCbIYdqOVh2o5WHajlYdqOVh2o5WHajlYdqOVh2o5WHajlYdqOVh2o5WHajlYdqOVh2o5WHajlYdqOVh2o5WHajlYdqOVh2o5WHajlYdqOVh2o5WHajlYdqOVh2o5WHajlYdqOVh2o5WHajlYV1ZRxhgBV0PgLaA3YAfNu3uSf0C3HgB827e5J/QK6YbZenXCAHHEVRH4RUuXZFqKbwOxaim8DsWopvA7FqKbwOxaim8DsWopvA7FqKbwOxaim8DsWopvA7FqKbwOxaim8DsWopvA7FqKbwOxaim8DsWopvA7FqKbwOxaim8DsWopvA7FqKbwOxaim8DsWopvA7FqKbwOxaim8DsWopvA7FqKbwOxaim8DsWopvA7FqKbwOxaim8DsWopvA7E2zMPNNtmrjSKgqjibeu7AD5t29yT+gV2Jc0T6fhJXTuwA+bdvck/oFdiXNE/nTzMpLN/bdeNABP3KHKhP9pyrHJ/u8TcDU5H+++wKh/uyZxUmJyWL/yMmhJ+i9nzsJK6d2AHzbt7kn9ArsS5on80/wDtMD9RtF+s64XILY/msTa/Qoa/w0oCr9CwHYPuvniZcFU+kb523hT7hj1pGxt5PqTUvt5WXfm4SV07sAPm3b3JP6BXYlzRP5rmxiQY+ndHtef9BumGqfS0NQSadBTVwh/DCJ5uqU5rkfdbbVpxr8yDaVzipK1dk2iHsdaRTBfm4SV07sAPm3b9pyjzwj+pMldjfg8QCD5qchsyahlwuINjEqjD4p1PhyHCh/CpTnwIS++pgoiH7qt32knxL9hRVX5vO0xKgXhIt3dwLxbt+y62QF+hJshFRyUmnmDRepWiUY5XJOZafFO1WyQocQ2JlkHmyTrA02p8xra2gfwc6ukV1Wclkd2K41sQ2j/UCisG8wBfEEuAo20hdvwjc0qStObJlgu1972h8wkQURVVV6kTrWC2hNzjpt/+tOQP+IHaRkginaqx/VJGXY8MEHdzeyVq7aTQL/iczlz38/pQ7WO1yVL2fMlgflJptWnmy5iEol3alRVJSB1tPjdYHseRPNfLHIUfbtcnXh2fEPYyn3liX+ilJUPhFOsl6zLtJfmP7KnVxJhrtBnmcO5vbLSTiT0x/kYVCTiLd7Xx1SQVZmS7T/tt/ukCqEiqiovVsh/6OalTQh7CTrEu0Vg0bmgREm5Mi2uMn7V6i+bZanzDpc7isihr+4xZOnNODzH9AJkn7lCbE7PmTKCKJsZYT+kfc6gBIP67n1Wmk+yy0P2WxuZUKlWEF1RLnaYH7Abwldsi+W2osAn9A5+L/kK6fOWmmuYh5iTrEx5iGASlz346bSlnPZE8xMsGiKLjLguCqL2KO3o800wyCKpOOmgCiJ2qWyNlYqHa2uyWD9T9sTxPuryNgnI20HUAD1JdLbKJJubWwNOSbd9iRyIibwaFxsxUTA0QhJFTYqKi9SxLE/Jcpv04eVxn82u0IRUJF2Ki9V1Um5Nz+3LPG0X+4KkWzn1T/EJHPOixbGc4W/bFsZzhb9sWxnOFv2xbGc4W/bFsZzhb9sWxnOFv2xbGc4W/bFsZzhb9sWxnOFv2xbGc4W/bFsZzhb9sWxnOFv2xbGc4W/bFsZzhb9sWxnOFv2xbGc4W/bFsZzhb9sWxnOFv2xbGc4W/bFsZzhb9sWzntnaCiHliszs6XbMvm751W9lySo/ITbH2X5r2BEs2xLMALbTTYoIAIps2Iibzl1kKmX9cldgqRdro8xxLtViV6jlV2O+GcU2ZlHP7L7RNr/8Aro8i/MuqvIDLZOFy/kMU8aVKrzuzpbC8NNpQC1WpDyo/MinwNl2tt73bEwXnE0Qk/dFizVMIu1ZVv2xZal5Vv0iy1LyrfpFlqXlW/SLLUvKt+kWWpeVb9IstS8q36RZal5Vv0iy1LyrfpFlqXlW/SLLUvKt+kWWpeVb9IstS8q36RZal5Vv0iy1LyrfpFlqXlW/SLLUvKt+kWWpeVb9IstS8q36RZal5Vv0iy1LyrfpFmaWhf/K17YYBptOYAFBH9tn+nb//2Q==;" vertex="1" parent="1">
          <mxGeometry x="620" y="290" width="40" height="40" as="geometry" />
        </mxCell>
        <mxCell id="D13HqMTGhr0uNa7FewxC-25" value="" style="shape=image;verticalLabelPosition=bottom;labelBackgroundColor=default;verticalAlign=top;aspect=fixed;imageAspect=0;image=data:image/jpeg,/9j/4AAQSkZJRgABAQAAAQABAAD//gA8Q1JFQVRPUjogZ2QtanBlZyB2MS4wICh1c2luZyBJSkcgSlBFRyB2NjIpLCBxdWFsaXR5ID0gMTAwCv/bAEMABQUFBQUFBQYGBQgIBwgICwoJCQoLEQwNDA0MERoQExAQExAaFxsWFRYbFykgHBwgKS8nJScvOTMzOUdER11dff/CAAsIAoACgAEBIQD/xAAdAAEBAQEBAAMBAQAAAAAAAAAACQcGCAMEBQIB/9oACAEBAAAAAPXYAAAAAAAAAAAAAAAAAAAAAAAAAAAAAAAAAAAAAAAAAAAAAAAAAAAAAAAAAAAAAAAAAAAAAAAAAAAAAAAAAAAAAAAAAAAAAAAAAAAAAAAAAAAAAAAAAAAAAAAAAAAAAAAAAAAAAAAAA/E814px3wAAAPl6vaPS/RgAAAAAAAHn/wAK/ggAAAP1vbXpgAAAAAAADzh4LejvTmi/YAAAfDwPmvzH8Ptj1cAAAAAAAHFS9+t799BgAAAMVnj9emWnAAAAAAADwp5i9e+ywB5s8ifyHqL1cAPKviHfKGAAAAAAAH8yc/FrH+4APIHjf/A9Ue4AB9STf062/eAAAAAAAfgSW0WoYAPpf4P9+6ACbuM1I0AAAAAAABykotVpmAAAACdWGU+0oAAAAAABykotVpmAAAACdWGU+0oAAAAAABykou99sgAAAA8d5bT7SgAAAAAAHKSiAAAAAFP9JAAAAAAAcpKLpd/AAAABhnHU/wBJAAAAAAAcpKLVaZgAAAAnVhlP9JAAAAAAAcpKLVaZgAAAAnVhlP8ASQAAAAAAHKSi1WmYAAAAJ1YZT/SQAAAAAAHKSi1WmYAAAAJ1YZT/AEkAAAAAABykotVpmAAAACdWGU/0kAAAAAABykotVpmAAAACdWGU/wBJAAAAAAAcpKLVaZgAAAAnVhlP9JAAAAAAAcpKLVaZgAAAAnVhlP8ASQAAAAAAHKSi1WmYAAAAJ1YZT/SQAAAAAAHKSi1WmYAAAAJ1YZT/AEkAAAAAABykotVpmAAAACdWGU/0kAAAAAABykotVpmAAAACdWGU/wBJAAAAAAAcpKLVaZgAAAAnVhlP9JAAAAAAAcpKLVaZgAAAAnVhlP8ASQAAAAAAHKSi1WmYAAAAJ1YZT/SQAAAAAAHKSi1WmYAAAAJ1YZT/AEkAAAAAABykotVpmAAAACdWGU/0kAAAAAABykotVpmAAAACdWGU/wBJAAAAAAAcpKLVaZgAAAAnVhlP9JAAAAAAAcpKLVaZgAAAAnVhlP8ASQAAAAAAHKSi1WmYAAAAJ1YZT/SQAAAAAAHKSi1WmYAAAAJ1YZT/AEkAAAAAABykotVpmAAAACdWGU/0kAAAAAABykotVpmAAAACdWGU/wBJAAAAAAAcpKLVaZgAAAAnVhlP9JAAAAAAAcpKLVaZgAAAAnVhlP8ASQAAAAAAHKSi1WmYAAAAJ1YZT/SQAAAAAAHKSi1WmYAAAAJ1YZT/AEkAAAAAABykotVpmAAAACdWGU/0kAAAAAABykotVpmAAAACdWGU/wBJAAAAAAAcpKLVaZgAAAAnVhlP9JAAAAAAAcpKLVaZgAAAAnVhlP8ASQAAAAAAHKSi1WmYAAAAJ1YZT/SQAAAAAAHKSi1WmYAAAAJ1YZT/AEkAAAAAABykou79ngAAAA8iZhT/AEkAAAAAABykogAAAABT/SQAAAAAAHKSi6b0CAAAADCuNp/pIAAAAAADlJRarTMAAAAE6sMp/pIAAAAAADlJRarTMAD6GJfDtv6oAE6sMp/pIAAAAAADlJRarTMAHMTY4V1VJO6ABOrDKf6SAAAAAAA5SUWq0zAB4d8s7P8AoYR6FoGACdWGU/0kAAAAAABzUnNOp0ACcmJU36GU+lU+ABOXEah6KAAAAAAA+GR/9Vq+0AHjvx32X2eE9Re5gA/yUnMVp/aAAAAAAAJ4YN7y9LAB9Cf2Ef5sVC/2wAwqdmsUwAAAAAAAGQTZ/bpZ3wAOP+LtQAcnNHkaE7+AAAAAAAHiPyn+97T9F/cAAAH18B8T8r6M9+AAAAAAAA/jxN5W/j9Pt/mAAAfHxf4/++kvdn2QAAAAAAAGReT8X/MAAAH3ti9VbcAAAAAAAAD+PwPjAAAf3+98oAAAAAAAAAAAAAAAAAAAAAAAAAAAAAAAAAAAAAAAAAAAAAAAAAAAAAAAAAAAAAAAAAAAAAAAAAAAAAAAAAAAAAAAAAAAAAAAAAAAAAAAAAAAAAAAAAAAAAAAAAAAA//EAC0QAAECBAUEAwACAwEBAAAAAAYFBwACAwQIEBg3UAEXNkAVFjAREhMUMZAg/9oACAEBAAEIAP8A06XiNCGLKa+WSjFGlW01SgNK2IJzVOaf/FWdBxLjr/NTuQfx3IP47kH8dyD+O5B/Hcg/juQfx3IP47kH8dyD+O5B/Hcg/juQfx3IP47kH8dyD+O5B/Hcg/juQfx3IP4pOa4VGb+0iU/rnpk0n8jGKW2qzUqJMNlw4XWnS7Q+TdZ80wK610hGICVdKVCooLXtJC0qoF9RUEpqX+syWegilHIvm73URtph5DqVJ6tSepUp056s8klMEw5EZDToXxCgMi26BJJ/S3Q0S0l6SW3xyfHxyfHxyfHxyfHxyfHxyfHxyfHxyfHxyfHxyfHxyfHxyfHxyfHxyfHxyfHxyfHxyfHxyfHxyfHxyfFZFR7mTrJXXWabdfkn/wA5xhpWkmnWvRa4t69nXrW9x0/npDCvFUVv8AkRce4RjagoqpLVdUUr1ZULxRvre3rXdejb27PsrYB1rbLC57Trs+lH9lVvLJSTb1Iv7tPv7e4rWlejcW7SnlM/EbS+qcdiZLZ1ImsRyhGGtvKdxPWM1H8n5dlUC/8ASQkGZzHEnm6zde5bhx3LcOO5bhx3LcOOjluHDDPAtEipMMEX5YkW8p36ZKY2EYeCyceO6CbV42eeWnJPPMWq86+TkCrPa21a9ube1oDKHbDKAkI1t+WJQAWL+9sCpN/5/wDWHACWZyOQsu/yv7G1U7G8sbsgSKyAuKyTXTr2sm39jfUEu9pqSan31PjCy6mshUlu5YaaykUXIDref8/+/wAxMmp003XrN8Wmx8Wmx8Wmx8Wmx0TE7p16denTp06dP46fm/tlJZukQ9ZIaq5nu24DKs3GHng5nkyW6Yf7+IrdBTyZ7bIM4088HM8mS3TD/fxFboKeTPbZBnGnng5nk2S8nDJ2OrKnqLa+NRbXxqLa+NRbXxqLa+NRbXxqLa+NRbXxqLa+NRbXxqLa+NRbXxqLa+NRbXxqLa+NRbXxqLa+NRbXxqLa+NRbXxqLa+NRbXxqLa+NRbXxqLa+NRbXxqLa+NRbXxqLa+NRbXw8JQkGJxfLCPDPbYhnGnng5nwbPbZBnGnng5nkIjlyXEaWg22lcpjSwUxpXKY0rlMaVymNK5TGlgpjSuUxpXKY0rlMaVymNLBTGlcpjSuUxpXKY0rlMaWCmNK5TGlcpjSuUxpXKY0sFMaVymNK5TGlcpjSuUxpYKY0rlMaVymNK5TByHXgIQ10O8hntsgzjTzwczyZLdMP9/EVugp5M9tkGcaeeDmeTJbph/v4it0FPJntsgzjTzwczyZLdMP9/EVugp5M9tkGcaeeDmeTJbph/v4it0FPJntsgzjTzwczyZLdMP8AfxFboKeTPbZBnGnng5nkyW6Yf7+IrdBTyZ7bIM4088HM8mS3TD/fxFboKeTPbZBnGnng5nkyW6Yf7+IrdBTyZ7bIM4088HM8mS3TD/fxFboKeTPbZBnGnng5nkyW6Yf7+IrdBTyZ7bIM4088HM8mS3TD/fxFboKeTPbZBnGnng5nkyW6Yf7+IrdBTyZ7bIM4088HM8mS3TD/AH8RW6Cnkz22QZxp54OZ5MlumH+/iK3QU8me2yDONPPBzPJkt0w/38RW6Cnkz22QZxp54OZ5MlumH+/iK3QU8me2yDONPPBzPJkt0w/38RW6Cnkz22QZxp54OZ5MlumH+/iK3QU8me2yDONPPBzPJkt0w/38RW6Cnkz22QZxp54OZ5MlumH+/iK3QU8me2yDONPPBzPJkt0w/wB/EVugp5M9tkGcaeeDmeTJbph/v4it0FPJntsgzjTzwczyZLdMP9/EVugp5M9tkGcaeeDmeTJbph/v4it0FPJntsgzjTzwczyZLdMP9/EVugp5M9tkGcaeeDmeTJbph/v4it0FPJntsgzjTzwczyZLdMP9/EVugp5M9tkGcaeeDmeTJbph/v4it0FPJntsgzjTzwczyZLdMP8AfxFboKeTPbZBnGnng5nkyW6Yf7+IrdBTyZ7bIM4088HM8mS3TD/fxFboKeTPbZBnGnng5nkyW6Yf7+IrdBTyZ7bIM4088HM8mS3TD/fxFboKeTPbZBnGnng5nkyW6Yf7+IrdBTyZ7bIM4088HM8m1X08WOB9aUtSbaRqTbSNSbaRqTbSNSbaRqTbSNSbaRqTbSNSbaRqTbSNSbaRqTbSNSbaRqTbSNSbaRqTbSNSbaRqTbSNSbaRqTbSNSbaRqTbSNSbaRqTbSNSbaRqTbSNSbaRqTbSNSbaRqTbSHeK0kzNr1ZSYZ7bIM4088HM+DZ7bIM4088HM8hAbuC8jS0G20qk0aVSaNKpNGlUmjSqTRpVJo0qk0aVSaNKpNGlUmjSqTRpVJo0qk0aVSaNKpNGlUmjSqTRpVJo0qk0aVSaNKpNGlUmjSqTRpVJo0qk0aVSaNKpNGlUmjSqTRpVJoOw67BCK4Q7uGe2yDONPPBzPJkt0w/38RW6Cnkz22QZxp54OZ5MlumH/spqqai2dW9UlXEi2ybV60qKbiWbm+qy066Muo5DZSXyR+uIrdBTyZ7bIM4088HM8mS3TD/1MSxLCh++W1I6PyE+Val6q5CZivhapSUkVvDpOcAct1a0/TEVugp5M9tkGcaeeDmeTJbph/64oCatdkSSO04bdliJw7edRkcRhiIETp1ajGG8mrI53KkzfpiK3QU8me2yDONNaU1cNLKMkM1XktnPDZ5/0xCSTyuqQdZoZi+Tb5tBX/QcC/TU4JKLhThn6daq5gb0pfpiFryVnRWpZIaOnNSbQMln4y5oS3NtcUJ1ewqJSqpp9VFU6qMrpinRsb23UrK0vrX88UIfW6zpBbbQKHhWE1qtVCLXIMTfpTkXIwyh9a/Irwor/nNNLJLNNMcLvQmLyJYlp0561SSlINpvRHHkJN47EMLzIB/dX0kYbzumtDkwvd/mqpdgtJ14mqDlsaRBlzcXqXk3bNFB3c0K046PJYqjWKOlfm/h3IJh9dOtoZYXnKXCQ6XXjnrBOpyG3ElpNLNJNNLMNkSoKLVispbeuEiuEiyX1j+is34Qu1Z6ykmNuBo9WWrY9OnSXp06dPzMzRDBkWuqqxqYKpyQXi0pRh9AZxQW6q19x7/tLOmXVwXocDxGtCqnQVEYExIDqxToWhPYqKeqUKdzYetdXdpY0Z690cYiRMekrWyEVmJAaqlRSW4YppqxYpUSBY6dOkvTp06cfVo0q9KpSrOywF2mT3K2HzSzSTdZZoTllWSKvSqm0Hgc23k/pJ3odCO9DoR3odCO9DoR3odCO9DoR3odCO9DoR3odCO9DoR3odCO9DoR3odCO9DoR3odCO9DoR3odCO9DoR3odCO9DoRWeJzq0nWSdUX11bn/uqR/wBhqmFUyepbK5LZ2don2tvaWfJHjLBpz1q3VQow7nyDPUnT1FHVUer/AIVH1rFNUFOt0o2IywDhkE9Oe5BGHDw2eleXHLVKVKtJNJVqiApXm6z1fpYfH0sPj6WHx9LD4+lh8fSw+PpYfH0sPj6WHx9LD4+lh8fSw+PpYfH0sPj6WHx9LD4+lh8fSw+PpYfH0sPiQPEqU3SeShb0Lan0p0P/ADs//8QARxAAAQIDBQMKAggBCwUBAAAAAgEDAAQFBhBUlLMRUJIhMUBBUVWTstHSEjATIjJCU2FxgRQVJDNEUmJjcpCRoSAjQ3N0ov/aAAgBAQAJPwD/AFOqoxJsdROlsUtnUKc5LFDcm1xM2v0TfAMVhqRBfuSrAD50JYtnVcyQxbGrZo4tjVs0cWxq2aOLY1bNHFsatmji2NWzRxbGrZo4tjVs0cWxq2aOLY1bNHFsatmji2NWzRxbGrZo4tjVs0cWxq2aOLY1bNHFsatmji2NWzRxbGrZo4tjVs0cWzq2ZNYr6TgJ9yaZA/QooCs9szI/XTwzirMTbafbEC+uG3qMV2KO9Ebnq3zH1syv+ftOKk7NzJ/eNeQU7AFOQU6XUHpSaaXaDrRfCv79qQrUpVC2AzN/YZmPYe8n0/lmYb2vPYRv3rBkZkqqREu1VVetVWAUzJUQRFNqqq9SQ+tIkj5UZ+BDmT9kWdanHk53p3a+vCX1Yo8kyPULbAAn/CJEhL+GMSEv4YxIS/hjEhL+GMSEv4YxIS/hjEhL+GMSEv4YxIS/hjEhL+GMSEv4YxIS/hjEhL+GMSEv4YxIS/hjEhL+GMSEv4YxIS/hjEhL+GMSEv4YxSZN0OsTYAk/5RYszLS7hczsmn8MSeHE6tTYHlWTdRAmB98MG080Sg42YqJCSc6Ki3TSlOCGynzbhcryfgn2nvDYTrYoEs1+I8fIIw+T01Muk664XKpEUNE686aA22CbSIi5ERIYbma84KEglsMJP8g7T7S6W23K15odrMxzI/8A3HoljYmpZwm3mj5CEhh0m3mjQ2zBdhCQ8qKiwYpUZbYxPAn4o/f/AEPd7v8ANqWyjjydr73tG5jaLREzTR873y3EaqM0yrz0zzqy1zCgRbitZ11ItxW8876xbit5531i3FbzzvrFuK3nnfWLb1rOu+sTKTT5Mk5JTa8jhfR8pAfy2Nk1JoLc+n4jHU5+oXObJOsiksaf43O1u5dgiiqv7csFtWcn33k/ISNVFP2SAU3n3BbbHtI12IkIn0UlLNtIvaqfaL91+XKOTLDcskvOA2KkbSByi5/1yjkvISjLoSxOCoq+48Kh9T5baOS8yybToL1iabFjlckpp1gl7foy2bYJReln23m17CbJCSOUJqWafD9HBQt2rsJilzjqL+YNEtybR/lAHPC2ufNkJdVVedWhiny3hDFPlvCGKfLeEMU+W8IYp8si7fwhjkT5nM+Mu9xNDd3YyHB9Xdvck/oFdiXNE+n4SV07sAPm3b3JP6BXYlzRPp+EldO7AD5t29yT+gVzhBJyjxm6QipKiK2QxU5vKnFTm8qcVObypxU5vKnFTm8qcVObypxU5vKnFTm8qcVObypxU5vKnFTm8qcVObypxU5vKnFTm8qcVObypxU5vKnFTm8qcVObypxU5vKnFTm8qcVObypxU5vKnFTm8qcVObypxU5vKnFTm8qcVObypxU5vKnFTm8qcVObypw6bkm4wwAkYKC7QG7AD5t29yT+gW48APm3b3JP6BXPtsvTrhADjm1RH4RUuXZFpKbwuRaSm8LkWkpvC5FpKbwuRaSm8LkWkpvC5FpKbwuRaSm8LkWkpvC5FpKbwuRaSm8LkWkpvC5FpKbwuRaSm8LkWkpvC5FpKbwuRaSm8LkWkpvC5FpKbwuRaSm8LkWkpvC5FpKbwuRaSm8LkWkpvC5FpKbwuRaSm8LkWkpvC5FpKbwuRaSm8LkWkpvC5E2zMPNNtmrjW1B2OJt67sAPm3b3JP6BXYlzRPp+EldO7AD5t29yT+gV2Jc0T6fhJXTuwA+bdvck/oFdiXNE+n4SV07sAPm3b3JP6BXYlzRPp+EldO7AD5t29yT+gV2Jc0T6fhJXTuwA+bdvck/oFdiXNE+n4SV07sAPm3b3JP6BXYlzRPp+EldO7AD5t29yT+gV2Jc0T6fhJXTuwA+bdvck/oFdiXNE+n4SV07sAPm3b3JP6BXYlzRPp+EldO7AD5t29yT+gV2Jc0T6fhJXTuwA+bdvck/oFdiXNE+n4SV07sAPm3b3JP6BXYlzRPp+EldO7AD5t29yT+gV2Jc0T6fhJXTuwA+bdvck/oFdiXNE+n4SV07sAPm3b3JP6BXYlzRPp+EldO7AD5t29yT+gV2Jc0T6fhJXTuwA+bdvck/oFdiXNE+n4SV07sAPm3b3JP6BXYlzRPp+EldO7AD5t29yT+gV2Jc0T6fhJXTuwA+bdvck/oFdiXNE+n4SV07sAPm3b3JP6BXYlzRPp+EldO7AD5t29yT+gV2Jc0T6fhJXTuwA+bdvck/oFdiXNE+n4SV07sAPm3b3JP6BXYlzRPp+EldO7AD5t29yT+gV2Jc0T6fhJXTuwA+bdvck/oFdiXNE+n4SV07sAPm3b3JP6BXYlzRPp+EldO7AD5t29yT+gV2Jc0T6fhJXTuwA+bdvck/oFdiXNE+n4SV07sAPm3b3JP6BXYlzRPp+EldO7AD5t29yT+gV2Jc0T6fhJXTuwA+bdvck/oFdiXNE+n4SV07sAPm3b3JP6BXYlzRPp+EldO7AD5t29yT+gVymkpKPGbqtj8RbCbIYdqOVh2o5WHajlYdqOVh2o5WHajlYdqOVh2o5WHajlYdqOVh2o5WHajlYdqOVh2o5WHajlYdqOVh2o5WHajlYdqOVh2o5WHajlYdqOVh2o5WHajlYdqOVh2o5WHajlYdqOVh2o5WHajlYV1ZRxhgBV0PgLaA3YAfNu3uSf0C3HgB827e5J/QK6YbZenXCAHHEVRH4RUuXZFqKbwOxaim8DsWopvA7FqKbwOxaim8DsWopvA7FqKbwOxaim8DsWopvA7FqKbwOxaim8DsWopvA7FqKbwOxaim8DsWopvA7FqKbwOxaim8DsWopvA7FqKbwOxaim8DsWopvA7FqKbwOxaim8DsWopvA7FqKbwOxaim8DsWopvA7FqKbwOxaim8DsWopvA7E2zMPNNtmrjSKgqjibeu7AD5t29yT+gV2Jc0T6fhJXTuwA+bdvck/oFdiXNE/nTzMpLN/bdeNABP3KHKhP9pyrHJ/u8TcDU5H+++wKh/uyZxUmJyWL/yMmhJ+i9nzsJK6d2AHzbt7kn9ArsS5on80/wDtMD9RtF+s64XILY/msTa/Qoa/w0oCr9CwHYPuvniZcFU+kb523hT7hj1pGxt5PqTUvt5WXfm4SV07sAPm3b3JP6BXYlzRP5rmxiQY+ndHtef9BumGqfS0NQSadBTVwh/DCJ5uqU5rkfdbbVpxr8yDaVzipK1dk2iHsdaRTBfm4SV07sAPm3b9pyjzwj+pMldjfg8QCD5qchsyahlwuINjEqjD4p1PhyHCh/CpTnwIS++pgoiH7qt32knxL9hRVX5vO0xKgXhIt3dwLxbt+y62QF+hJshFRyUmnmDRepWiUY5XJOZafFO1WyQocQ2JlkHmyTrA02p8xra2gfwc6ukV1Wclkd2K41sQ2j/UCisG8wBfEEuAo20hdvwjc0qStObJlgu1972h8wkQURVVV6kTrWC2hNzjpt/+tOQP+IHaRkginaqx/VJGXY8MEHdzeyVq7aTQL/iczlz38/pQ7WO1yVL2fMlgflJptWnmy5iEol3alRVJSB1tPjdYHseRPNfLHIUfbtcnXh2fEPYyn3liX+ilJUPhFOsl6zLtJfmP7KnVxJhrtBnmcO5vbLSTiT0x/kYVCTiLd7Xx1SQVZmS7T/tt/ukCqEiqiovVsh/6OalTQh7CTrEu0Vg0bmgREm5Mi2uMn7V6i+bZanzDpc7isihr+4xZOnNODzH9AJkn7lCbE7PmTKCKJsZYT+kfc6gBIP67n1Wmk+yy0P2WxuZUKlWEF1RLnaYH7Abwldsi+W2osAn9A5+L/kK6fOWmmuYh5iTrEx5iGASlz346bSlnPZE8xMsGiKLjLguCqL2KO3o800wyCKpOOmgCiJ2qWyNlYqHa2uyWD9T9sTxPuryNgnI20HUAD1JdLbKJJubWwNOSbd9iRyIibwaFxsxUTA0QhJFTYqKi9SxLE/Jcpv04eVxn82u0IRUJF2Ki9V1Um5Nz+3LPG0X+4KkWzn1T/EJHPOixbGc4W/bFsZzhb9sWxnOFv2xbGc4W/bFsZzhb9sWxnOFv2xbGc4W/bFsZzhb9sWxnOFv2xbGc4W/bFsZzhb9sWxnOFv2xbGc4W/bFsZzhb9sWxnOFv2xbGc4W/bFsZzhb9sWxnOFv2xbGc4W/bFsZzhb9sWzntnaCiHliszs6XbMvm751W9lySo/ITbH2X5r2BEs2xLMALbTTYoIAIps2Iibzl1kKmX9cldgqRdro8xxLtViV6jlV2O+GcU2ZlHP7L7RNr/8Aro8i/MuqvIDLZOFy/kMU8aVKrzuzpbC8NNpQC1WpDyo/MinwNl2tt73bEwXnE0Qk/dFizVMIu1ZVv2xZal5Vv0iy1LyrfpFlqXlW/SLLUvKt+kWWpeVb9IstS8q36RZal5Vv0iy1LyrfpFlqXlW/SLLUvKt+kWWpeVb9IstS8q36RZal5Vv0iy1LyrfpFlqXlW/SLLUvKt+kWWpeVb9IstS8q36RZal5Vv0iy1LyrfpFmaWhf/K17YYBptOYAFBH9tn+nb//2Q==;" vertex="1" parent="1">
          <mxGeometry x="700" y="290" width="40" height="40" as="geometry" />
        </mxCell>
        <mxCell id="D13HqMTGhr0uNa7FewxC-27" value="SMS" style="endArrow=classic;html=1;rounded=0;strokeWidth=2;entryX=0.75;entryY=0;entryDx=0;entryDy=0;horizontal=0;" edge="1" parent="1" target="D13HqMTGhr0uNa7FewxC-19">
          <mxGeometry width="50" height="50" relative="1" as="geometry">
            <mxPoint x="450" y="240" as="sourcePoint" />
            <mxPoint x="440" y="270" as="targetPoint" />
            <Array as="points">
              <mxPoint x="450" y="260" />
            </Array>
          </mxGeometry>
        </mxCell>
        <mxCell id="D13HqMTGhr0uNa7FewxC-28" value="DLR" style="endArrow=classic;html=1;rounded=0;strokeWidth=2;dashed=1;dashPattern=1 1;entryX=0.75;entryY=1;entryDx=0;entryDy=0;exitX=0.25;exitY=0;exitDx=0;exitDy=0;horizontal=0;" edge="1" parent="1" source="D13HqMTGhr0uNa7FewxC-19" target="D13HqMTGhr0uNa7FewxC-9">
          <mxGeometry width="50" height="50" relative="1" as="geometry">
            <mxPoint x="390" y="320" as="sourcePoint" />
            <mxPoint x="440" y="270" as="targetPoint" />
          </mxGeometry>
        </mxCell>
        <mxCell id="D13HqMTGhr0uNa7FewxC-29" value="SMS" style="endArrow=classic;html=1;rounded=0;strokeWidth=2;entryX=0.75;entryY=0;entryDx=0;entryDy=0;horizontal=0;" edge="1" parent="1" target="D13HqMTGhr0uNa7FewxC-25">
          <mxGeometry width="50" height="50" relative="1" as="geometry">
            <mxPoint x="729.5" y="240" as="sourcePoint" />
            <mxPoint x="729.5" y="280" as="targetPoint" />
          </mxGeometry>
        </mxCell>
        <mxCell id="D13HqMTGhr0uNa7FewxC-30" value="DLR" style="endArrow=classic;html=1;rounded=0;strokeWidth=2;dashed=1;dashPattern=1 1;entryX=0.75;entryY=1;entryDx=0;entryDy=0;horizontal=0;exitX=0.25;exitY=0;exitDx=0;exitDy=0;" edge="1" parent="1" source="D13HqMTGhr0uNa7FewxC-25">
          <mxGeometry width="50" height="50" relative="1" as="geometry">
            <mxPoint x="710" y="280" as="sourcePoint" />
            <mxPoint x="709.5" y="240" as="targetPoint" />
          </mxGeometry>
        </mxCell>
        <mxCell id="D13HqMTGhr0uNa7FewxC-31" value="SMS" style="endArrow=classic;html=1;rounded=0;strokeWidth=2;entryX=0.75;entryY=0;entryDx=0;entryDy=0;horizontal=0;" edge="1" parent="1" target="D13HqMTGhr0uNa7FewxC-24">
          <mxGeometry width="50" height="50" relative="1" as="geometry">
            <mxPoint x="649.5" y="240" as="sourcePoint" />
            <mxPoint x="649.5" y="280" as="targetPoint" />
          </mxGeometry>
        </mxCell>
        <mxCell id="D13HqMTGhr0uNa7FewxC-32" value="DLR" style="endArrow=classic;html=1;rounded=0;strokeWidth=2;dashed=1;dashPattern=1 1;entryX=0.75;entryY=1;entryDx=0;entryDy=0;exitX=0.25;exitY=0;exitDx=0;exitDy=0;horizontal=0;" edge="1" parent="1" source="D13HqMTGhr0uNa7FewxC-24">
          <mxGeometry width="50" height="50" relative="1" as="geometry">
            <mxPoint x="630" y="280" as="sourcePoint" />
            <mxPoint x="629.5" y="240" as="targetPoint" />
          </mxGeometry>
        </mxCell>
        <mxCell id="D13HqMTGhr0uNa7FewxC-37" value="SMS" style="endArrow=classic;html=1;rounded=0;strokeWidth=2;entryX=0.75;entryY=0;entryDx=0;entryDy=0;horizontal=0;" edge="1" parent="1" target="D13HqMTGhr0uNa7FewxC-22">
          <mxGeometry width="50" height="50" relative="1" as="geometry">
            <mxPoint x="369.5" y="240" as="sourcePoint" />
            <mxPoint x="369.5" y="280" as="targetPoint" />
          </mxGeometry>
        </mxCell>
        <mxCell id="D13HqMTGhr0uNa7FewxC-38" value="DLR" style="endArrow=classic;html=1;rounded=0;strokeWidth=2;dashed=1;dashPattern=1 1;entryX=0.75;entryY=1;entryDx=0;entryDy=0;exitX=0.25;exitY=0;exitDx=0;exitDy=0;horizontal=0;" edge="1" parent="1" source="D13HqMTGhr0uNa7FewxC-22">
          <mxGeometry width="50" height="50" relative="1" as="geometry">
            <mxPoint x="350" y="280" as="sourcePoint" />
            <mxPoint x="349.5" y="240" as="targetPoint" />
          </mxGeometry>
        </mxCell>
        <mxCell id="D13HqMTGhr0uNa7FewxC-49" value="SMS" style="endArrow=classic;html=1;rounded=0;strokeWidth=2;entryX=0.75;entryY=0;entryDx=0;entryDy=0;horizontal=0;" edge="1" parent="1" target="D13HqMTGhr0uNa7FewxC-23">
          <mxGeometry width="50" height="50" relative="1" as="geometry">
            <mxPoint x="589.5" y="240" as="sourcePoint" />
            <mxPoint x="589.5" y="280" as="targetPoint" />
          </mxGeometry>
        </mxCell>
        <mxCell id="D13HqMTGhr0uNa7FewxC-50" value="DLR" style="endArrow=classic;html=1;rounded=0;strokeWidth=2;dashed=1;dashPattern=1 1;entryX=0.75;entryY=1;entryDx=0;entryDy=0;exitX=0.25;exitY=0;exitDx=0;exitDy=0;horizontal=0;" edge="1" parent="1" source="D13HqMTGhr0uNa7FewxC-23">
          <mxGeometry width="50" height="50" relative="1" as="geometry">
            <mxPoint x="570" y="280" as="sourcePoint" />
            <mxPoint x="569.5" y="240" as="targetPoint" />
          </mxGeometry>
        </mxCell>
        <mxCell id="D13HqMTGhr0uNa7FewxC-51" value="SMS" style="endArrow=classic;html=1;rounded=0;strokeWidth=2;entryX=0.75;entryY=0;entryDx=0;entryDy=0;horizontal=0;" edge="1" parent="1" target="D13HqMTGhr0uNa7FewxC-21">
          <mxGeometry width="50" height="50" relative="1" as="geometry">
            <mxPoint x="509.5" y="240" as="sourcePoint" />
            <mxPoint x="509.5" y="280" as="targetPoint" />
            <Array as="points">
              <mxPoint x="510" y="260" />
            </Array>
          </mxGeometry>
        </mxCell>
        <mxCell id="D13HqMTGhr0uNa7FewxC-52" value="DLR" style="endArrow=classic;html=1;rounded=0;strokeWidth=2;dashed=1;dashPattern=1 1;entryX=0.75;entryY=1;entryDx=0;entryDy=0;exitX=0.25;exitY=0;exitDx=0;exitDy=0;horizontal=0;" edge="1" parent="1" source="D13HqMTGhr0uNa7FewxC-21">
          <mxGeometry width="50" height="50" relative="1" as="geometry">
            <mxPoint x="490" y="280" as="sourcePoint" />
            <mxPoint x="489.5" y="240" as="targetPoint" />
          </mxGeometry>
        </mxCell>
        <mxCell id="D13HqMTGhr0uNa7FewxC-53" value="SMS" style="endArrow=classic;html=1;rounded=0;strokeWidth=2;entryX=0.75;entryY=0;entryDx=0;entryDy=0;horizontal=0;" edge="1" parent="1" target="D13HqMTGhr0uNa7FewxC-20">
          <mxGeometry width="50" height="50" relative="1" as="geometry">
            <mxPoint x="309.5" y="240" as="sourcePoint" />
            <mxPoint x="309.5" y="280" as="targetPoint" />
          </mxGeometry>
        </mxCell>
        <mxCell id="D13HqMTGhr0uNa7FewxC-54" value="DLR" style="endArrow=classic;html=1;rounded=0;strokeWidth=2;dashed=1;dashPattern=1 1;entryX=0.75;entryY=1;entryDx=0;entryDy=0;exitX=0.25;exitY=0;exitDx=0;exitDy=0;horizontal=0;" edge="1" parent="1" source="D13HqMTGhr0uNa7FewxC-20">
          <mxGeometry width="50" height="50" relative="1" as="geometry">
            <mxPoint x="289.5" y="280" as="sourcePoint" />
            <mxPoint x="289.5" y="240" as="targetPoint" />
          </mxGeometry>
        </mxCell>
        <mxCell id="D13HqMTGhr0uNa7FewxC-55" value="SMS" style="endArrow=classic;html=1;rounded=0;strokeWidth=2;entryX=0.75;entryY=0;entryDx=0;entryDy=0;horizontal=0;" edge="1" parent="1" target="D13HqMTGhr0uNa7FewxC-12">
          <mxGeometry width="50" height="50" relative="1" as="geometry">
            <mxPoint x="229.5" y="240" as="sourcePoint" />
            <mxPoint x="230" y="280" as="targetPoint" />
          </mxGeometry>
        </mxCell>
        <mxCell id="D13HqMTGhr0uNa7FewxC-56" value="DLR" style="endArrow=classic;html=1;rounded=0;strokeWidth=2;dashed=1;dashPattern=1 1;entryX=0.75;entryY=1;entryDx=0;entryDy=0;exitX=0.25;exitY=0;exitDx=0;exitDy=0;horizontal=0;" edge="1" parent="1" source="D13HqMTGhr0uNa7FewxC-12">
          <mxGeometry width="50" height="50" relative="1" as="geometry">
            <mxPoint x="210" y="280" as="sourcePoint" />
            <mxPoint x="209.5" y="240" as="targetPoint" />
          </mxGeometry>
        </mxCell>
        <mxCell id="D13HqMTGhr0uNa7FewxC-57" value="DLR" style="endArrow=classic;html=1;rounded=0;dashed=1;dashPattern=1 1;strokeWidth=2;exitX=0.75;exitY=0;exitDx=0;exitDy=0;" edge="1" parent="1" source="D13HqMTGhr0uNa7FewxC-8" target="D13HqMTGhr0uNa7FewxC-2">
          <mxGeometry width="50" height="50" relative="1" as="geometry">
            <mxPoint x="390" y="320" as="sourcePoint" />
            <mxPoint x="440" y="270" as="targetPoint" />
          </mxGeometry>
        </mxCell>
        <mxCell id="D13HqMTGhr0uNa7FewxC-58" value="DLR" style="endArrow=classic;html=1;rounded=0;dashed=1;dashPattern=1 1;strokeWidth=2;exitX=0.75;exitY=0;exitDx=0;exitDy=0;entryX=0.442;entryY=1;entryDx=0;entryDy=0;entryPerimeter=0;" edge="1" parent="1" source="D13HqMTGhr0uNa7FewxC-9" target="D13HqMTGhr0uNa7FewxC-2">
          <mxGeometry width="50" height="50" relative="1" as="geometry">
            <mxPoint x="300" y="190" as="sourcePoint" />
            <mxPoint x="423.63636363636374" y="110" as="targetPoint" />
          </mxGeometry>
        </mxCell>
        <mxCell id="D13HqMTGhr0uNa7FewxC-59" value="DLR" style="endArrow=classic;html=1;rounded=0;dashed=1;dashPattern=1 1;strokeWidth=2;exitX=0.358;exitY=-0.05;exitDx=0;exitDy=0;exitPerimeter=0;entryX=0.575;entryY=1.017;entryDx=0;entryDy=0;entryPerimeter=0;" edge="1" parent="1" source="D13HqMTGhr0uNa7FewxC-10" target="D13HqMTGhr0uNa7FewxC-2">
          <mxGeometry width="50" height="50" relative="1" as="geometry">
            <mxPoint x="310" y="200" as="sourcePoint" />
            <mxPoint x="433.63636363636374" y="120" as="targetPoint" />
          </mxGeometry>
        </mxCell>
        <mxCell id="D13HqMTGhr0uNa7FewxC-60" value="DLR" style="endArrow=classic;html=1;rounded=0;dashed=1;dashPattern=1 1;strokeWidth=2;exitX=0.25;exitY=0;exitDx=0;exitDy=0;entryX=0.883;entryY=1.017;entryDx=0;entryDy=0;entryPerimeter=0;" edge="1" parent="1" source="D13HqMTGhr0uNa7FewxC-11" target="D13HqMTGhr0uNa7FewxC-2">
          <mxGeometry width="50" height="50" relative="1" as="geometry">
            <mxPoint x="320" y="210" as="sourcePoint" />
            <mxPoint x="443.63636363636374" y="130" as="targetPoint" />
          </mxGeometry>
        </mxCell>
        <mxCell id="D13HqMTGhr0uNa7FewxC-61" value="DLR" style="endArrow=classic;html=1;rounded=0;dashed=1;dashPattern=1 1;strokeWidth=2;exitX=0;exitY=0.75;exitDx=0;exitDy=0;entryX=1;entryY=0.75;entryDx=0;entryDy=0;" edge="1" parent="1" source="D13HqMTGhr0uNa7FewxC-2" target="D13HqMTGhr0uNa7FewxC-4">
          <mxGeometry width="50" height="50" relative="1" as="geometry">
            <mxPoint x="330" y="220" as="sourcePoint" />
            <mxPoint x="453.63636363636374" y="140" as="targetPoint" />
          </mxGeometry>
        </mxCell>
        <mxCell id="D13HqMTGhr0uNa7FewxC-62" value="DLR" style="endArrow=classic;html=1;rounded=0;dashed=1;dashPattern=1 1;strokeWidth=2;exitX=0;exitY=0.75;exitDx=0;exitDy=0;entryX=1;entryY=0.75;entryDx=0;entryDy=0;" edge="1" parent="1">
          <mxGeometry width="50" height="50" relative="1" as="geometry">
            <mxPoint x="200" y="90" as="sourcePoint" />
            <mxPoint x="120" y="90" as="targetPoint" />
          </mxGeometry>
        </mxCell>
      </root>
    </mxGraphModel>
  </diagram>
</mxfile>
